<svg width="177" height="89" viewBox="0 0 177 89" fill="none" xmlns="http://www.w3.org/2000/svg">
<path d="M33.9062 30.8672C38.8281 30.8672 43.2617 32.0195 47.207 34.3242C51.1914 36.5898 54.2773 39.8125 56.4648 43.9922C58.6914 48.1719 59.8047 52.9961 59.8047 58.4648C59.8047 68.0352 56.9141 75.3789 51.1328 80.4961C45.3906 85.6133 36.6797 88.1719 25 88.1719C15 88.1719 6.83594 86.6289 0.507812 83.543V64.5586C3.90625 66.1211 7.73438 67.4102 11.9922 68.4258C16.2891 69.4414 19.9805 69.9492 23.0664 69.9492C27.3633 69.9492 30.6641 69.0508 32.9688 67.2539C35.2734 65.418 36.4258 62.7227 36.4258 59.168C36.4258 55.8867 35.2539 53.3281 32.9102 51.4922C30.5664 49.6562 27.0117 48.7383 22.2461 48.7383C18.6133 48.7383 14.6875 49.4219 10.4688 50.7891L1.97266 46.5703L5.19531 1.33594H54.0625V20.6133H24.8828L23.8281 31.9219C26.875 31.3359 29.043 31.0234 30.332 30.9844C31.6211 30.9062 32.8125 30.8672 33.9062 30.8672ZM85.1172 27.1172C85.1172 31.6094 85.4883 34.8516 86.2305 36.8438C86.9727 38.8359 88.0859 39.832 89.5703 39.832C91.0547 39.832 92.1484 38.8555 92.8516 36.9023C93.5938 34.9492 93.9648 31.6875 93.9648 27.1172C93.9648 22.625 93.5938 19.3828 92.8516 17.3906C92.1484 15.3984 91.0547 14.4023 89.5703 14.4023C88.0469 14.4023 86.9141 15.418 86.1719 17.4492C85.4688 19.4805 85.1172 22.7031 85.1172 27.1172ZM111.66 26.8828C111.66 35.4766 109.727 42.1367 105.859 46.8633C101.992 51.5508 96.4844 53.8945 89.3359 53.8945C82.6172 53.8945 77.2852 51.4727 73.3398 46.6289C69.4336 41.7461 67.4805 35.1641 67.4805 26.8828C67.4805 18.2891 69.3945 11.6875 73.2227 7.07812C77.0508 2.42969 82.4219 0.105469 89.3359 0.105469C96.1719 0.105469 101.602 2.50781 105.625 7.3125C109.648 12.1172 111.66 18.6406 111.66 26.8828ZM154.375 1.33594L106.855 87H89.4531L136.973 1.33594H154.375ZM150.273 61.2188C150.273 65.7109 150.645 68.9531 151.387 70.9453C152.129 72.9375 153.242 73.9336 154.727 73.9336C156.406 73.9336 157.559 72.8008 158.184 70.5352C158.848 68.2305 159.18 65.125 159.18 61.2188C159.18 57.3125 158.848 54.2266 158.184 51.9609C157.559 49.6562 156.406 48.5039 154.727 48.5039C153.203 48.5039 152.07 49.5195 151.328 51.5508C150.625 53.582 150.273 56.8047 150.273 61.2188ZM176.816 60.9844C176.816 69.5391 174.863 76.1797 170.957 80.9062C167.09 85.5938 161.602 87.9375 154.492 87.9375C147.773 87.9375 142.441 85.5156 138.496 80.6719C134.59 75.7891 132.637 69.2266 132.637 60.9844C132.637 52.3906 134.551 45.7891 138.379 41.1797C142.207 36.5312 147.578 34.207 154.492 34.207C161.328 34.207 166.758 36.6094 170.781 41.4141C174.805 46.2188 176.816 52.7422 176.816 60.9844Z" fill="#E30613" fill-opacity="0.1"/>
</svg>
