<svg width="29" height="30" viewBox="0 0 29 30" fill="none" xmlns="http://www.w3.org/2000/svg">
<path d="M4.6929 4.56741C6.11286 2.71362 8.5829 1.09568 11.0492 0.404232C15.0269 -0.710944 19.8158 0.533751 22.9204 3.49031C24.871 5.34825 26.4971 8.61474 26.5025 10.687C26.505 11.527 26.6961 12.331 26.928 12.4738C27.7388 12.9724 29 15.9666 29 17.3921C29 19.5008 28.3692 20.8208 26.3965 22.8397C25.4287 23.8308 24.0935 25.313 23.4299 26.1335C20.9287 29.2271 14.2478 31.3283 14.2478 29.0218C14.2478 28.2985 14.5362 28.1901 16.5333 28.1607C19.805 28.1123 19.6978 28.1512 21.7444 26.2726C23.555 24.6108 23.5866 24.54 22.7741 23.9735C21.9995 23.4331 21.9356 22.937 21.9356 17.4629C21.9356 13.0101 22.0743 11.4223 22.4932 11.076C22.7999 10.8227 23.1615 10.7255 23.2965 10.86C23.432 10.9945 23.7295 10.9895 23.9581 10.8488C24.6703 10.4106 23.2375 7.06756 21.631 5.42024C18.6419 2.35527 14.1243 1.4681 10.3 3.19445C7.87065 4.291 6.7046 5.40535 5.47996 7.80122C4.21667 10.2724 4.22955 10.524 5.62499 10.6841L6.76776 10.8149L6.88246 17.1339C6.9797 22.4926 6.90074 23.4902 6.36218 23.6959C4.2017 24.5214 0.572255 21.4171 0.109741 18.348C-0.136268 16.7123 -0.00829387 16.0382 0.902604 14.1848C1.50017 12.9687 1.98887 11.5754 1.98887 11.0884C1.98887 9.72867 3.46369 6.17252 4.6929 4.56741Z" fill="#656777"/>
</svg>
