<svg width="81" height="69" viewBox="0 0 81 69" fill="none" xmlns="http://www.w3.org/2000/svg">
<path d="M69.7224 14.4872C64.5661 11.8186 66.9991 4.81801 74.3781 1.08992C77.5135 -0.493672 79.8912 -0.337856 80.1483 1.4676C80.4129 3.32604 76.701 12.7067 75.1153 14.185C73.5551 15.6402 72.1063 15.7212 69.7224 14.4872Z" fill="#656777"/>
<path d="M55.4388 30.6722C59.1103 23.2459 62.1572 18.9164 64.883 17.2524C68.7586 14.8873 72.176 16.3276 72.176 20.3261C72.176 22.5217 64.7921 52.0161 63.4622 55.1334C62.7126 56.8896 61.5739 56.9183 60.1195 55.2182C59.2061 54.1512 58.5487 53.9718 56.6572 54.2746C54.0461 54.6928 52.291 53.3884 51.0495 50.1072C49.3611 45.6462 50.4755 40.7116 55.4388 30.6722Z" fill="#656777"/>
<path d="M14.3015 60.1192C14.8513 54.8056 16.8392 51.2408 19.8781 50.1221C23.8303 48.6676 41.5531 51.295 50.572 54.6729C53.7696 55.8707 54.1208 56.1811 54.1208 57.8126C54.1208 60.2918 56.6273 61.9982 58.8083 61.0035C60.1799 60.3778 60.4276 60.4937 61.2893 62.1614L62.2463 64.0143H38.0728H13.8987L14.3015 60.1192Z" fill="#656777"/>
<path d="M56.3521 59.6954C55.3404 58.8547 55.0179 56.4684 55.8099 55.6762C56.0533 55.4319 56.9642 55.3148 57.8333 55.4164C59.1177 55.5666 59.4128 55.9374 59.4128 57.4026C59.4128 59.6455 57.7717 60.8745 56.3521 59.6954Z" fill="#656777"/>
<path d="M11.1618 68.1693C11.1618 67.7118 11.3517 67.1478 11.5839 66.916C11.8155 66.6835 23.5091 66.567 37.5685 66.6561C61.3447 66.8075 63.1465 66.8948 63.3414 67.9094C63.5381 68.9339 61.9686 69 37.3562 69C15.9427 69 11.1618 68.8486 11.1618 68.1693Z" fill="#656777"/>
<path d="M24.1485 42.5641C24.8133 42.4783 24.931 42.3622 24.8035 41.9176C24.7182 41.6197 24.7232 41.5158 24.8148 41.6866C24.9061 41.8577 25.1551 41.9974 25.3676 41.9974C25.5802 41.9974 25.8292 41.8577 25.9205 41.6866C26.0121 41.5158 26.0142 41.6277 25.9252 41.9352C25.7877 42.4107 25.8863 42.5004 26.5804 42.532L27.3971 42.5693L26.5992 42.6727C25.9669 42.755 25.8225 42.8891 25.9046 43.3195C25.9614 43.6179 25.9521 43.7226 25.884 43.5515C25.8159 43.3807 25.5833 43.2407 25.3676 43.2407C25.1519 43.2407 24.9194 43.3807 24.8513 43.5515C24.7832 43.7226 24.7762 43.6104 24.8357 43.3028C24.9249 42.8413 24.8032 42.7369 24.141 42.7061L23.3382 42.6688L24.1485 42.5641Z" fill="#E40B12"/>
<path d="M37.0368 35.5161L37.7806 38.98C37.8196 39.1618 37.9551 39.3077 38.1335 39.3602L40.5882 40.0823L38.1335 40.8043C37.9551 40.8568 37.8196 41.0027 37.7806 41.1845L37.0368 44.6484L36.2929 41.1845C36.2539 41.0027 36.1185 40.8568 35.9401 40.8043L33.4853 40.0823L35.9401 39.3602C36.1185 39.3077 36.2539 39.1618 36.2929 38.98L37.0368 35.5161Z" fill="#E40B12"/>
<path fill-rule="evenodd" clip-rule="evenodd" d="M45.0529 33.2837C45.8375 33.2837 46.4735 32.6477 46.4735 31.8631C46.4735 31.0786 45.8375 30.4426 45.0529 30.4426C44.2684 30.4426 43.6324 31.0786 43.6324 31.8631C43.6324 32.6477 44.2684 33.2837 45.0529 33.2837ZM44.8085 31.8347C45.0177 31.7242 45.0882 31.4472 44.9661 31.216C44.844 30.9847 44.5754 30.8868 44.3662 30.9972C44.1571 31.1077 44.0865 31.3847 44.2086 31.616C44.3308 31.8472 44.5993 31.9452 44.8085 31.8347Z" fill="#E40B12"/>
<path fill-rule="evenodd" clip-rule="evenodd" d="M20.6925 10.3979C19.0937 10.8802 17.8923 11.724 15.2528 14.2177C12.0497 17.2442 10.5056 18.0994 6.57338 19.0263C3.29482 19.7989 1.51305 20.6099 0.61935 21.7369C0.0461193 22.4594 0 22.8872 0 27.4743C0 31.8697 0.0676991 32.5623 0.597472 33.5926C1.37114 35.0961 3.92275 37.0843 7.14898 38.6975C11.4764 40.8614 14.839 41.154 18.1323 39.6537C19.4532 39.0517 20.6292 38.0865 23.1581 35.5292C24.9735 33.6929 26.8801 31.9776 27.3945 31.7181C27.9089 31.4584 29.8379 30.8403 31.6811 30.3445C35.198 29.3989 36.7137 28.619 37.2334 27.4878C37.4126 27.0979 37.5447 24.7247 37.5441 21.9117C37.5429 16.2329 37.4407 15.9344 34.8202 13.9723C31.6862 11.6255 27.2537 10.1082 23.6515 10.1493C22.4314 10.163 21.0999 10.275 20.6925 10.3979ZM34.4864 15.0557C32.6872 13.6451 31.2634 12.9068 28.5341 11.9686C26.3337 11.2124 22.5556 10.8424 21.2837 11.2587C19.6498 11.7932 18.5338 12.5817 16.0493 14.956C12.876 17.9889 11.2157 18.8958 6.70612 20.0589C3.03023 21.0074 1.61889 21.7404 1.15888 22.9405C0.744407 24.021 1.85421 25.7468 3.98513 27.3353C7.44491 29.9149 10.8976 31.2346 14.1859 31.2346C17.0464 31.2346 18.4673 30.4184 22.3386 26.5519C24.1056 24.7868 26.1549 23.0185 26.8922 22.6221C27.6295 22.2257 29.5443 21.5566 31.1469 21.1353C34.5627 20.2369 35.5912 19.759 36.2472 18.7656C36.9319 17.7294 36.3601 16.5247 34.4864 15.0557Z" fill="#E40B12"/>
<path d="M9.84619 23.2787C9.88639 23.7279 9.25168 24.1519 8.42851 24.2258C7.60535 24.2998 6.90545 23.9955 6.86525 23.5463C6.82505 23.0971 7.45976 22.6731 8.28292 22.5992C9.10609 22.5252 9.80598 22.8295 9.84619 23.2787Z" fill="#E40B12"/>
<path d="M17.5887 26.739C17.5525 27.2661 16.6885 27.636 15.6587 27.5652C14.629 27.4944 13.8235 27.0097 13.8596 26.4826C13.8958 25.9555 14.7598 25.5856 15.7896 25.6564C16.8193 25.7272 17.6248 26.2119 17.5887 26.739Z" fill="#E40B12"/>
<path d="M19.8889 17.4346C19.9119 17.0999 19.4005 16.7922 18.7467 16.7472C18.0929 16.7023 17.5443 16.9371 17.5214 17.2718C17.4984 17.6064 18.0098 17.9141 18.6636 17.9591C19.3174 18.0041 19.866 17.7692 19.8889 17.4346Z" fill="#E40B12"/>
<path d="M27.3945 19.0263C27.3669 18.5182 26.4561 18.1546 25.3602 18.2143C24.2642 18.2739 23.3981 18.7342 23.4257 19.2423C23.4533 19.7504 24.3641 20.1139 25.46 20.0543C26.5559 19.9946 27.422 19.5344 27.3945 19.0263Z" fill="#E40B12"/>
<path d="M34.358 17.3202C34.392 16.8912 33.6835 16.4849 32.7755 16.4127C31.8675 16.3406 31.1039 16.6298 31.0699 17.0588C31.0359 17.4878 31.7444 17.894 32.6524 17.9662C33.5604 18.0384 34.324 17.7491 34.358 17.3202Z" fill="#E40B12"/>
<path d="M25.7007 14.5751C25.6847 14.2403 25.0446 13.9989 24.2709 14.0359C23.4973 14.0729 22.883 14.3744 22.899 14.7092C22.915 15.044 23.5551 15.2854 24.3287 15.2484C25.1024 15.2114 25.7166 14.9099 25.7007 14.5751Z" fill="#E40B12"/>
</svg>
