<svg width="160" height="69" viewBox="0 0 160 69" fill="none" xmlns="http://www.w3.org/2000/svg">
<path d="M10.8618 25.7963C12.351 23.7914 13.6799 21.921 15.086 20.1117C17.4592 17.0554 19.9867 14.0725 23.1074 11.7314C24.6151 10.5731 26.454 9.96452 28.3343 10.0016C38.0881 10.0688 47.8419 10.0444 57.5957 10.0016C58.9552 10.0423 60.2725 10.4976 61.3809 11.3097C63.8061 12.9996 65.9668 15.0608 67.7885 17.4222C69.8413 19.9528 71.7577 22.5995 73.7215 25.1973C73.8342 25.344 73.941 25.5029 74.1902 25.8575C74.3995 25.1284 74.5581 24.3848 74.6648 23.6325C74.6563 23.2668 74.7517 22.9065 74.9393 22.5959C75.127 22.2853 75.3986 22.0379 75.7209 21.8843C77.7144 20.888 79.8265 20.7963 81.9802 20.9858C82.5438 21.0347 83.1134 21.1264 83.6711 21.2303C84.9051 21.4565 85.3204 22.2266 84.7449 23.4125C83.4041 26.2059 81.0309 27.8379 77.833 27.0005C77.3524 26.8783 76.8422 26.5726 76.4032 27.1472C76.0828 27.569 76.0294 27.9418 76.4566 28.2903C76.7143 28.4992 76.9927 28.6795 77.2872 28.8281C80.2003 30.2157 81.7725 32.5751 81.7844 35.8637C81.8318 45.7659 81.7844 55.6682 81.7844 65.5705C81.8156 66.0251 81.7522 66.4814 81.5985 66.9088C81.4449 67.3362 81.2045 67.7248 80.8933 68.0489C80.5822 68.3729 80.2076 68.6247 79.7944 68.7876C79.3812 68.9505 78.9391 69.0207 78.4975 68.9935C76.0769 68.9935 73.6562 68.9935 71.2356 68.9935C70.8069 69.0074 70.38 68.9299 69.9817 68.7659C69.5834 68.602 69.2223 68.355 68.921 68.0405C68.6196 67.7261 68.3846 67.3509 68.2306 66.9385C68.0765 66.526 68.0068 66.0853 68.0258 65.6438C68.0258 63.2722 68.0258 60.9005 68.0258 58.4739H17.0024V59.2257C17.0024 61.3529 17.0024 63.5045 17.0024 65.6072C17.027 66.0559 16.9598 66.5049 16.8052 66.9252C16.6506 67.3455 16.4121 67.7276 16.105 68.0469C15.7979 68.3661 15.4292 68.6153 15.0227 68.7784C14.6162 68.9415 14.1809 69.0148 13.7452 68.9935C11.372 68.9935 8.95137 68.9935 6.56039 68.9935C6.11311 69.0228 5.66494 68.9529 5.24613 68.7885C4.82733 68.6241 4.44764 68.369 4.1327 68.0405C3.81777 67.712 3.57492 67.3177 3.42056 66.8842C3.2662 66.4507 3.20392 65.9881 3.23793 65.5277C3.23793 55.6743 3.23793 45.8209 3.23793 35.9737C3.23793 32.5751 4.82796 30.179 7.83597 28.7854C8.06971 28.6733 8.28894 28.5316 8.4886 28.3636C8.80305 28.1008 9.0463 27.789 8.76151 27.3611C8.47673 26.9333 8.24535 26.6888 7.70545 26.8599C6.46622 27.3186 5.11452 27.3423 3.86089 26.9272C2.9991 26.6035 2.21811 26.0861 1.57465 25.4126C0.931196 24.7391 0.441428 23.9264 0.140927 23.0335C0.0517987 22.8691 0.0034501 22.6847 0.000177931 22.4964C-0.00309424 22.3082 0.0388102 22.122 0.122169 21.9545C0.205528 21.787 0.327762 21.6433 0.478008 21.5361C0.628253 21.429 0.801859 21.3617 0.983406 21.3403C3.7363 20.7291 6.47733 20.6007 9.14716 21.8049C9.51967 21.957 9.83548 22.2275 10.0488 22.5769C10.2622 22.9264 10.362 23.3368 10.3337 23.7487C10.4468 24.4468 10.6236 25.1324 10.8618 25.7963ZM14.2139 25.668L15.5666 25.558C20.313 25.1484 25.1068 24.4944 29.8828 24.3843C38.189 24.1887 46.4951 24.3232 54.8013 24.3232C55.4658 24.3232 56.1303 24.3232 56.7947 24.3966L69.7583 25.5885C70.0668 25.6191 70.3515 25.5885 70.8736 25.5885C68.7734 22.9173 66.8511 20.344 64.7864 17.899C63.4089 16.3208 61.945 14.8249 60.402 13.4185C59.5633 12.6787 58.4782 12.3039 57.3762 12.3733C47.6758 12.3733 37.9754 12.4222 28.2691 12.3733C27.4647 12.323 26.659 12.449 25.9053 12.743C25.1516 13.0369 24.4669 13.4922 23.8965 14.0787C22.0691 16.0163 20.2774 18.009 18.5568 20.0567C17.0855 21.8049 15.7446 23.6692 14.2139 25.668ZM42.6268 43.8405H41.6301C36.3438 43.8405 31.0635 43.8405 25.7772 43.8711C25.2708 43.9725 24.7839 44.1583 24.3355 44.4212C24.5344 44.8931 24.8092 45.3271 25.1483 45.7048C27.4957 47.6508 30.4008 48.7444 33.413 48.8161C39.251 48.8161 45.089 48.7672 50.9211 48.8161C53.8308 48.8203 56.6784 47.9492 59.1145 46.3099C59.5985 46.0019 60.0413 45.6299 60.4316 45.2036C61.0249 44.5923 60.8647 44.0911 60.046 43.92C59.5302 43.8343 59.0079 43.7974 58.4856 43.8099L42.6268 43.8405ZM42.5556 57.8382H56.0057C56.4552 57.8453 56.9044 57.8064 57.3465 57.722C57.8627 57.612 57.9813 57.233 57.6788 56.7929C57.5278 56.5743 57.3435 56.3823 57.1329 56.2244C55.4786 54.8875 53.4502 54.1351 51.3483 54.079C45.5162 54.079 39.6841 54.079 33.852 54.079C31.7524 54.1175 29.7196 54.8456 28.0496 56.1572C27.8254 56.3318 27.6257 56.5375 27.4563 56.7685C27.1122 57.2452 27.2308 57.6059 27.7944 57.7342C28.2128 57.8166 28.6383 57.8534 29.0641 57.8443L42.5556 57.8382ZM18.2898 43.7794C18.7859 43.8069 19.283 43.8069 19.779 43.7794C20.0104 43.7794 20.3723 43.5715 20.3723 43.3943C20.3723 43.217 20.2299 42.893 20.0579 42.7219C19.7987 42.4355 19.4885 42.2031 19.1442 42.0373C16.4803 40.8943 13.8045 39.7145 11.1288 38.6815C9.44381 38.0703 7.68172 37.6241 5.94336 37.1412C5.27294 36.9578 4.95256 37.2329 4.95849 37.8808C4.95849 39.415 6.48326 41.5483 7.92497 42.0006C11.3024 43.0057 14.7796 43.6127 18.2898 43.8099V43.7794ZM66.7206 43.7794C70.0554 43.5494 73.3635 43.0114 76.6049 42.1718C78.7704 41.64 79.5714 40.0202 80.0579 38.0703C80.2477 37.3001 79.8799 36.9456 79.1205 37.1289C77.9614 37.3772 76.8165 37.6915 75.6912 38.0703C72.6654 39.2011 69.6633 40.3869 66.6672 41.5972C66.0828 41.869 65.5377 42.2228 65.0475 42.6485C64.942 42.7333 64.8566 42.8418 64.798 42.9658C64.7394 43.0897 64.7091 43.2258 64.7093 43.3637C64.7568 43.5532 65.1246 43.7244 65.3738 43.761C65.8209 43.812 66.2708 43.8324 66.7206 43.8222V43.7794ZM27.4919 32.2389L27.5393 32.4834H57.5601L57.5957 32.2389C56.5576 31.9372 55.4953 31.7327 54.4216 31.6277C46.511 31.5788 38.5865 31.5788 30.6482 31.6277C29.5808 31.7362 28.5247 31.9408 27.4919 32.2389ZM71.5856 52.1902L71.6271 51.799C71.0043 51.497 70.3621 51.2397 69.7049 51.0288C67.8182 50.6337 65.8766 50.6047 63.9796 50.9432C62.9512 51.1089 61.933 51.3355 60.93 51.6217C60.669 51.689 60.4732 51.9946 60.2477 52.1841C60.4336 52.4435 60.6443 52.6831 60.8766 52.8992C61.0635 53.0525 61.291 53.1441 61.5292 53.1621C62.3699 53.2343 63.2142 53.2486 64.0567 53.2049C66.2756 53.0093 68.4886 52.7525 70.7016 52.4958C71.0059 52.4263 71.3022 52.3238 71.5856 52.1902ZM22.6446 53.4127C23.2703 53.2281 23.8828 52.9994 24.4779 52.7281C25.006 52.4652 24.9585 52.0496 24.4305 51.7562C24.179 51.6202 23.9119 51.5175 23.6354 51.4506C21.459 50.8425 19.1954 50.6355 16.949 50.8393C15.9714 50.9815 15.0083 51.2147 14.0715 51.5361C13.8639 51.5973 13.7096 51.8784 13.5375 52.0618C13.7571 52.2085 13.9707 52.4652 14.202 52.4897C16.9075 52.7831 19.6188 53.0765 22.6446 53.4066V53.4127Z" fill="#656777"/>
<path d="M70.7986 5.94587C71.4537 5.86133 71.5697 5.74687 71.444 5.30872C71.36 5.01515 71.3649 4.91273 71.4551 5.08108C71.5451 5.24967 71.7906 5.38739 72 5.38739C72.2094 5.38739 72.4549 5.24967 72.5449 5.08108C72.6351 4.91273 72.6371 5.023 72.5494 5.32613C72.414 5.79466 72.5111 5.88313 73.1951 5.91425L74 5.95102L73.2137 6.05293C72.5906 6.13405 72.4483 6.26615 72.5291 6.69033C72.5851 6.98439 72.576 7.08755 72.5089 6.91896C72.4417 6.75061 72.2126 6.61264 72 6.61264C71.7874 6.61264 71.5583 6.75061 71.4911 6.91896C71.424 7.08755 71.4171 6.97703 71.4757 6.67391C71.5637 6.21909 71.4437 6.11616 70.7911 6.08578L70 6.04901L70.7986 5.94587Z" fill="#E40B12"/>
<path d="M129.109 9.73873C129.09 5.22467 132.278 1.36162 136.975 0.20611C139.238 -0.35081 142.21 0.224022 145.696 1.89254C148.323 3.15065 150.088 4.5154 154.155 8.43848L159.294 13.3948L157.056 15.6233L152.062 10.8593C146.465 5.51992 142.832 3.37648 139.378 3.37648C134.434 3.37648 131.049 7.79198 132.693 12.0977C132.937 12.7371 134.816 15.0234 136.867 17.1785C141.793 22.3534 142.719 25.194 140.778 29.1857C139.568 31.6732 137.179 33.4574 134.684 33.7374C132.345 33.9999 128.724 32.4421 126.641 30.2776L125.336 28.9209L127.433 26.699L129.021 28.0871C131.061 29.8703 133.308 30.7973 134.729 30.442C136.522 29.994 138.1 27.7842 138.1 25.7223C138.1 23.297 137.326 22.0147 133.808 18.61C130.272 15.1879 129.122 13.0184 129.109 9.73873Z" fill="#E40B12"/>
<path d="M102.794 6.46442C103.049 6.70278 104.766 6.25787 107.047 5.36312L110.872 3.86125L111.66 4.7887C112.621 5.92002 112.687 7.66921 111.782 8.0151C111.317 8.19298 113.107 10.2262 117.745 14.7886C124.003 20.9434 124.325 21.3444 123.514 21.965C123.041 22.3261 122.085 23.1272 121.389 23.7446L120.123 24.8674L114.413 18.0423C111.273 14.2886 108.544 11.0363 108.348 10.8145C107.815 10.211 105.697 11.7728 105.697 12.7693C105.697 14.4674 104.958 14.0359 104.417 12.022C103.856 9.93273 102.515 7.63739 101.265 6.62481C100.659 6.13375 100.684 6.06475 101.47 6.06475C101.963 6.06475 102.559 6.24488 102.794 6.46442Z" fill="#E40B12"/>
<path d="M113.413 6.24843C113.095 6.44378 111.997 4.72151 111.997 4.02749C111.997 3.75642 112.235 3.77165 113.085 4.09648C113.839 4.38413 114.062 5.84923 113.413 6.24843Z" fill="#E40B12"/>
<path d="M96.7951 7.18935C96.864 7.13648 97.3127 6.88289 97.792 6.62661C100.101 5.39 103.896 10.2051 103.896 14.3711C103.896 15.6153 103.646 16.0279 102.546 16.5938L101.196 17.2887V15.7466C101.196 13.6878 99.8473 10.668 98.0953 8.80364C97.3109 7.96893 96.7258 7.24266 96.7951 7.18935Z" fill="#E40B12"/>
<path d="M95.233 14.1385C93.9342 11.6098 93.5832 8.51778 94.558 8.19116C96.8181 7.43396 100.296 12.2554 100.296 16.1453C100.296 19.46 97.3707 18.3004 95.233 14.1385Z" fill="#E40B12"/>
<path d="M121.538 27.9294C120.489 26.885 120.96 25.4324 122.879 23.7975C125.127 21.8821 127.12 21.6361 127.702 23.2025C128.215 24.5838 127.57 25.7734 125.513 27.2349C123.644 28.5634 122.394 28.7815 121.538 27.9294Z" fill="#E40B12"/>
<path d="M77.5 7.99695L78.2331 11.4107C78.2715 11.5899 78.405 11.7337 78.5808 11.7854L81 12.4969L78.5808 13.2085C78.405 13.2602 78.2715 13.404 78.2331 13.5832L77.5 16.9969L76.7669 13.5832C76.7285 13.404 76.595 13.2602 76.4192 13.2085L74 12.4969L76.4192 11.7854C76.595 11.7337 76.7285 11.5899 76.7669 11.4107L77.5 7.99695Z" fill="#E40B12"/>
<path fill-rule="evenodd" clip-rule="evenodd" d="M89.4 25.7969C90.1732 25.7969 90.8 25.1701 90.8 24.3969C90.8 23.6237 90.1732 22.9969 89.4 22.9969C88.6268 22.9969 88 23.6237 88 24.3969C88 25.1701 88.6268 25.7969 89.4 25.7969ZM89.1591 24.3689C89.3652 24.2601 89.4348 23.9871 89.3144 23.7591C89.1941 23.5312 88.9294 23.4347 88.7232 23.5436C88.5171 23.6525 88.4476 23.9255 88.5679 24.1534C88.6883 24.3813 88.9529 24.4778 89.1591 24.3689Z" fill="#E40B12"/>
<path d="M97.8439 21.0948C97.7218 21.3138 97.4453 21.3925 97.2262 21.2705C97.0072 21.1484 96.9285 20.8719 97.0505 20.6528C97.1726 20.4337 97.8155 20.2127 97.8155 20.2127C97.8155 20.2127 97.9659 20.8757 97.8439 21.0948Z" fill="#E40B12"/>
<path d="M92.9075 29.9563C92.7855 30.1754 92.5089 30.254 92.2899 30.132C92.0708 30.0099 91.9921 29.7334 92.1142 29.5143C92.2362 29.2953 92.8791 29.0742 92.8791 29.0742C92.8791 29.0742 93.0295 29.7372 92.9075 29.9563Z" fill="#E40B12"/>
<path d="M93.8808 28.2091C93.7588 28.4282 93.4822 28.5068 93.2632 28.3848C93.0441 28.2627 92.9654 27.9862 93.0875 27.7671C93.2095 27.5481 93.8524 27.327 93.8524 27.327C93.8524 27.327 94.0028 27.99 93.8808 28.2091Z" fill="#E40B12"/>
<path d="M94.8541 26.4619C94.7321 26.681 94.4555 26.7596 94.2364 26.6376C94.0174 26.5155 93.9387 26.239 94.0607 26.0199C94.1828 25.8009 94.8257 25.5798 94.8257 25.5798C94.8257 25.5798 94.9761 26.2428 94.8541 26.4619Z" fill="#E40B12"/>
<path d="M95.8274 24.7147C95.7053 24.9338 95.4288 25.0124 95.2097 24.8904C94.9907 24.7683 94.912 24.4918 95.034 24.2727C95.1561 24.0537 95.799 23.8326 95.799 23.8326C95.799 23.8326 95.9494 24.4956 95.8274 24.7147Z" fill="#E40B12"/>
<path d="M96.8007 22.9675C96.6786 23.1866 96.4021 23.2652 96.183 23.1432C95.964 23.0211 95.8853 22.7446 96.0073 22.5255C96.1294 22.3065 96.7723 22.0854 96.7723 22.0854C96.7723 22.0854 96.9227 22.7484 96.8007 22.9675Z" fill="#E40B12"/>
<path d="M91.4871 18.1746C91.2999 18.3415 91.0129 18.325 90.846 18.1378C90.6791 17.9506 90.6956 17.6636 90.8828 17.4967C91.07 17.3298 91.7499 17.3321 91.7499 17.3321C91.7499 17.3321 91.6743 18.0077 91.4871 18.1746Z" fill="#E40B12"/>
<path d="M93.2513 19.8934C93.0711 20.0678 92.7836 20.0631 92.6092 19.8829C92.4348 19.7027 92.4394 19.4153 92.6196 19.2409C92.7998 19.0664 93.4792 19.0408 93.4792 19.0408C93.4792 19.0408 93.4314 19.7189 93.2513 19.8934Z" fill="#E40B12"/>
<path d="M95.8851 21.1676C95.7206 21.3569 95.4338 21.377 95.2445 21.2125C95.0552 21.048 95.0351 20.7612 95.1996 20.5719C95.3641 20.3826 96.0388 20.2986 96.0388 20.2986C96.0388 20.2986 96.0496 20.9784 95.8851 21.1676Z" fill="#E40B12"/>
<path d="M94.1855 23.0909C94.021 23.2802 93.7342 23.3003 93.5449 23.1358C93.3556 22.9713 93.3355 22.6845 93.5 22.4952C93.6646 22.3059 94.3392 22.2218 94.3392 22.2218C94.3392 22.2218 94.35 22.9016 94.1855 23.0909Z" fill="#E40B12"/>
<path d="M90.6043 15.0752C90.3624 15.1412 90.1128 14.9985 90.0468 14.7565C89.9809 14.5146 90.1236 14.265 90.3655 14.199C90.6074 14.1331 91.2151 14.4381 91.2151 14.4381C91.2151 14.4381 90.8463 15.0092 90.6043 15.0752Z" fill="#E40B12"/>
<path d="M86.6065 16.165C86.3646 16.2309 86.115 16.0883 86.049 15.8463C85.9831 15.6044 86.1257 15.3548 86.3677 15.2888C86.6096 15.2229 87.2173 15.5279 87.2173 15.5279C87.2173 15.5279 86.8485 16.099 86.6065 16.165Z" fill="#E40B12"/>
<path d="M88.5361 15.639C88.2942 15.7049 88.0446 15.5623 87.9786 15.3203C87.9127 15.0784 88.0553 14.8288 88.2973 14.7628C88.5392 14.6969 89.1468 15.0019 89.1468 15.0019C89.1468 15.0019 88.7781 15.573 88.5361 15.639Z" fill="#E40B12"/>
<path d="M91.3353 11.9732C91.1091 12.025 90.8837 11.8836 90.8319 11.6574C90.7801 11.4311 90.9215 11.2058 91.1477 11.154C91.374 11.1022 91.9242 11.4073 91.9242 11.4073C91.9242 11.4073 91.5615 11.9214 91.3353 11.9732Z" fill="#E40B12"/>
<path d="M87.5972 12.829C87.371 12.8808 87.1456 12.7394 87.0938 12.5132C87.042 12.2869 87.1834 12.0616 87.4097 12.0098C87.6359 11.958 88.1861 12.2631 88.1861 12.2631C88.1861 12.2631 87.8235 12.7772 87.5972 12.829Z" fill="#E40B12"/>
<path d="M89.4015 12.4159C89.1752 12.4677 88.9498 12.3263 88.8981 12.1001C88.8463 11.8739 88.9877 11.6485 89.2139 11.5967C89.4401 11.5449 89.9904 11.85 89.9904 11.85C89.9904 11.85 89.6277 12.3642 89.4015 12.4159Z" fill="#E40B12"/>
<path d="M89.2462 10.1073C89.0146 10.0924 88.839 9.89249 88.8539 9.66089C88.8689 9.42929 89.0688 9.25368 89.3004 9.26866C89.532 9.28363 89.9722 9.73318 89.9722 9.73318C89.9722 9.73318 89.4778 10.1223 89.2462 10.1073Z" fill="#E40B12"/>
<path d="M85.4194 9.85997C85.1878 9.84499 85.0122 9.64511 85.0271 9.41351C85.0421 9.18191 85.242 9.00631 85.4736 9.02128C85.7052 9.03625 86.1454 9.4858 86.1454 9.4858C86.1454 9.4858 85.651 9.87494 85.4194 9.85997Z" fill="#E40B12"/>
<path d="M87.2664 9.97937C87.0348 9.96439 86.8592 9.76451 86.8742 9.53291C86.8892 9.30132 87.089 9.12571 87.3206 9.14068C87.5522 9.15565 87.9924 9.6052 87.9924 9.6052C87.9924 9.6052 87.498 9.99434 87.2664 9.97937Z" fill="#E40B12"/>
</svg>
