<svg width="128" height="58" viewBox="0 0 128 58" fill="none" xmlns="http://www.w3.org/2000/svg">
<path d="M49.5001 45.9999L50.4628 50.6489C50.4998 50.8279 50.6317 50.9724 50.8065 51.0258L54.0001 51.9999L50.8065 52.9741C50.6317 53.0274 50.4998 53.1719 50.4628 53.3509L49.5001 57.9999L48.5375 53.3509C48.5004 53.1719 48.3686 53.0274 48.1937 52.9741L45.0001 51.9999L48.1937 51.0258C48.3686 50.9724 48.5004 50.8279 48.5375 50.6489L49.5001 45.9999Z" fill="#E40B12"/>
<path d="M55.2328 52.9095C55.9202 52.8053 56.0419 52.6642 55.91 52.1243C55.8218 51.7625 55.8269 51.6363 55.9217 51.8437C56.0161 52.0515 56.2736 52.2212 56.4933 52.2212C56.7131 52.2212 56.9706 52.0515 57.065 51.8437C57.1597 51.6363 57.1618 51.7722 57.0698 52.1457C56.9277 52.7231 57.0296 52.8322 57.7473 52.8705L58.5917 52.9158L57.7668 53.0414C57.113 53.1414 56.9637 53.3042 57.0485 53.8269C57.1073 54.1893 57.0977 54.3165 57.0272 54.1087C56.9568 53.9012 56.7164 53.7312 56.4933 53.7312C56.2703 53.7312 56.0299 53.9012 55.9594 54.1087C55.889 54.3165 55.8818 54.1803 55.9433 53.8067C56.0356 53.2462 55.9097 53.1193 55.225 53.0819L54.3949 53.0366L55.2328 52.9095Z" fill="#E40B12"/>
<path d="M52.5794 44.9459C53.2668 44.8418 53.3885 44.7007 53.2566 44.1607C53.1685 43.7989 53.1736 43.6727 53.2683 43.8802C53.3627 44.088 53.6202 44.2577 53.8399 44.2577C54.0597 44.2577 54.3172 44.088 54.4116 43.8802C54.5063 43.6727 54.5084 43.8086 54.4164 44.1822C54.2743 44.7596 54.3762 44.8686 55.0939 44.907L55.9383 44.9523L55.1134 45.0779C54.4596 45.1778 54.3103 45.3406 54.3951 45.8634C54.4539 46.2258 54.4443 46.3529 54.3738 46.1451C54.3034 45.9377 54.063 45.7677 53.8399 45.7677C53.6169 45.7677 53.3765 45.9377 53.306 46.1451C53.2356 46.3529 53.2284 46.2167 53.2899 45.8431C53.3822 45.2826 53.2563 45.1558 52.5716 45.1184L51.7415 45.0731L52.5794 44.9459Z" fill="#E40B12"/>
<path fill-rule="evenodd" clip-rule="evenodd" d="M76.4322 33.1885C75.2399 33.5529 74.3439 34.1905 72.3754 36.0746C69.9865 38.3612 68.835 39.0074 65.9024 39.7077C63.4572 40.2914 62.1284 40.9042 61.4619 41.7557C61.0344 42.3016 61 42.6248 61 46.0907C61 49.4116 61.0505 49.9349 61.4456 50.7134C62.0226 51.8494 63.9255 53.3516 66.3316 54.5704C69.559 56.2053 72.0667 56.4264 74.5229 55.2928C75.508 54.838 76.3851 54.1088 78.271 52.1766C79.625 50.7891 81.0469 49.4932 81.4305 49.2971C81.8141 49.1008 83.2528 48.6338 84.6275 48.2592C87.2503 47.5448 88.3807 46.9555 88.7683 46.1009C88.9019 45.8062 89.0004 44.0131 89 41.8878C88.9991 37.5972 88.9228 37.3716 86.9685 35.8892C84.6312 34.116 81.3256 32.9696 78.639 33.0006C77.7291 33.011 76.736 33.0957 76.4322 33.1885ZM86.7196 36.7077C85.3777 35.6419 84.3159 35.0841 82.2805 34.3752C80.6394 33.8039 77.8217 33.5243 76.8732 33.8389C75.6546 34.2427 74.8223 34.8384 72.9694 36.6324C70.6028 38.9239 69.3645 39.6091 66.0014 40.4879C63.2599 41.2046 62.2073 41.7584 61.8643 42.6651C61.5552 43.4815 62.3828 44.7854 63.9721 45.9857C66.5523 47.9347 69.1273 48.9318 71.5797 48.9318C73.7131 48.9318 74.7727 48.3151 77.6599 45.3937C78.9777 44.0601 80.506 42.7241 81.0559 42.4245C81.6058 42.125 83.0338 41.6195 84.229 41.3012C86.7765 40.6224 87.5435 40.2613 88.0328 39.5108C88.5434 38.7279 88.117 37.8176 86.7196 36.7077Z" fill="#E40B12"/>
<path d="M68.3432 42.9206C68.3732 43.26 67.8998 43.5804 67.2859 43.6363C66.672 43.6921 66.15 43.4622 66.12 43.1228C66.09 42.7835 66.5634 42.463 67.1773 42.4072C67.7912 42.3514 68.3132 42.5812 68.3432 42.9206Z" fill="#E40B12"/>
<path d="M74.1174 45.5351C74.0905 45.9334 73.4461 46.2128 72.6781 46.1593C71.9101 46.1058 71.3094 45.7396 71.3364 45.3414C71.3633 44.9431 72.0077 44.6636 72.7757 44.7171C73.5437 44.7706 74.1444 45.1369 74.1174 45.5351Z" fill="#E40B12"/>
<path d="M75.833 38.5051C75.8501 38.2522 75.4687 38.0197 74.9811 37.9858C74.4935 37.9518 74.0844 38.1292 74.0673 38.3821C74.0501 38.6349 74.4315 38.8674 74.9191 38.9014C75.4067 38.9354 75.8158 38.7579 75.833 38.5051Z" fill="#E40B12"/>
<path d="M81.4305 39.7077C81.4099 39.3238 80.7307 39.0491 79.9133 39.0942C79.096 39.1393 78.4501 39.487 78.4706 39.8709C78.4912 40.2548 79.1705 40.5295 79.9878 40.4844C80.8051 40.4393 81.4511 40.0916 81.4305 39.7077Z" fill="#E40B12"/>
<path d="M86.6238 38.4186C86.6492 38.0945 86.1208 37.7876 85.4436 37.733C84.7664 37.6785 84.1969 37.897 84.1716 38.2212C84.1462 38.5453 84.6746 38.8522 85.3518 38.9068C86.029 38.9613 86.5985 38.7428 86.6238 38.4186Z" fill="#E40B12"/>
<path d="M80.1673 36.3446C80.1554 36.0917 79.678 35.9093 79.101 35.9372C78.524 35.9652 78.0659 36.1929 78.0778 36.4459C78.0897 36.6988 78.5671 36.8812 79.1441 36.8533C79.7211 36.8253 80.1792 36.5976 80.1673 36.3446Z" fill="#E40B12"/>
<path fill-rule="evenodd" clip-rule="evenodd" d="M52.9715 3.5014C56.6799 2.10164 60.0003 1.374 66.6064 0.51207C71.4129 -0.114763 84.5895 -0.119728 88.1432 0.504006C91.3145 1.06074 94.1152 1.74465 95.8128 2.37707C98.0703 3.21822 99.6194 3.82334 100.538 4.22282C101.05 4.4449 103.699 5.56023 106.426 6.701C111.009 8.6181 113.056 9.50083 115.878 10.7771C116.474 11.047 117.381 11.4477 117.892 11.6676C118.403 11.8875 119.728 12.4852 120.836 12.9963C121.944 13.5072 123.149 14.0109 123.514 14.1157C124.704 14.4578 124.938 15.7322 124.819 21.2267L124.709 26.3304L127.033 28.6566V31.57C127.033 33.1719 126.926 34.4169 126.796 34.336C126.487 34.1449 123.566 34.6911 123.26 34.9972C123.131 35.1266 123.107 35.5441 123.206 35.9249C123.517 37.1147 126.174 36.6439 126.712 35.304C126.957 34.693 126.997 34.7547 127.014 35.777C127.046 37.7059 126.071 39.2002 124.184 40.1136C121.652 41.3391 118.624 41.9014 117.298 41.3918C117.199 41.3539 117.115 41.2857 117.046 41.1857C117.147 40.5712 117.2 39.9402 117.2 39.2969C117.2 32.9456 112.051 27.7969 105.7 27.7969C99.3487 27.7969 94.2 32.9456 94.2 39.2969C94.2 40.1942 94.3028 41.0676 94.4972 41.9058C94.4963 41.9355 94.4958 41.9637 94.4958 41.9901V42.7367L92.8487 42.7587C92.839 41.1968 92.7872 39.6113 92.6222 38.0786C92.7851 37.6977 92.9392 37.277 93.061 36.8663C93.9068 34.0125 94.3372 32.5605 95.0517 31.5967C95.5888 30.8724 96.3244 30.2954 97.613 29.2848L97.7924 29.1441C99.9983 27.4135 101.028 26.6058 101.508 25.5487C101.929 24.6238 101.93 23.5079 101.931 21.4157L101.931 21.3675C101.933 17.6866 101.797 16.7673 101.251 16.7673C100.756 16.7673 100.834 17.2646 100.976 18.1759C101.041 18.5924 101.12 19.0958 101.164 19.6772C101.283 21.2776 101.283 23.3042 101.163 24.1804C100.956 25.6806 100.825 25.8686 98.9103 27.3961C95.1496 30.3969 94.0272 31.685 93.3027 33.8326C92.9364 34.9188 92.5 36.6988 92.5 37C91.442 29.5992 87.2982 23.9829 71.6271 28.9639C71.4432 29.0223 71.2604 29.081 71.0786 29.14C71.0429 25.8067 71.1014 22.9175 71.245 21.4432C71.4182 19.6651 71.8744 18.0802 71.8744 18.0802L71 18.1152C71 18.1152 70.9447 18.2884 70.9447 18.4666C70.5 21 70.4875 21.7165 70.4861 24.8284C70.4856 25.998 70.4849 27.4673 70.4835 29.3352C60.4779 32.6532 53.696 36.7529 49.917 40.4036C43.169 40.5321 39.3406 40.2214 39.0001 40.0391C38.095 39.5543 37.9296 38.5926 37.3312 35.1033C36.6705 31.2499 37.0001 20.179 37.0001 20.179C37.0001 20.179 38.9949 19.9988 40.9305 19.8493C46.3159 19.4328 59.4131 18.6626 64.4372 18.4666C66.9085 18.3702 69 18.25 69 18.25L71 18.1152L70.9447 10.3745V2.81005L68.6981 2.84571C66.4812 2.88076 61.7961 3.60591 58.9343 4.35712C55.0781 5.36886 50.6128 6.65245 46.0001 9.53906C45.2237 10.0249 44.05 10.842 44.05 10.842C43.588 11.1655 41.7461 12.3965 39.9565 13.5782C32.8084 18.2976 32.2234 18.7551 32.2147 19.6362C32.2104 20.0962 32.5066 20.179 34.1552 20.179H36.1006L35.9767 24.4307C35.7855 30.9785 36.9553 38.7961 38.3745 40.4561C38.7405 40.8839 39.2879 40.9941 49.372 40.9483C48.5545 41.7949 47.9022 42.6132 47.4122 43.3874L46.2285 43.4054C39.3668 43.5102 33.6147 43.5496 33.4459 43.4928C33.4368 43.4898 33.4277 43.4827 33.4187 43.4718C33.9232 42.1776 34.2 40.7696 34.2 39.2969C34.2 32.9456 29.0513 27.7969 22.7 27.7969C20.7167 27.7969 18.8506 28.299 17.222 29.1829C17.2063 29.191 17.1908 29.1991 17.1755 29.2072C17.0545 29.2712 16.929 29.3437 16.8003 29.4235C13.4457 31.4323 11.2 35.1024 11.2 39.2969C11.2 40.5261 11.3929 41.7102 11.75 42.8207H10.2484C7.95123 42.8207 3.42509 41.9439 2.60917 41.3409C1.93758 40.8447 1.6225 39.9584 1.39651 39.3227C1.3201 39.1078 1.25388 38.9215 1.1875 38.7886C1.07605 38.5655 1.00139 38.3377 0.932121 38.1264C0.838127 37.8396 0.754059 37.5831 0.601448 37.4097C0.463081 37.2524 0.385918 37.1176 0.31884 37.0004C0.259171 36.8961 0.207489 36.8058 0.127808 36.7261V34.7612C0.127808 34.7612 0.480865 34.4645 0.601448 34.162C0.601448 34.162 0.612 33.7986 0.500015 33C0.350342 31.9318 0.353539 30.0809 0.461693 29.4838C0.826424 27.4634 1.94231 24.3724 2.75729 23.1255C3.576 21.8722 5.7173 20.5435 6.97635 20.5075C7.32931 20.4976 8.23571 20.2956 8.99059 20.059C9.74515 19.8226 11.4783 19.3909 12.8418 19.1003C14.2053 18.8093 16.1575 18.3872 17.1801 18.1624C18.2028 17.9375 20.2247 17.5169 21.6734 17.2275C26.0198 16.3597 28.3842 15.6473 31.4347 14.2853C34.1366 13.0791 43.6478 8.27878 44.1399 7.87309C44.593 7.49935 51.7007 3.9809 52.9715 3.5014ZM94.9606 5.07514C92.7961 4.4266 90.084 3.78985 87.3685 3.29204C85.5315 2.95552 82.7887 2.80975 78.3044 2.80975L71.8744 2.81005V18.0802L73.8111 17.8959C74.8765 17.7948 93.5457 16.8882 93.5457 16.8882C97.3191 16.7685 100.463 16.5784 100.533 16.4655C100.663 16.2549 99.9832 14.0822 99.4858 13.1188C99.3327 12.8226 98.9714 11.952 98.6826 11.1844C96.8084 6.20382 96.3795 5.50006 94.9606 5.07514ZM109.293 11.1161C108.218 10.3026 97.9795 5.93986 97.7845 6.13495C97.5896 6.33004 98.7303 9.39444 100.53 13.5106C100.754 14.0223 101.108 14.8945 101.318 15.4491C101.742 16.5728 101.804 16.5914 103.601 16.129C108.683 14.8222 110.3 14.0044 110.3 12.7414C110.3 12.1307 110.005 11.6555 109.293 11.1161ZM98.3147 21.9153C98.4065 21.6762 98.3981 21.397 98.2962 21.295C98.0049 21.0031 91.6008 21.0878 91.1249 21.3899C90.097 22.0412 91.2259 22.3501 94.6358 22.3501C97.3631 22.3501 98.1852 22.2531 98.3147 21.9153ZM9.5341 25.7455C9.5341 25.7455 10.914 24.8206 12.8418 23.1671C12.891 23.1249 12.7967 23.2054 12.8418 23.1671C12.8418 23.1671 13.482 22.6228 13.451 22.5319C13.389 22.3501 8.74206 22.9779 8.74206 22.9779C6.97635 23.1671 5 23.5 3.76255 24.4136C1.53941 25.7455 2.45888 27.933 4.09475 27.933C5.73062 27.933 8.29365 26.9024 9.5341 25.7455ZM64.4372 23.2806C67.536 23.2806 68.1558 23.2031 68.1558 22.8154C68.1558 22.4277 67.536 22.3501 64.4372 22.3501C61.3384 22.3501 60.7186 22.4277 60.7186 22.8154C60.7186 23.2031 61.3384 23.2806 64.4372 23.2806Z" fill="#656777"/>
<path fill-rule="evenodd" clip-rule="evenodd" d="M105.7 49.8047C111.499 49.8047 116.2 45.1037 116.2 39.3047C116.2 33.5057 111.499 28.8047 105.7 28.8047C99.901 28.8047 95.2 33.5057 95.2 39.3047C95.2 45.1037 99.901 49.8047 105.7 49.8047ZM105.738 45.7329C109.253 45.7329 112.103 42.8831 112.103 39.3676C112.103 35.8521 109.253 33.0022 105.738 33.0022C102.222 33.0022 99.3722 35.8521 99.3722 39.3676C99.3722 42.8831 102.222 45.7329 105.738 45.7329Z" fill="#656777"/>
<path fill-rule="evenodd" clip-rule="evenodd" d="M102.063 35.5446C102.437 35.1788 102.865 34.876 103.38 34.6113C103.607 34.495 103.924 34.371 104.223 34.282C105.533 33.8918 106.914 34.0114 108.131 34.6203C109.079 35.0948 109.898 35.8823 110.383 36.788C110.51 37.0256 110.78 37.6669 110.838 37.8713C110.926 38.1819 110.996 38.5665 111.021 38.8784C111.072 39.5218 111.013 40.1568 110.844 40.7731C110.751 41.1118 110.537 41.6292 110.356 41.9519C109.863 42.8286 109.134 43.5326 108.196 44.0368C107.956 44.1662 107.51 44.3481 107.244 44.426C105.51 44.9323 103.655 44.5309 102.285 43.3528C101.786 42.9232 101.397 42.4396 101.068 41.8372C100.874 41.4826 100.668 40.9225 100.574 40.4956C100.18 38.7056 100.743 36.8346 102.063 35.5446ZM104.962 34.9949C104.837 34.9879 104.543 35.072 104.12 35.2349C103.751 35.3769 103.694 35.4042 103.441 35.563C103.184 35.7244 103.066 35.8151 103.041 35.8704C103.005 35.9535 103.026 36.1332 103.091 36.2793C103.132 36.3734 103.237 36.5343 103.315 36.6254C103.399 36.7218 104.055 37.3681 104.544 37.8358C104.597 37.887 104.744 38.0267 104.87 38.1464L105.098 38.364L105.464 38.2033L105.462 38.1149C105.46 38.0664 105.457 37.9246 105.455 37.7999C105.412 35.7046 105.404 35.5854 105.28 35.3027C105.199 35.1202 105.077 35.0015 104.962 34.9949ZM107.323 35.2051C106.991 35.0804 106.535 34.9672 106.357 34.9651C106.287 34.9643 106.276 34.9686 106.218 35.0194C106.082 35.1379 105.973 35.4145 105.957 35.6851C105.948 35.8217 105.949 36.3229 105.959 37.0424C105.969 37.8464 105.978 38.1601 105.989 38.1857C105.994 38.1964 106.077 38.2361 106.175 38.2739L106.352 38.3425L106.484 38.2046L106.719 37.9588C106.873 37.7977 107.082 37.5797 107.313 37.3397L107.632 37.0076C108.073 36.5474 108.173 36.4151 108.273 36.155C108.334 35.9996 108.35 35.8831 108.323 35.7921C108.305 35.7276 108.227 35.6638 108.013 35.5367C107.773 35.3945 107.578 35.3008 107.323 35.2051ZM102.983 37.085C102.758 36.8977 102.51 36.7761 102.34 36.7684C102.244 36.7641 102.148 36.7927 102.099 36.8397C102.058 36.8792 101.949 37.0492 101.853 37.2239C101.657 37.5811 101.522 37.9395 101.42 38.3753C101.361 38.6269 101.346 38.7552 101.368 38.8064C101.431 38.9487 101.655 39.0733 101.94 39.1237C102.143 39.1597 102.357 39.1625 103.293 39.1416L103.708 39.1324C103.821 39.1299 104.007 39.1256 104.122 39.1228C104.237 39.12 104.391 39.1168 104.465 39.1157L104.599 39.1137L104.669 38.9362C104.707 38.8385 104.735 38.7517 104.732 38.7432C104.728 38.7347 104.634 38.6407 104.523 38.5342C104.177 38.2012 104.04 38.0703 103.902 37.9392L103.608 37.6609C103.297 37.3656 103.072 37.1588 102.983 37.085ZM103.218 39.6629C102.709 39.6712 102.217 39.6972 102.048 39.7248C101.678 39.785 101.441 39.9204 101.399 40.0953C101.345 40.318 101.695 41.2602 102.018 41.7622C102.099 41.8891 102.174 41.9854 102.217 42.0203C102.366 42.1402 102.665 42.0626 102.967 41.8259C103.071 41.745 103.453 41.3633 103.997 40.7991C104.436 40.3433 104.565 40.2093 104.669 40.0987L104.762 40.0004L104.601 39.6344L104.487 39.6359C104.425 39.6368 104.307 39.6393 104.225 39.6415C104.037 39.6466 103.434 39.6594 103.218 39.6629ZM109.276 36.6678C109.228 36.6291 109.141 36.6143 109.042 36.628C108.936 36.6426 108.701 36.7312 108.646 36.7769C108.447 36.944 108.364 37.0186 108.201 37.1802C108.001 37.3783 107.803 37.5818 107.245 38.1633C106.893 38.5307 106.757 38.6797 106.751 38.7063C106.746 38.7243 106.767 38.7836 106.816 38.8959L106.888 39.0593L107.048 39.0578C107.372 39.0547 107.61 39.0507 107.726 39.0462C107.792 39.0437 107.964 39.0388 108.108 39.0353C108.554 39.0245 109.166 39.0011 109.315 38.9892C109.525 38.9724 109.657 38.9382 109.819 38.8584C110.009 38.7645 110.104 38.666 110.107 38.56C110.112 38.3814 109.923 37.7992 109.732 37.4066C109.57 37.0735 109.363 36.738 109.276 36.6678ZM105.508 40.5108C105.505 40.5026 105.422 40.4647 105.325 40.4268C105.228 40.3888 105.143 40.3603 105.136 40.3635C105.13 40.3666 105.087 40.4085 105.041 40.4565L104.737 40.7744C104.616 40.9012 104.389 41.1394 104.233 41.3037L103.861 41.6951C103.45 42.1278 103.378 42.2161 103.276 42.409C103.176 42.598 103.141 42.7812 103.179 42.9143C103.201 42.9926 103.263 43.0437 103.481 43.166C103.867 43.3826 104.227 43.5322 104.611 43.6353C104.967 43.7308 105.133 43.7525 105.218 43.7149C105.375 43.6459 105.517 43.3247 105.537 42.9941C105.547 42.8431 105.547 42.7945 105.54 42.0653C105.531 41.0803 105.52 40.5372 105.508 40.5108ZM108.356 39.5516C107.924 39.5589 107.611 39.566 107.294 39.5758C107.131 39.5808 106.972 39.5866 106.942 39.5887L106.887 39.5925L106.751 39.9508L106.833 40.027C106.878 40.0689 106.995 40.1805 107.093 40.2749C107.191 40.3693 107.337 40.5094 107.417 40.5862L107.711 40.8679C108.082 41.2229 108.172 41.3082 108.318 41.4445C108.584 41.6914 108.745 41.8004 108.957 41.8774C109.095 41.9274 109.197 41.9415 109.29 41.9233C109.338 41.914 109.351 41.904 109.408 41.8382C109.61 41.6024 109.901 40.9844 110.026 40.5291C110.081 40.3266 110.137 40.0461 110.138 39.9678C110.14 39.7763 109.854 39.6032 109.459 39.5556C109.35 39.5426 109.032 39.5376 108.739 39.5444C108.677 39.5458 108.505 39.5491 108.356 39.5516ZM106.653 40.5756C106.416 40.3483 106.413 40.3463 106.381 40.3533C106.28 40.3747 106.054 40.4829 106.041 40.5155C106.035 40.5325 106.036 40.6717 106.047 41.1492C106.05 41.2854 106.054 41.4638 106.056 41.5456C106.082 42.8877 106.104 43.139 106.213 43.3849C106.279 43.533 106.371 43.6437 106.462 43.6827C106.536 43.7145 106.662 43.699 106.941 43.6242C107.118 43.5769 107.729 43.3208 107.923 43.213C108.09 43.1201 108.299 42.9852 108.38 42.918C108.45 42.8598 108.482 42.7797 108.478 42.6727C108.475 42.6019 108.465 42.5694 108.404 42.4292C108.329 42.2582 108.284 42.1884 108.166 42.0548C108.091 41.9703 107.598 41.4818 107.307 41.2029C106.965 40.8754 106.791 40.7085 106.653 40.5756Z" fill="#656777"/>
<path fill-rule="evenodd" clip-rule="evenodd" d="M22.5 49.8047C28.299 49.8047 33 45.1037 33 39.3047C33 33.5057 28.299 28.8047 22.5 28.8047C16.701 28.8047 12 33.5057 12 39.3047C12 45.1037 16.701 49.8047 22.5 49.8047ZM22.5376 45.7329C26.0531 45.7329 28.9029 42.8831 28.9029 39.3676C28.9029 35.8521 26.0531 33.0022 22.5376 33.0022C19.0221 33.0022 16.1722 35.8521 16.1722 39.3676C16.1722 42.8831 19.0221 45.7329 22.5376 45.7329Z" fill="#656777"/>
<path fill-rule="evenodd" clip-rule="evenodd" d="M18.8629 35.5446C19.2371 35.1788 19.6646 34.876 20.1804 34.6113C20.4069 34.495 20.7243 34.371 21.023 34.282C22.3327 33.8918 23.7136 34.0114 24.9308 34.6203C25.8794 35.0948 26.6976 35.8823 27.183 36.788C27.3103 37.0256 27.5796 37.6669 27.6378 37.8713C27.7263 38.1819 27.7963 38.5665 27.821 38.8784C27.872 39.5218 27.8127 40.1568 27.6438 40.7731C27.5511 41.1118 27.3367 41.6292 27.1556 41.9519C26.6634 42.8286 25.9342 43.5326 24.9962 44.0368C24.7555 44.1662 24.3103 44.3481 24.0436 44.426C22.3098 44.9323 20.4551 44.5309 19.0854 43.3528C18.5859 42.9232 18.1974 42.4396 17.8678 41.8372C17.6739 41.4826 17.4676 40.9225 17.3738 40.4956C16.9803 38.7056 17.543 36.8346 18.8629 35.5446ZM21.7615 34.9949C21.6375 34.9879 21.3426 35.072 20.9195 35.2349C20.5509 35.3769 20.4944 35.4042 20.241 35.563C19.9836 35.7244 19.8656 35.8151 19.8412 35.8704C19.8046 35.9535 19.8263 36.1332 19.8906 36.2793C19.932 36.3734 20.0366 36.5343 20.1155 36.6254C20.199 36.7218 20.8549 37.3681 21.3438 37.8358C21.3974 37.887 21.544 38.0267 21.6697 38.1464L21.8983 38.364L22.2641 38.2033L22.2618 38.1149C22.2605 38.0664 22.2574 37.9246 22.2548 37.7999C22.2123 35.7046 22.2039 35.5854 22.0797 35.3027C21.9995 35.1202 21.8767 35.0015 21.7615 34.9949ZM24.1233 35.2051C23.791 35.0804 23.3352 34.9672 23.1568 34.9651C23.0872 34.9643 23.0762 34.9686 23.0179 35.0194C22.8819 35.1379 22.7734 35.4145 22.7568 35.6851C22.7484 35.8217 22.7491 36.3229 22.7586 37.0424C22.7693 37.8464 22.7776 38.1601 22.7888 38.1857C22.7935 38.1964 22.8773 38.2361 22.9748 38.2739L23.1523 38.3425L23.2842 38.2046L23.519 37.9588C23.6728 37.7977 23.8819 37.5797 24.1125 37.3397L24.4316 37.0076C24.8731 36.5474 24.9727 36.4151 25.0735 36.155C25.1336 35.9996 25.1497 35.8831 25.1234 35.7921C25.1048 35.7276 25.0272 35.6638 24.813 35.5367C24.5732 35.3945 24.3783 35.3008 24.1233 35.2051ZM19.7834 37.085C19.5577 36.8977 19.3104 36.7761 19.1397 36.7684C19.0444 36.7641 18.9481 36.7927 18.8992 36.8397C18.8581 36.8792 18.7492 37.0492 18.6531 37.2239C18.4568 37.5811 18.322 37.9395 18.22 38.3753C18.1611 38.6269 18.1457 38.7552 18.1682 38.8064C18.2308 38.9487 18.4554 39.0733 18.7401 39.1237C18.9433 39.1597 19.157 39.1625 20.0934 39.1416L20.5078 39.1324C20.6208 39.1299 20.8073 39.1256 20.9221 39.1228C21.037 39.12 21.1913 39.1168 21.265 39.1157L21.3992 39.1137L21.4687 38.9362C21.507 38.8385 21.5352 38.7517 21.5315 38.7432C21.5278 38.7347 21.4341 38.6407 21.3234 38.5342C20.977 38.2012 20.8403 38.0703 20.702 37.9392L20.4083 37.6609C20.0966 37.3656 19.8723 37.1588 19.7834 37.085ZM20.0184 39.6629C19.509 39.6712 19.0171 39.6972 18.848 39.7248C18.4783 39.785 18.2412 39.9204 18.1988 40.0953C18.1447 40.318 18.4946 41.2602 18.8177 41.7622C18.8994 41.8891 18.9738 41.9854 19.017 42.0203C19.1655 42.1402 19.465 42.0626 19.7673 41.8259C19.8706 41.745 20.2533 41.3633 20.7968 40.7991C21.236 40.3433 21.3646 40.2093 21.4691 40.0987L21.5618 40.0004L21.4009 39.6344L21.2872 39.6359C21.2246 39.6368 21.1066 39.6393 21.0249 39.6415C20.8373 39.6466 20.2335 39.6594 20.0184 39.6629ZM26.0764 36.6678C26.0285 36.6291 25.9411 36.6143 25.8417 36.628C25.736 36.6426 25.5007 36.7312 25.4462 36.7769C25.2467 36.944 25.1643 37.0186 25.001 37.1802C24.8008 37.3783 24.603 37.5818 24.0452 38.1633C23.6928 38.5307 23.5571 38.6797 23.5506 38.7063C23.5462 38.7243 23.5667 38.7836 23.6161 38.8959L23.6879 39.0593L23.8482 39.0578C24.1724 39.0547 24.4097 39.0507 24.5263 39.0462C24.5921 39.0437 24.7638 39.0388 24.9078 39.0353C25.3536 39.0245 25.9659 39.0011 26.1146 38.9892C26.3254 38.9724 26.4572 38.9382 26.6186 38.8584C26.8088 38.7645 26.904 38.666 26.9071 38.56C26.9124 38.3814 26.7231 37.7992 26.5322 37.4066C26.3702 37.0735 26.1632 36.738 26.0764 36.6678ZM22.3084 40.5108C22.3048 40.5026 22.2223 40.4647 22.1251 40.4268C22.0278 40.3888 21.9429 40.3603 21.9363 40.3635C21.9297 40.3666 21.8868 40.4085 21.841 40.4565L21.5372 40.7744C21.4158 40.9012 21.1889 41.1394 21.0329 41.3037L20.6612 41.6951C20.2502 42.1278 20.1778 42.2161 20.076 42.409C19.9763 42.598 19.9411 42.7812 19.9791 42.9143C20.0014 42.9926 20.0626 43.0437 20.2806 43.166C20.6667 43.3826 21.0271 43.5322 21.4111 43.6353C21.7667 43.7308 21.9326 43.7525 22.0183 43.7149C22.1753 43.6459 22.3175 43.3247 22.3374 42.9941C22.3465 42.8431 22.3467 42.7945 22.34 42.0653C22.331 41.0803 22.32 40.5372 22.3084 40.5108ZM25.1562 39.5516C24.7236 39.5589 24.4111 39.566 24.0938 39.5758C23.9307 39.5808 23.7725 39.5866 23.7421 39.5887L23.6869 39.5925L23.5515 39.9508L23.6329 40.027C23.6777 40.0689 23.7947 40.1805 23.8929 40.2749C23.9911 40.3693 24.1371 40.5094 24.2173 40.5862L24.5114 40.8679C24.882 41.2229 24.9717 41.3082 25.1183 41.4445C25.384 41.6914 25.5447 41.8004 25.7569 41.8774C25.8948 41.9274 25.9971 41.9415 26.0902 41.9233C26.1376 41.914 26.1515 41.904 26.2078 41.8382C26.4096 41.6024 26.7013 40.9844 26.8257 40.5291C26.8811 40.3266 26.9371 40.0461 26.9378 39.9678C26.9396 39.7763 26.6545 39.6032 26.2588 39.5556C26.1499 39.5426 25.8315 39.5376 25.5394 39.5444C25.4771 39.5458 25.3046 39.5491 25.1562 39.5516ZM23.4526 40.5756C23.2158 40.3483 23.2134 40.3463 23.1806 40.3533C23.0802 40.3747 22.8539 40.4829 22.8415 40.5155C22.835 40.5325 22.8362 40.6717 22.847 41.1492C22.8501 41.2854 22.854 41.4638 22.8556 41.5456C22.8823 42.8877 22.9038 43.139 23.0129 43.3849C23.0785 43.533 23.1711 43.6437 23.2619 43.6827C23.3357 43.7145 23.4623 43.699 23.7412 43.6242C23.9177 43.5769 24.5293 43.3208 24.7231 43.213C24.8903 43.1201 25.0992 42.9852 25.1799 42.918C25.2497 42.8598 25.2816 42.7797 25.2776 42.6727C25.2749 42.6019 25.2651 42.5694 25.2036 42.4292C25.1287 42.2582 25.0844 42.1884 24.9658 42.0548C24.8908 41.9703 24.3984 41.4818 24.1071 41.2029C23.7652 40.8754 23.591 40.7085 23.4526 40.5756Z" fill="#656777"/>
</svg>
