<svg width="101" height="69" viewBox="0 0 101 69" fill="none" xmlns="http://www.w3.org/2000/svg">
<path fill-rule="evenodd" clip-rule="evenodd" d="M18.0221 0.0631366C16.3453 0.0289157 14.9675 1.37884 14.9675 3.05601V9.44746L24.0091 9.63198C25.6382 9.66523 26.9416 10.9954 26.9416 12.6249V18.2447L31.0685 21.9131C31.7076 22.4812 32.0733 23.2955 32.0733 24.1505V50.1777H45.0451C46.6984 50.1777 48.0386 48.8374 48.0386 47.1841V15.0297C48.0386 14.1746 47.673 13.3604 47.0339 12.7923L42.9069 9.12386V3.50403C42.9069 1.87456 41.6036 0.544392 39.9745 0.511144L18.0221 0.0631366ZM25.9437 12.6249V18.6928L30.4056 22.6589C30.8317 23.0376 31.0754 23.5805 31.0754 24.1505V56.305C31.0754 57.4072 30.1819 58.3007 29.0798 58.3007H1.99567C0.893492 58.3007 0 57.4072 0 56.305V12.1769C0 11.0587 0.918505 10.1588 2.03639 10.1816L23.9888 10.6296C25.0748 10.6518 25.9437 11.5386 25.9437 12.6249Z" fill="#656777"/>
<path d="M60.4511 18.4957C60.8561 18.4957 60.8388 17.6434 60.4317 17.5343C60.1917 17.47 60.2087 17.4468 60.5074 17.4306C61.1975 17.3929 61.676 18.2081 61.31 18.7982C61.2376 18.9148 60.9723 19.0632 60.7201 19.128C60.1739 19.2687 59.6785 18.8507 59.687 18.2566C59.6921 17.8902 59.7092 17.8846 59.9271 18.1789C60.0561 18.3532 60.2918 18.4957 60.4511 18.4957Z" fill="#E40B12"/>
<path d="M79.3308 20.1754C79.7356 20.113 79.8073 20.0284 79.7296 19.7048C79.6777 19.4879 79.6807 19.4122 79.7365 19.5366C79.7921 19.6611 79.9438 19.7629 80.0732 19.7629C80.2026 19.7629 80.3543 19.6611 80.4099 19.5366C80.4657 19.4122 80.4669 19.4937 80.4127 19.7176C80.329 20.0637 80.3891 20.1291 80.8117 20.1521L81.3091 20.1792L80.8232 20.2545C80.4381 20.3145 80.3502 20.412 80.4002 20.7254C80.4348 20.9426 80.4291 21.0188 80.3876 20.8943C80.3462 20.7699 80.2046 20.668 80.0732 20.668C79.9418 20.668 79.8003 20.7699 79.7588 20.8943C79.7173 21.0188 79.713 20.9372 79.7492 20.7133C79.8036 20.3773 79.7295 20.3012 79.3262 20.2788L78.8373 20.2516L79.3308 20.1754Z" fill="#E40B12"/>
<path d="M78.3839 24.6667L79.052 24.03C80.1233 23.0088 80.338 23.1276 80.338 24.7411C80.338 26.3674 80.153 26.4624 79.0893 25.3828L78.3839 24.6667Z" fill="#E40B12"/>
<path d="M80.6911 26.0987V23.3834H89.0967L90.999 25.2597C92.6643 26.9023 92.8941 27.2012 92.8431 27.6583C92.7857 28.1745 92.7679 28.1821 91.2843 28.3299C90.4589 28.4119 89.5453 28.59 89.254 28.7256C88.9627 28.861 88.049 28.9877 87.2236 29.0071C85.3536 29.0507 85.3746 29.0549 85.7137 28.7071C85.9704 28.4439 85.9602 28.3932 85.5938 28.1161C85.2095 27.8252 84.8255 27.6032 82.9159 26.5678C82.418 26.2979 81.7625 26.0987 81.371 26.0987H80.6911Z" fill="#E40B12"/>
<path d="M64.9776 25.9941C64.8974 25.1875 64.9364 25.0602 65.3891 24.6505C66.3702 23.7624 68.1627 24.3832 68.1497 25.6064C68.1384 26.659 67.842 26.9331 66.6806 26.9655L65.6465 26.9943L65.763 26.3576C65.8967 25.6277 65.7429 24.9539 65.4809 25.1199C65.3727 25.1886 65.3508 25.5877 65.4248 26.14C65.5219 26.8634 65.4979 27.0308 65.3063 26.9664C65.1651 26.9186 65.0298 26.5185 64.9776 25.9941Z" fill="#E40B12"/>
<path d="M81.569 28.0317C81.6689 27.2528 81.7505 26.5754 81.7505 26.526C81.7505 26.3853 82.5163 26.6606 82.8098 26.9068C82.9554 27.029 83.4321 27.3121 83.8691 27.5361C85.8002 28.525 85.7978 28.4991 83.9549 28.4553L82.8931 28.4302L82.6449 29.2922C82.5084 29.7663 82.1717 30.4962 81.8966 30.914C81.3698 31.7145 80.2672 32.7967 79.9787 32.7967C79.7289 32.7967 79.7709 32.4757 80.0428 32.3079C80.6288 31.9462 81.3133 30.0282 81.569 28.0317Z" fill="#E40B12"/>
<path d="M64.0951 30.4433V27.1849L68.9504 27.184L68.837 30.4433H64.0951Z" fill="#E40B12"/>
<path d="M84.3988 31.1071C84.3988 30.2773 84.4517 29.5442 84.5165 29.4779C84.5811 29.4115 85.6934 29.3572 86.9883 29.3572H89.3422V32.6156H84.3988V31.1071Z" fill="#E40B12"/>
<path fill-rule="evenodd" clip-rule="evenodd" d="M84.8747 32.912C84.8071 32.9813 84.7519 33.2764 84.7519 33.5678C84.7519 33.9465 84.6505 34.1248 84.3968 34.1929C83.8626 34.3361 83.7909 35.0071 84.207 35.9715C84.4095 36.441 84.5753 36.9383 84.5753 37.0766C84.5753 37.2147 84.2866 37.7736 83.9339 38.3183C83.4071 39.1318 83.3101 39.4207 83.3915 39.9345C83.4828 40.5116 84.1334 41.6766 84.4429 41.8176C84.6828 41.927 84.5808 43.066 84.3105 43.2961C84.1648 43.4201 84.0456 43.6337 84.0456 43.7707C84.0456 43.9079 83.9759 44.0202 83.8905 44.0202C83.8052 44.0202 83.6366 44.2646 83.516 44.5632C83.3954 44.8619 83.236 45.1063 83.162 45.1063C83.088 45.1063 82.9773 45.2488 82.9159 45.4231C82.7874 45.7873 82.4411 46.4043 82.1645 46.7614C81.7625 47.2806 80.9839 48.8595 80.668 49.7961C80.3652 50.6942 80.338 51.4297 80.338 58.7288C80.338 66.4998 80.3465 66.6951 80.706 67.2127C80.9085 67.5041 81.4049 67.9241 81.8094 68.1458C82.5114 68.5305 82.7346 68.5486 86.6939 68.5418L90.8429 68.5347L91.873 68.0155C92.5283 67.6853 92.9759 67.3258 93.103 67.0271C93.3784 66.3801 93.4782 55.6631 93.2485 51.4172C93.1494 49.589 92.9529 47.6452 92.8117 47.0976C92.6706 46.55 92.4206 45.4503 92.2563 44.6538C92.0919 43.8572 91.8516 42.7168 91.7224 42.1194C91.5931 41.522 91.3549 40.3816 91.1931 39.5851C91.0313 38.7886 90.7921 37.6481 90.6616 37.0507C90.5312 36.4533 90.374 35.7244 90.3124 35.4307C90.251 35.1369 90.0131 34.7186 89.7842 34.501C89.5447 34.2736 89.3435 33.8462 89.3108 33.4961L89.254 32.8872L87.1258 32.8366C85.9552 32.8088 84.9424 32.8428 84.8747 32.912ZM83.2999 67.778C83.4662 67.7212 83.516 65.7496 83.516 59.2112V50.7181H82.7215C82.2845 50.7181 81.9261 50.7793 81.9251 50.8538C81.8968 52.8645 81.9341 67.2498 81.9676 67.263C81.9937 67.2733 82.2558 67.4102 82.5495 67.5669C82.8433 67.7237 83.1809 67.8187 83.2999 67.778ZM86.3408 43.6655C86.3408 43.867 84.9515 46.584 84.7709 46.7355C84.7116 46.7853 84.5511 47.0487 84.4143 47.3208C84.2776 47.5929 84.0195 47.9765 83.8408 48.1731C83.6622 48.3698 83.516 48.5697 83.516 48.6175C83.516 48.6654 83.2776 48.9721 82.9863 49.299C82.4145 49.9411 82.3158 49.879 82.697 49.1167C82.829 48.8524 83.1782 48.1068 83.4727 47.4596C85.2681 43.5153 85.2909 43.4771 85.8322 43.4771C86.112 43.4771 86.3408 43.5618 86.3408 43.6655ZM88.8219 36.5982C88.6189 35.8514 88.355 34.8748 88.2354 34.428C88.0896 33.8828 87.9086 33.5941 87.6851 33.5501C87.5894 33.5313 87.5162 33.515 87.4729 33.5443C87.3355 33.6376 87.5011 34.1927 88.2079 36.5982C88.3687 37.1458 88.6062 38.0418 88.7356 38.5894C88.8648 39.137 89.0483 39.9109 89.1431 40.3092C90.7044 46.8646 90.8101 51.5926 89.5156 56.9634C88.9104 59.4748 86.9168 63.9736 85.3184 66.4348C84.531 67.6471 84.4372 67.9154 84.8009 67.9154C85.0326 67.9154 85.4699 67.4697 85.6969 67.0023C85.8401 66.7076 86.0515 66.3503 86.7091 65.2906C87.1853 64.5236 88.5739 61.6183 89.0453 60.4029C89.4568 59.3417 90.3207 56.4046 90.5894 55.1532C90.9623 53.4161 91.0144 47.1667 90.6724 45.1968C90.178 42.3488 89.8551 40.6875 89.6858 40.1187C89.5952 39.8148 89.4469 39.2038 89.356 38.761C89.2653 38.3181 89.0248 37.3449 88.8219 36.5982Z" fill="#E40B12"/>
<path fill-rule="evenodd" clip-rule="evenodd" d="M64.2706 31.5747C64.2698 32.0427 64.1575 32.2284 63.7217 32.4828C63.2186 32.7764 63.1839 32.8564 63.2961 33.4691C63.3631 33.8357 63.5307 34.3006 63.6684 34.5021C63.9966 34.9825 63.9883 35.9514 63.6538 36.2361C63.5081 36.3601 63.3889 36.5737 63.3889 36.7108C63.3889 36.848 63.3222 36.9602 63.2408 36.9602C63.0293 36.9602 62.6827 37.8034 62.6827 38.3179C62.6827 38.8324 63.0293 39.6756 63.2408 39.6756C63.3222 39.6756 63.3889 39.7628 63.3889 39.8695C63.3889 39.9763 63.5081 40.1857 63.6538 40.335C63.7994 40.4844 63.9186 40.9167 63.9186 41.2956C63.9186 41.6871 63.8044 42.0818 63.6538 42.2099C63.5081 42.3339 63.3889 42.5406 63.3889 42.6695C63.3889 42.7984 63.3293 42.9309 63.2565 42.9643C63.0632 43.0522 62.3296 44.1568 62.3296 44.3598C62.3296 44.4552 62.2699 44.5602 62.1972 44.5935C62.0485 44.6612 61.4002 45.5947 61.2122 46.0114C61.1449 46.1608 60.9355 46.5274 60.747 46.8261C60.5584 47.1247 60.2217 47.7357 59.9986 48.1837C59.5936 48.9974 59.593 49.0087 59.5427 58.1692L59.4926 67.3401L59.9061 67.7977C60.1336 68.0494 60.7352 68.4232 61.2429 68.6285C62.0808 68.9672 62.5422 69.0016 66.2392 69.0016C71.1908 69.0016 72.5301 68.7691 73.1085 67.8097C73.4516 67.2406 73.4625 66.9207 73.4572 57.5907C73.4528 49.7376 73.405 47.8045 73.1982 47.1211C73.0586 46.6601 72.8204 45.6923 72.6687 44.9706C72.5173 44.2488 72.2655 43.0674 72.1092 42.3457C71.64 40.1754 71.376 38.9361 71.0587 37.4128C70.8928 36.6163 70.6484 35.5448 70.5158 35.0316C70.3831 34.5184 70.2745 33.9342 70.2745 33.7331C70.2745 33.532 70.0362 33.1232 69.7448 32.8245C69.3538 32.4236 69.2152 32.112 69.2152 31.6339V30.9864H64.2717L64.2706 31.5747ZM66.0651 42.6625C65.9341 43.4485 64.6479 45.2797 63.0876 46.9019C62.1855 47.8396 61.4057 48.5641 61.3547 48.5118C61.2226 48.3762 61.4537 47.8217 61.6423 47.8217C61.729 47.8217 61.7999 47.7386 61.7999 47.637C61.7999 47.5355 62.0168 47.1079 62.2819 46.6867C62.8965 45.71 63.1501 45.2859 63.3889 44.8348C63.6282 44.3828 63.8803 43.9611 64.5049 42.9684C64.9364 42.2825 65.0639 42.1951 65.5605 42.2443C66.0146 42.2894 66.1137 42.3714 66.0651 42.6625ZM71.01 66.0628C71.1735 65.7987 71.01 49.994 71.01 49.994C71.01 49.994 71.0501 50.1687 65.7535 49.994H60.5641V57.1622L60.5577 57.8398L60.6524 66.1957L65.7602 66.2438C69.7291 66.2811 70.8999 66.2407 71.01 66.0628Z" fill="#E40B12"/>
<path d="M71.01 49.994C71.01 49.994 71.1735 65.7987 71.01 66.0628C70.8999 66.2407 69.7291 66.2811 65.7602 66.2438L60.6524 66.1957L60.5577 57.8398L60.5641 57.1622V49.994H65.7535C71.0501 50.1687 71.01 49.994 71.01 49.994Z" fill="#E40B12"/>
<path d="M73.8399 7.98438L74.4602 10.9804C74.4972 11.159 74.6287 11.3032 74.8032 11.3565L76.8334 11.9757L74.8032 12.595C74.6287 12.6482 74.4972 12.7924 74.4602 12.971L73.8399 15.9671L73.2195 12.971C73.1825 12.7924 73.051 12.6482 72.8765 12.595L70.8463 11.9757L72.8765 11.3565C73.051 11.3032 73.1825 11.159 73.2195 10.9804L73.8399 7.98438Z" fill="#E40B12"/>
<path d="M57.5003 28.9389L58.0356 31.5242C58.0726 31.7029 58.2041 31.8471 58.3786 31.9003L60.1196 32.4313L58.3786 32.9624C58.2041 33.0156 58.0726 33.1598 58.0356 33.3384L57.5003 35.9238L56.965 33.3384C56.928 33.1598 56.7965 33.0156 56.622 32.9624L54.881 32.4313L56.622 31.9003C56.7965 31.8471 56.928 31.7029 56.965 31.5242L57.5003 28.9389Z" fill="#E40B12"/>
<path d="M97.4137 21.9541L97.9491 24.5394C97.986 24.718 98.1176 24.8622 98.292 24.9154L100.033 25.4465L98.292 25.9775C98.1176 26.0308 97.986 26.175 97.9491 26.3536L97.4137 28.9389L96.8784 26.3536C96.8414 26.175 96.7099 26.0308 96.5354 25.9775L94.7944 25.4465L96.5354 24.9154C96.7099 24.8622 96.8414 24.718 96.8784 24.5394L97.4137 21.9541Z" fill="#E40B12"/>
<path fill-rule="evenodd" clip-rule="evenodd" d="M68.8515 20.0033C69.1069 19.8198 69.1196 19.4003 68.8797 19.0665C68.8527 19.029 68.8237 18.9942 68.7932 18.9622C68.8122 18.9611 68.8314 18.9606 68.8507 18.9606C69.4018 18.9606 69.8485 19.4073 69.8485 19.9584C69.8485 20.5095 69.4018 20.9562 68.8507 20.9562C68.2996 20.9562 67.8528 20.5095 67.8528 19.9584C67.8528 19.8505 67.87 19.7466 67.9016 19.6493C67.9177 19.6771 67.9353 19.7045 67.9546 19.7313C68.1945 20.0651 68.596 20.1869 68.8515 20.0033Z" fill="#E40B12"/>
<path fill-rule="evenodd" clip-rule="evenodd" d="M80.8255 14.0163C81.081 13.8327 81.0936 13.4133 80.8537 13.0795C80.8268 13.042 80.7978 13.0072 80.7672 12.9752C80.7862 12.9741 80.8054 12.9736 80.8247 12.9736C81.3758 12.9736 81.8225 13.4203 81.8225 13.9714C81.8225 14.5225 81.3758 14.9692 80.8247 14.9692C80.2736 14.9692 79.8269 14.5225 79.8269 13.9714C79.8269 13.8635 79.844 13.7596 79.8757 13.6623C79.8917 13.6901 79.9093 13.7175 79.9286 13.7443C80.1685 14.0781 80.5701 14.1999 80.8255 14.0163Z" fill="#E40B12"/>
<path fill-rule="evenodd" clip-rule="evenodd" d="M73.591 24.7299C73.7826 24.5922 73.792 24.2776 73.6121 24.0272C73.5924 23.9999 73.5713 23.9744 73.549 23.9509C73.5627 23.9501 73.5765 23.9497 73.5904 23.9497C74.0037 23.9497 74.3388 24.2848 74.3388 24.6981C74.3388 25.1114 74.0037 25.4465 73.5904 25.4465C73.1771 25.4465 72.842 25.1114 72.842 24.6981C72.842 24.6168 72.855 24.5384 72.879 24.4651C72.8909 24.4857 72.904 24.506 72.9183 24.5258C73.0982 24.7762 73.3994 24.8675 73.591 24.7299Z" fill="#E40B12"/>
</svg>
