<svg width="150" height="70" viewBox="0 0 150 70" fill="none" xmlns="http://www.w3.org/2000/svg">
<path d="M77.3751 25.7842C77.1704 25.8934 76.9158 25.8159 76.8066 25.6111C76.6974 25.4064 76.7749 25.1518 76.9797 25.0426C77.1845 24.9334 77.7954 25.0839 77.7954 25.0839C77.7954 25.0839 77.5799 25.675 77.3751 25.7842Z" fill="#E40B12"/>
<path d="M75.6246 26.7177C75.4198 26.8269 75.1653 26.7494 75.0561 26.5446C74.9469 26.3399 75.0244 26.0853 75.2292 25.9761C75.4339 25.8669 76.0449 26.0174 76.0449 26.0174C76.0449 26.0174 75.8294 26.6085 75.6246 26.7177Z" fill="#E40B12"/>
<path d="M77.3336 33.4115C77.1457 33.5776 76.8588 33.5599 76.6927 33.372C76.5266 33.1842 76.5442 32.8972 76.7321 32.7311C76.92 32.565 77.5999 32.5701 77.5999 32.5701C77.5999 32.5701 77.5215 33.2454 77.3336 33.4115Z" fill="#E40B12"/>
<path d="M78.832 32.0868C78.6442 32.2529 78.3572 32.2353 78.1911 32.0474C78.025 31.8595 78.0427 31.5725 78.2305 31.4064C78.4184 31.2403 79.0983 31.2454 79.0983 31.2454C79.0983 31.2454 79.0199 31.9207 78.832 32.0868Z" fill="#E40B12"/>
<path d="M80.3305 30.7622C80.1426 30.9283 79.8556 30.9106 79.6895 30.7227C79.5234 30.5348 79.5411 30.2479 79.729 30.0818C79.9168 29.9157 80.5967 29.9207 80.5967 29.9207C80.5967 29.9207 80.5183 30.5961 80.3305 30.7622Z" fill="#E40B12"/>
<path d="M75.7689 34.8283C75.581 34.9944 75.294 34.9768 75.1279 34.7889C74.9618 34.601 74.9795 34.314 75.1674 34.1479C75.3553 33.9818 76.0351 33.9869 76.0351 33.9869C76.0351 33.9869 75.9568 34.6622 75.7689 34.8283Z" fill="#E40B12"/>
<path d="M71.166 38.8975C70.9781 39.0636 70.6911 39.0459 70.525 38.858C70.3589 38.6702 70.3766 38.3832 70.5645 38.2171C70.7524 38.051 71.4322 38.056 71.4322 38.056C71.4322 38.056 71.3539 38.7314 71.166 38.8975Z" fill="#E40B12"/>
<path d="M72.6644 37.5728C72.4765 37.7389 72.1895 37.7213 72.0234 37.5334C71.8574 37.3455 71.875 37.0585 72.0629 36.8924C72.2508 36.7263 72.9306 36.7314 72.9306 36.7314C72.9306 36.7314 72.8523 37.4067 72.6644 37.5728Z" fill="#E40B12"/>
<path d="M74.1628 36.2482C73.9749 36.4143 73.688 36.3966 73.5219 36.2087C73.3558 36.0208 73.3734 35.7339 73.5613 35.5678C73.7492 35.4017 74.4291 35.4067 74.4291 35.4067C74.4291 35.4067 74.3507 36.0821 74.1628 36.2482Z" fill="#E40B12"/>
<path d="M84.9743 35.2899C84.8527 35.5093 84.5763 35.5885 84.357 35.4669C84.1377 35.3453 84.0585 35.0689 84.1801 34.8496C84.3017 34.6303 84.9441 34.4079 84.9441 34.4079C84.9441 34.4079 85.0959 35.0706 84.9743 35.2899Z" fill="#E40B12"/>
<path d="M85.944 33.5408C85.8225 33.7601 85.5461 33.8393 85.3268 33.7177C85.1074 33.5961 85.0282 33.3198 85.1498 33.1004C85.2714 32.8811 85.9139 32.6587 85.9139 32.6587C85.9139 32.6587 86.0656 33.3214 85.944 33.5408Z" fill="#E40B12"/>
<path d="M78.0848 47.7688C77.9632 47.9882 77.6868 48.0674 77.4675 47.9458C77.2482 47.8242 77.1689 47.5478 77.2905 47.3285C77.4121 47.1092 78.0546 46.8868 78.0546 46.8868C78.0546 46.8868 78.2064 47.5495 78.0848 47.7688Z" fill="#E40B12"/>
<path d="M79.0545 46.0197C78.9329 46.239 78.6565 46.3182 78.4372 46.1966C78.2179 46.075 78.1387 45.7987 78.2603 45.5793C78.3819 45.36 79.0243 45.1376 79.0243 45.1376C79.0243 45.1376 79.1761 45.8004 79.0545 46.0197Z" fill="#E40B12"/>
<path d="M80.0242 44.2705C79.9027 44.4898 79.6263 44.5691 79.407 44.4475C79.1876 44.3259 79.1084 44.0495 79.23 43.8302C79.3516 43.6108 79.9941 43.3885 79.9941 43.3885C79.9941 43.3885 80.1458 44.0512 80.0242 44.2705Z" fill="#E40B12"/>
<path d="M79.292 37.1467C79.1257 37.3344 78.8387 37.3517 78.651 37.1854C78.4633 37.0191 78.446 36.7321 78.6123 36.5444C78.7787 36.3567 79.4541 36.2792 79.4541 36.2792C79.4541 36.2792 79.4583 36.959 79.292 37.1467Z" fill="#E40B12"/>
<path d="M80.6184 35.6498C80.4521 35.8375 80.1651 35.8549 79.9775 35.6885C79.7898 35.5222 79.7725 35.2352 79.9388 35.0476C80.1051 34.8599 80.7805 34.7823 80.7805 34.7823C80.7805 34.7823 80.7848 35.4622 80.6184 35.6498Z" fill="#E40B12"/>
<path d="M81.9449 34.153C81.7786 34.3407 81.4916 34.358 81.3039 34.1917C81.1162 34.0254 81.0989 33.7384 81.2652 33.5507C81.4315 33.363 82.107 33.2855 82.107 33.2855C82.107 33.2855 82.1112 33.9653 81.9449 34.153Z" fill="#E40B12"/>
<path d="M77.9109 38.7431C77.7446 38.9308 77.4576 38.9481 77.27 38.7818C77.0823 38.6155 77.0649 38.3285 77.2313 38.1408C77.3976 37.9531 78.073 37.8756 78.073 37.8756C78.073 37.8756 78.0773 38.5554 77.9109 38.7431Z" fill="#E40B12"/>
<path d="M90.2107 30.5481C90.1503 30.7915 89.904 30.9398 89.6606 30.8794C89.4172 30.8189 89.2689 30.5726 89.3293 30.3292C89.3898 30.0859 89.9524 29.7042 89.9524 29.7042C89.9524 29.7042 90.2711 30.3047 90.2107 30.5481Z" fill="#E40B12"/>
<path d="M87.766 40.3928C87.7056 40.6362 87.4593 40.7845 87.2159 40.724C86.9725 40.6636 86.8242 40.4173 86.8847 40.1739C86.9451 39.9305 87.5077 39.5489 87.5077 39.5489C87.5077 39.5489 87.8265 40.1494 87.766 40.3928Z" fill="#E40B12"/>
<path d="M88.248 38.4517C88.1876 38.6951 87.9413 38.8434 87.6979 38.783C87.4545 38.7225 87.3062 38.4763 87.3667 38.2329C87.4271 37.9895 87.9897 37.6078 87.9897 37.6078C87.9897 37.6078 88.3085 38.2084 88.248 38.4517Z" fill="#E40B12"/>
<path d="M88.73 36.5107C88.6696 36.7541 88.4233 36.9024 88.1799 36.8419C87.9365 36.7815 87.7882 36.5352 87.8487 36.2918C87.9091 36.0484 88.4718 35.6668 88.4718 35.6668C88.4718 35.6668 88.7905 36.2673 88.73 36.5107Z" fill="#E40B12"/>
<path d="M89.2121 34.5696C89.1516 34.813 88.9053 34.9613 88.6619 34.9009C88.4186 34.8405 88.2702 34.5942 88.3307 34.3508C88.3911 34.1074 88.9538 33.7257 88.9538 33.7257C88.9538 33.7257 89.2725 34.3263 89.2121 34.5696Z" fill="#E40B12"/>
<path d="M89.6941 32.6286C89.6336 32.872 89.3873 33.0203 89.1439 32.9598C88.9006 32.8994 88.7523 32.6531 88.8127 32.4097C88.8731 32.1663 89.4358 31.7847 89.4358 31.7847C89.4358 31.7847 89.7545 32.3852 89.6941 32.6286Z" fill="#E40B12"/>
<path d="M81.6479 26.6334C81.4316 26.7604 81.1534 26.6881 81.0264 26.4718C80.8994 26.2556 80.9718 25.9773 81.188 25.8503C81.4043 25.7233 82.0706 25.8587 82.0706 25.8587C82.0706 25.8587 81.8641 26.5065 81.6479 26.6334Z" fill="#E40B12"/>
<path d="M81.5414 23.4483C81.3366 23.5575 81.0821 23.48 80.9729 23.2752C80.8637 23.0704 80.9411 22.8159 81.1459 22.7067C81.3507 22.5975 81.9616 22.7479 81.9616 22.7479C81.9616 22.7479 81.7462 23.3391 81.5414 23.4483Z" fill="#E40B12"/>
<path d="M79.7909 24.3818C79.5861 24.491 79.3315 24.4135 79.2223 24.2087C79.1131 24.0039 79.1906 23.7494 79.3954 23.6402C79.6002 23.531 80.2111 23.6814 80.2111 23.6814C80.2111 23.6814 79.9956 24.2726 79.7909 24.3818Z" fill="#E40B12"/>
<path d="M68.748 25.0107L69.7107 29.6597C69.7478 29.8387 69.8796 29.9832 70.0544 30.0365L73.248 31.0107L70.0544 31.9848C69.8796 32.0382 69.7478 32.1827 69.7107 32.3617L68.748 37.0107L67.7854 32.3617C67.7483 32.1827 67.6165 32.0382 67.4417 31.9848L64.248 31.0107L67.4417 30.0365C67.6165 29.9832 67.7483 29.8387 67.7854 29.6597L68.748 25.0107Z" fill="#E40B12"/>
<path fill-rule="evenodd" clip-rule="evenodd" d="M74.648 43.8029C75.4212 43.8029 76.048 43.1761 76.048 42.4029C76.048 41.6297 75.4212 41.0029 74.648 41.0029C73.8748 41.0029 73.248 41.6297 73.248 42.4029C73.248 43.1761 73.8748 43.8029 74.648 43.8029ZM74.4071 42.3748C74.6132 42.266 74.6828 41.993 74.5624 41.7651C74.4421 41.5372 74.1774 41.4407 73.9713 41.5495C73.7651 41.6584 73.6956 41.9314 73.8159 42.1593C73.9363 42.3872 74.201 42.4837 74.4071 42.3748Z" fill="#E40B12"/>
<path d="M82.0466 39.9487C82.7018 39.8642 82.8178 39.7497 82.692 39.3116C82.608 39.018 82.6129 38.9156 82.7032 39.0839C82.7932 39.2525 83.0386 39.3903 83.248 39.3903C83.4575 39.3903 83.7029 39.2525 83.7929 39.0839C83.8832 38.9156 83.8852 39.0259 83.7975 39.329C83.6621 39.7975 83.7592 39.886 84.4432 39.9171L85.248 39.9539L84.4618 40.0558C83.8386 40.1369 83.6963 40.269 83.7772 40.6932C83.8332 40.9873 83.824 41.0904 83.7569 40.9218C83.6898 40.7535 83.4606 40.6155 83.248 40.6155C83.0355 40.6155 82.8063 40.7535 82.7392 40.9218C82.672 41.0904 82.6652 40.9799 82.7238 40.6768C82.8118 40.222 82.6918 40.119 82.0392 40.0886L81.248 40.0519L82.0466 39.9487Z" fill="#E40B12"/>
<path d="M119.6 12.3622C118.515 7.9803 120.701 3.47371 124.992 1.2416C127.06 0.165827 130.084 0.0225011 133.865 0.820761C136.715 1.42269 138.752 2.33219 143.631 5.18371L149.795 8.78614L148.146 11.4803L142.168 8.03036C135.469 4.16379 131.432 2.939 128.076 3.75463C123.272 4.92237 121.025 10.0123 123.64 13.8079C124.028 14.3716 126.394 16.1496 128.896 17.7593C134.905 21.6245 136.475 24.1662 135.531 28.5033C134.943 31.2062 133.044 33.5039 130.685 34.3654C128.474 35.1729 124.588 34.5141 122.053 32.9028L120.464 31.8928L121.977 29.2386L123.847 30.2124C126.251 31.4634 128.653 31.8335 129.951 31.1525C131.587 30.2938 132.598 27.7739 132.111 25.7703C131.539 23.4137 130.484 22.3503 126.261 19.8729C122.017 17.3826 120.388 15.5459 119.6 12.3622Z" fill="#E40B12"/>
<path d="M93.256 15.3952C93.5598 15.5666 95.1239 14.7286 97.1285 13.3206L100.491 10.9578L101.475 11.6731C102.676 12.5454 103.154 14.2294 102.356 14.7793C101.946 15.062 104.166 16.6149 109.75 19.953C117.285 24.4558 117.693 24.7693 117.051 25.5639C116.677 26.0264 115.937 27.0308 115.406 27.7951L114.441 29.1851L107.281 23.9014C103.343 20.9955 99.9233 18.4797 99.6807 18.3104C99.0203 17.8498 97.3303 19.8679 97.5656 20.8362C97.9667 22.4862 97.1471 22.2414 96.1459 20.4121C95.1071 18.5145 93.2623 16.6007 91.8087 15.912C91.1037 15.578 91.1119 15.505 91.8755 15.3194C92.3543 15.203 92.9759 15.2373 93.256 15.3952Z" fill="#E40B12"/>
<path d="M103.524 12.6774C103.261 12.9423 101.787 11.528 101.624 10.8537C101.56 10.5903 101.794 10.5488 102.697 10.6637C103.497 10.7653 104.06 12.1362 103.524 12.6774Z" fill="#E40B12"/>
<path d="M87.5982 17.5162C87.6526 17.4486 88.0287 17.0962 88.434 16.734C90.3858 14.987 95.2108 18.7697 96.1947 22.8178C96.4885 24.0268 96.3424 24.487 95.4077 25.2965L94.2598 26.2906L93.8956 24.7921C93.4094 22.7915 91.3856 20.1756 89.2428 18.7778C88.2835 18.152 87.5435 17.5844 87.5982 17.5162Z" fill="#E40B12"/>
<path d="M87.7214 24.6378C85.8622 22.4873 84.7908 19.5657 85.6609 19.0181C87.6783 17.7485 92.1965 21.6122 93.1152 25.3921C93.898 28.613 90.7816 28.1771 87.7214 24.6378Z" fill="#E40B12"/>
<path d="M116.539 31.8262C115.273 31.0591 115.388 29.5364 116.867 27.4945C118.598 25.1025 120.478 24.3926 121.413 25.7773C122.238 26.9984 121.891 28.3068 120.238 30.2126C118.735 31.945 117.572 32.4521 116.539 31.8262Z" fill="#E40B12"/>
<path fill-rule="evenodd" clip-rule="evenodd" d="M57.3806 40.4773C53.3051 51.3458 53.9841 52.7045 53.9841 52.7045C53.9841 52.7045 54.6635 52.7045 55.3427 49.9873C56.2722 46.2693 58.0597 43.1945 63.138 43.3793C71.7382 43.6924 71.6454 52.7045 71.6454 52.7045C71.6454 52.7045 89.6231 51.1531 95.2481 42.0033C98.6133 36.5293 99.7481 35.0033 104.248 35.0033C105.748 35.0033 108.667 35.8409 110.248 39.0033C110.645 39.7969 110.884 40.5117 111.029 41.0853C111.12 41.6215 111.192 42.0825 111.248 42.4901L111.248 42.5033L111.249 42.5009C111.41 43.6782 111.433 44.4095 111.372 45.2225C111.176 47.8207 110.225 50.1035 108.616 51.8335C108.03 52.464 107.857 52.8804 107.601 54.2804C106.897 58.1174 106.864 58.2253 106.129 59.0618C105.022 60.3212 103.939 60.6484 100.882 60.6484C99.3019 60.6484 98.0017 60.542 97.5446 60.3752C96.4298 59.9688 95.3467 58.739 94.9423 57.4209C94.6677 56.5258 94.5042 56.2881 94.1663 56.2941C93.9309 56.2981 88.7068 57.0432 82.5574 57.9498L71.3764 59.5981L70.6873 61.2935C69.4144 64.4247 68.7894 65.5972 67.9063 66.5095C66.0762 68.4005 63.3915 69.1451 58.953 68.9926C53.9164 68.8196 52.1006 67.9407 48.6347 63.9983L47.8406 63.0952L45.4253 63.0917C44.0968 63.0895 38.6135 62.9938 33.2405 62.8787C26.6228 62.7367 23.2924 62.739 22.9165 62.8861C22.6113 63.0052 21.9833 63.4354 21.5211 63.842C19.9448 65.2283 18.8038 65.5321 15.1609 65.535C12.1774 65.5375 11.835 65.4957 10.2951 64.9434C8.24855 64.2089 6.11818 63.3954 4.24806 61.5L4.06898 61.3187C3.27834 60.5188 2.71535 59.9491 2.27248 59.2596C1.74757 58.5 1.74806 57.5 1.74806 57.5L1.74757 56.5559L0.862198 53.9213C0.83522 53.8408 0.808853 53.7622 0.78334 53.6853C1.27296 53.751 1.76515 53.7969 2.25893 53.8229C2.32997 53.8274 2.40089 53.8253 2.47096 53.8169C2.52516 53.8103 2.57875 53.7999 2.63148 53.7858C2.73964 53.7568 2.84413 53.7122 2.94154 53.6526C3.20143 53.4706 3.44325 53.2623 3.6631 53.031C3.63783 53.0029 3.6133 52.973 3.58925 52.942C3.57289 52.921 3.55666 52.8994 3.54054 52.8776C3.52052 52.8502 3.50063 52.8225 3.48073 52.7948C3.35731 52.6223 3.23341 52.4493 3.06496 52.38C2.11098 51.958 1.1338 51.5931 0.138199 51.2872L0.111099 51.2784C-0.0811616 50.1807 -0.0101167 49.2111 0.218521 47.2772C0.477188 45.0894 0.622452 44.6519 1.41689 43.6704C1.68178 43.3431 1.99525 42.6729 2.11354 42.1809C2.53627 40.4209 2.76759 39.6503 2.84767 39.7328C2.89259 39.7791 2.79408 40.3387 2.6288 40.9771C2.15614 42.8022 2.22633 44.2318 2.8235 44.9447C3.27052 45.4783 3.45668 45.5408 4.57326 45.5344C5.26076 45.5304 5.86696 45.4819 5.92055 45.4268C5.97426 45.3717 6.06911 44.2979 6.13124 43.0408L6.24428 40.7548L5.54457 40.0358C5.15968 39.6405 4.69447 39.0179 4.51051 38.6526C4.12465 37.8855 4.02541 37.8522 3.63905 38.3607C3.39308 38.6844 3.38527 38.65 3.57899 38.0951C3.91713 37.126 4.36562 36.7319 5.51747 36.3906C7.03358 35.9413 22.5927 32.3282 26.1211 31.6058C28.8522 31.0469 29.2178 30.9163 30.3657 30.0898L30.6474 29.8875L30.2141 29.6904L27.7365 29.7319C27.1812 29.532 26.6777 29.2124 26.2631 28.7963C25.8484 28.3802 25.5327 27.8782 25.3391 27.3267C25.2816 27.2251 25.2505 27.1112 25.2484 26.9949C25.2473 26.9358 25.2538 26.877 25.2675 26.8198C25.2807 26.7646 25.3007 26.7111 25.327 26.6602C25.3808 26.5566 25.4595 26.4679 25.5564 26.4016C25.6532 26.3354 25.765 26.2939 25.8821 26.2808C27.6563 25.9031 29.4227 25.8239 31.1433 26.5676C31.3833 26.6617 31.5869 26.8287 31.7244 27.0447C31.8618 27.2605 31.9262 27.514 31.908 27.7684C31.9414 27.9667 31.9837 28.1633 32.0343 28.3577C32.0737 28.509 32.1184 28.6592 32.1682 28.8076C37.2238 25.2539 42.1475 22.144 44.0618 21.3206C48.0541 19.603 55.8642 18.2323 65.4752 17.563C66.19 17.5132 67.2395 17.474 68.4822 17.4453C68.2161 17.9556 67.9498 18.4675 67.6839 18.9802C62.8991 18.8671 57.8004 18.9977 54.9154 19.3707C48.5034 20.1995 43.8634 21.7737 39.6969 24.5339C37.5258 25.9723 33.1688 29.339 32.3577 30.205L31.6441 30.9669L33.1858 30.9635C34.0337 30.9618 36.9638 30.7992 39.6969 30.6024C43.5136 30.3275 47.6886 30.2419 57.6956 30.2335L61.9956 30.2297C59.9746 34.3689 58.3081 38.0037 57.3806 40.4773ZM38.7482 41.5033C42.0205 39.8184 45.1187 38.5469 48.0083 37.713C48.1531 37.6713 48.2935 37.6304 48.4298 37.5903C48.5414 37.5576 48.6503 37.5254 48.7569 37.4938L49.0481 37.4073L49.0595 37.4041C50.9518 36.8423 52.1223 36.4949 54.2943 36.4651C55.3427 36.4651 55.4422 36.911 55.4994 37.4164C55.6054 38.355 54.9585 40.006 54.0853 41.0251C53.0834 42.1948 51.041 43.3193 48.5927 44.0493C45.4017 45.0006 38.7493 46.1219 36.1327 46.1495C33.2954 46.1798 33.0122 45.3545 33.7567 44.7369C35.2481 43.5 36.5205 42.6504 38.7482 41.5033ZM103.677 41.3301L104.298 41.0518C105.698 40.4246 106.567 40.8416 107.391 42.5363C107.965 43.7169 108.001 43.9529 108.057 46.7917C108.118 49.9802 108.037 49.9441 107.402 46.4991C106.917 43.8649 106.514 43.1447 104.973 42.1593L103.677 41.3301ZM104.188 49.1777C104.454 48.4576 104.467 45.7743 104.209 44.8486L104.016 44.1587H104.818C105.412 44.1587 105.704 44.2812 105.943 44.6317C106.414 45.3236 106.337 45.4938 105.736 45.0889L105.207 44.7325L105.332 46.4138C105.344 46.5756 105.357 46.7424 105.371 46.9099C105.392 47.153 105.413 47.3972 105.435 47.6287C105.456 47.8439 105.476 48.0481 105.496 48.2301C105.523 48.4882 105.549 48.7015 105.57 48.8385L105.682 49.582L106.18 48.9862C106.717 48.3451 106.798 47.6666 106.476 46.512C106.196 45.511 106.397 45.4104 106.782 46.358C107.293 47.6157 107.603 51.054 107.36 52.7759L107.15 54.2653L107.121 52.4036C107.106 51.3796 107.007 50.5417 106.902 50.5417C106.427 50.5417 105.437 51.6703 105.439 52.2097C105.441 52.8374 106.3 54.8755 106.658 55.1028C107.592 55.6957 105.501 58.9641 104.469 58.5237C104.143 58.384 104.171 58.3381 104.674 58.1901C105.699 57.8877 105.909 57.5732 105.771 56.5415C105.703 56.0289 105.455 55.1653 105.222 54.6218C104.891 53.8546 104.753 53.7046 104.604 53.9497C104.415 54.26 104.124 55.5698 103.871 57.2413C103.752 58.0334 103.724 58.0626 103.451 57.6794C103.054 57.1213 103.084 56.3473 103.573 54.5327C104.153 52.3838 104.12 52.1222 103.159 51.2361C102.435 50.5675 102.331 50.3564 102.331 49.5494C102.331 48.4681 102.58 48.3848 103.4 49.1918L103.973 49.7565L104.188 49.1777ZM59.5401 47.2795C59.4059 47.1417 60.7072 46.1453 61.335 45.9053C62.8668 45.3196 64.4479 45.4912 66.1163 46.4244C70.2659 48.7451 71.551 56.2047 68.7923 61.9565C67.3971 64.8651 65.2334 66.4996 62.7776 66.4996C61.7061 66.4996 60.506 66.1447 60.506 65.8279C60.506 65.7156 60.594 65.6793 60.7014 65.7477C60.8091 65.8159 61.5413 65.8781 62.3283 65.8855C63.4776 65.8966 63.9694 65.79 64.8245 65.3448C65.5192 64.9829 65.8894 64.6555 65.8894 64.4027C65.8894 63.7819 63.8959 59.7668 63.5126 59.6156C62.6073 59.2588 62.156 59.4581 61.7689 60.3859C61.1294 61.9194 60.2988 64.6052 60.2988 65.1409C60.2988 65.4199 60.2434 65.6484 60.1756 65.6484C59.8256 65.6484 58.8789 64.887 58.4736 64.2795L58.0134 63.5891L58.9179 62.2031C60.0496 60.4689 60.6476 58.3856 60.3806 57.1068L60.1953 56.2194L58.2283 55.5936C57.1465 55.2494 56.245 54.9525 56.2251 54.934C56.0661 54.785 56.9879 52.125 57.214 52.0806C57.3732 52.0491 58.1428 52.4082 58.9242 52.8784C59.7055 53.3486 60.4674 53.7334 60.6173 53.7334C61.0292 53.7334 61.7183 52.7227 61.9782 51.7373C62.2038 50.8816 62.1469 46.6251 61.9063 46.3778C61.8421 46.3119 61.3049 46.51 60.713 46.8184C60.121 47.1266 59.593 47.3342 59.5401 47.2795ZM68.5427 51.3197C68.736 50.3301 67.0808 47.9283 65.4902 46.8898C64.986 46.5607 64.5203 46.3457 64.4556 46.4124C64.2517 46.6215 63.8368 49.946 63.8275 51.4412C63.8197 52.7369 63.8677 52.9055 64.335 53.22C64.6309 53.4193 65.0506 53.5159 65.3185 53.4468C66.0956 53.2458 68.473 51.6777 68.5427 51.3197ZM69.2005 57.2804C69.3328 56.1302 69.393 55.0605 69.3344 54.9036C69.2481 54.6725 68.9585 54.7002 67.8175 55.0482C66.0805 55.5782 64.898 56.2346 64.7363 56.7585C64.669 56.9764 64.8098 57.5409 65.0492 58.0131C65.6598 59.2164 67.5286 61.7123 67.8194 61.7123C68.2438 61.7123 68.9517 59.4403 69.2005 57.2804ZM46.586 54.481L46.6276 54.0897C46.0048 53.7877 45.3624 53.5304 44.7052 53.3196C42.8186 52.9244 40.877 52.8955 38.98 53.234C37.9517 53.3997 36.9335 53.6262 35.9304 53.9125C35.754 53.9579 35.6074 54.1122 35.4613 54.266C35.3913 54.3397 35.3212 54.4135 35.2481 54.4749C35.434 54.7343 35.6447 54.9739 35.877 55.1901C36.064 55.3433 36.2914 55.4349 36.5297 55.4529C37.3703 55.5251 38.2146 55.5394 39.0571 55.4956C41.2759 55.3 43.4888 55.0433 45.7017 54.7866C46.0059 54.717 46.3026 54.6146 46.586 54.481ZM7.82692 54.0918L19.7351 54.7271L31.6803 55.3582C32.0578 55.369 32.4326 55.426 32.7986 55.528C33.2908 55.6827 33.3766 56.0485 33.0465 56.5083C32.8842 56.731 32.6964 56.9269 32.4887 57.0907C30.9402 58.3215 29.1017 58.9526 27.2407 58.892L11.7501 58.0656C9.89223 57.9103 8.13637 57.0632 6.74294 55.6499C6.56496 55.4824 6.41188 55.282 6.28993 55.0565C6.04555 54.6028 6.17079 54.2299 6.63356 54.1444C6.7831 54.1205 6.93312 54.103 7.08339 54.0922C7.33107 54.0742 7.57936 54.0741 7.82692 54.0918ZM20.8468 41.032L20.2063 41.0096H20.2027C16.807 40.891 13.4153 40.7725 10.0182 40.6941C9.68813 40.8164 9.36671 41.0503 9.06654 41.3866C9.17262 42.0128 9.32924 42.5907 9.5298 43.0959C10.9486 45.7123 12.765 47.2183 14.6973 47.3802C15.947 47.4238 17.197 47.4603 18.4469 47.4968C20.9487 47.5699 23.4501 47.6429 25.9476 47.7732C27.8172 47.844 29.687 46.7604 31.3279 44.6553C31.653 44.2603 31.9546 43.7803 32.2251 43.2273C32.6344 42.4353 32.5546 41.7714 32.0364 41.5275C31.7089 41.4031 31.3749 41.3428 31.0387 41.3475L20.8468 41.032Z" fill="#656777"/>
</svg>
