<svg width="18" height="18" viewBox="0 0 18 18" fill="none" xmlns="http://www.w3.org/2000/svg">
<path d="M16.1111 12.1111C15 12.1111 13.9333 11.9333 12.9378 11.6044C12.6267 11.5067 12.28 11.5778 12.04 11.8178L10.8578 13C8.34222 11.72 6.28 9.66667 5 7.14222L6.18222 5.95111C6.42222 5.72 6.49333 5.37333 6.39556 5.06222C6.06667 4.06667 5.88889 3 5.88889 1.88889C5.88889 1.4 5.48889 1 5 1H1.88889C1.4 1 1 1.4 1 1.88889C1 10.2356 7.76444 17 16.1111 17C16.6 17 17 16.6 17 16.1111V13C17 12.5111 16.6 12.1111 16.1111 12.1111Z" stroke="black"/>
</svg>
