<svg width="37" height="37" viewBox="0 0 37 37" fill="none" xmlns="http://www.w3.org/2000/svg">
<path d="M32.9383 6.96895C35.0971 9.59444 36.4605 12.6753 36.9154 16.3317L36.9159 16.3355C36.971 16.7225 37 17.5458 37 18.3844C37 19.223 36.9706 20.0462 36.9156 20.4332L36.9145 20.4462C36.8015 21.808 36.4625 23.0602 36.1185 24.2125C34.072 30.6065 28.731 35.4004 22.2569 36.6568C20.8848 36.8865 20.0926 37 18.5 37C17.0072 37 16.4485 36.9998 15.2037 36.7724L15.1978 36.7714C13.7275 36.5442 11.6789 35.8586 10.3167 35.1743L10.3147 35.1733C5.88341 33.0044 2.58619 29.1219 0.994117 24.5517L0.993211 24.5492C0.541659 23.3016 0.31418 21.9359 0.0838985 20.4322C0.028974 20.0447 0 19.2222 0 18.3844C0 17.5458 0.029031 16.7225 0.0840604 16.3355L0.0862636 16.32L0.0863329 16.304C0.0866542 16.3014 0.088384 16.2872 0.0971365 16.2534C0.103452 16.2291 0.110546 16.2048 0.118993 16.1759L0.135338 16.1193C0.149509 16.0695 0.165368 16.0109 0.177982 15.9468H2.41538C2.40791 16.0166 2.40807 16.0874 2.40823 16.1581L2.40827 16.176C2.17747 18.1614 2.29372 20.4935 2.75986 22.3668L2.76066 22.3698C4.27536 28.1058 8.70416 32.6758 14.5364 34.0828C18.1501 35.0193 22.1133 34.6683 25.4964 33.0274L25.4991 33.026C27.8292 31.8556 29.8098 30.2166 31.4396 28.1114C33.1905 25.883 34.2404 23.3026 34.5901 20.3755C34.7071 19.434 34.7073 17.6862 34.5905 16.743C34.3566 14.1654 33.4245 11.5907 32.0263 9.48263C31.4436 8.54622 30.9736 7.95613 30.1602 7.13857C28.8776 5.73358 27.4754 4.67711 25.7248 3.8562C23.0479 2.57011 20.134 1.98341 17.3316 2.21803C14.5368 2.45203 12.0858 3.27266 9.75417 4.79511L8.28309 5.73563L9.9273 7.76875C10.0551 7.95811 10.2645 8.16843 10.4275 8.3322L10.4375 8.34222C10.5255 8.43059 10.5992 8.50485 10.6515 8.56392C10.6683 8.58292 10.6808 8.59819 10.6896 8.60966V8.6776C10.6896 8.73142 10.6572 8.83052 10.5897 8.92102C10.5174 9.01775 10.4593 9.03515 10.4487 9.03515C10.4188 9.03515 10.366 9.04084 10.3127 9.04695C10.2522 9.05388 10.1707 9.06395 10.0708 9.0766C9.9587 9.09081 9.82184 9.10849 9.66365 9.12891L9.25641 9.18137C8.58382 9.26763 7.66952 9.38246 6.64097 9.49738H6.41158L6.40014 9.49859C5.30747 9.61415 4.47433 9.70073 3.88578 9.75842C3.40814 9.80524 3.10054 9.83204 2.9451 9.84081L2.89751 9.793C2.7848 9.67976 2.73168 9.62078 2.73168 9.4865C2.73168 9.38728 2.75826 9.08451 2.83071 8.48759C2.90233 7.89757 3.01709 7.03277 3.18944 5.82057C3.32687 4.90008 3.42797 4.12527 3.50686 3.52063C3.52718 3.36491 3.54603 3.22047 3.56364 3.08774C3.60684 2.76221 3.6422 2.51043 3.67359 2.33351C3.68936 2.24461 3.7032 2.18 3.71523 2.13661C3.71835 2.12536 3.72101 2.11677 3.72314 2.11042L3.76685 2.06651V1.99673L3.77176 1.98829C3.78446 1.96768 3.80542 1.94109 3.83204 1.91435C3.85866 1.8876 3.88512 1.86655 3.90563 1.85379C3.90782 1.85243 3.91013 1.85126 3.91211 1.85025L3.9148 1.84885H4.26196L6.63256 4.23055L7.70352 3.42357C10.1996 1.60016 13.3824 0.457124 16.4539 0.114252L17.2499 0C17.441 0.00151871 18.1333 0.0292862 18.8363 0.0575372L18.8528 0.058202C19.5423 0.0859118 20.2384 0.113884 20.4392 0.115425C24.4221 0.689565 27.8266 2.1757 30.5476 4.56773L31.4623 5.37186C31.5448 5.45447 31.6418 5.54612 31.7477 5.64615C32.1124 5.99073 32.5824 6.43471 32.9249 6.95085L32.9311 6.96025L32.9383 6.96895Z" fill="#E30613"/>
<path d="M11.3375 24.0059H9.51845V19.0022C9.51845 18.8642 9.52042 18.6946 9.52434 18.4935C9.52826 18.2885 9.53415 18.0795 9.542 17.8666C9.54985 17.6497 9.5577 17.4545 9.56555 17.281C9.52238 17.3323 9.43407 17.421 9.30063 17.5472C9.17112 17.6694 9.04945 17.7798 8.93564 17.8784L7.94662 18.6769L7.06945 17.5767L9.84224 15.3588H11.3375V24.0059Z" fill="#E30613"/>
<path d="M19.7089 19.6824C19.7089 20.3803 19.6539 21.0033 19.544 21.5514C19.4381 22.0995 19.2654 22.5647 19.026 22.9472C18.7905 23.3297 18.4805 23.6215 18.0958 23.8226C17.7112 24.0237 17.2442 24.1242 16.6947 24.1242C16.004 24.1242 15.4369 23.9488 14.9934 23.5978C14.5499 23.2429 14.2222 22.7343 14.0102 22.0719C13.7983 21.4055 13.6923 20.609 13.6923 19.6824C13.6923 18.7478 13.7885 17.9494 13.9808 17.2869C14.177 16.6206 14.4949 16.1099 14.9345 15.755C15.3741 15.4002 15.9608 15.2227 16.6947 15.2227C17.3815 15.2227 17.9467 15.4002 18.3902 15.755C18.8376 16.106 19.1692 16.6146 19.3851 17.281C19.601 17.9435 19.7089 18.7439 19.7089 19.6824ZM15.4997 19.6824C15.4997 20.3408 15.535 20.8909 15.6056 21.3325C15.6802 21.7702 15.8038 22.0995 15.9765 22.3203C16.1492 22.5411 16.3886 22.6515 16.6947 22.6515C16.9969 22.6515 17.2344 22.543 17.4071 22.3262C17.5837 22.1054 17.7093 21.7761 17.7838 21.3384C17.8584 20.8968 17.8957 20.3448 17.8957 19.6824C17.8957 19.0239 17.8584 18.4738 17.7838 18.0322C17.7093 17.5905 17.5837 17.2593 17.4071 17.0385C17.2344 16.8138 16.9969 16.7014 16.6947 16.7014C16.3886 16.7014 16.1492 16.8138 15.9765 17.0385C15.8038 17.2593 15.6802 17.5905 15.6056 18.0322C15.535 18.4738 15.4997 19.0239 15.4997 19.6824Z" fill="#E30613"/>
<path d="M22.5582 15.2346C23.2332 15.2346 23.7454 15.4711 24.0947 15.9443C24.444 16.4175 24.6187 17.0819 24.6187 17.9375C24.6187 18.7932 24.4538 19.4615 24.1241 19.9426C23.7945 20.4236 23.2725 20.6642 22.5582 20.6642C21.8949 20.6642 21.3906 20.4236 21.0452 19.9426C20.6999 19.4615 20.5272 18.7932 20.5272 17.9375C20.5272 17.0819 20.6881 16.4175 21.0099 15.9443C21.3357 15.4711 21.8518 15.2346 22.5582 15.2346ZM22.57 16.4707C22.3777 16.4707 22.2364 16.593 22.1461 16.8374C22.0558 17.0819 22.0107 17.4525 22.0107 17.9494C22.0107 18.4462 22.0558 18.8188 22.1461 19.0672C22.2364 19.3156 22.3777 19.4398 22.57 19.4398C22.7623 19.4398 22.9036 19.3176 22.9938 19.0731C23.088 18.8247 23.1351 18.4501 23.1351 17.9494C23.1351 17.4525 23.088 17.0819 22.9938 16.8374C22.9036 16.593 22.7623 16.4707 22.57 16.4707ZM28.6689 15.3588L23.8946 24.0059H22.4817L27.256 15.3588H28.6689ZM28.5865 18.6887C29.2616 18.6887 29.7737 18.9253 30.123 19.3984C30.4723 19.8716 30.647 20.536 30.647 21.3917C30.647 22.2434 30.4821 22.9098 30.1525 23.3908C29.8228 23.8719 29.3008 24.1124 28.5865 24.1124C27.9232 24.1124 27.4189 23.8719 27.0735 23.3908C26.7282 22.9098 26.5555 22.2434 26.5555 21.3917C26.5555 20.536 26.7164 19.8716 27.0382 19.3984C27.364 18.9253 27.8801 18.6887 28.5865 18.6887ZM28.5983 19.9248C28.406 19.9248 28.2647 20.0471 28.1744 20.2916C28.0841 20.536 28.039 20.9067 28.039 21.4035C28.039 21.9003 28.0841 22.2729 28.1744 22.5214C28.2647 22.7698 28.406 22.894 28.5983 22.894C28.7906 22.894 28.9319 22.7717 29.0221 22.5273C29.1163 22.2789 29.1634 21.9043 29.1634 21.4035C29.1634 20.9067 29.1163 20.536 29.0221 20.2916C28.9319 20.0471 28.7906 19.9248 28.5983 19.9248Z" fill="#E30613"/>
</svg>
