<svg width="38" height="38" viewBox="0 0 38 38" fill="none" xmlns="http://www.w3.org/2000/svg">
<path d="M17.3757 6.39948C17.1757 6.09947 16.7757 5.79948 16.3757 5.89948C16.2757 5.89948 16.1757 5.89948 16.1757 5.99948C15.8757 6.09947 15.6757 6.39947 15.6757 6.69947C15.6757 6.79947 15.6757 8.39948 15.6757 11.4995V16.1995L13.2757 18.5995C11.0757 20.7995 10.8757 20.9995 10.8757 21.0995C10.6757 21.4995 10.7757 21.8995 11.0757 22.1995C11.1757 22.2995 11.3757 22.3995 11.5757 22.4995C11.7757 22.4995 11.9757 22.4995 12.1757 22.3995C12.2757 22.2995 12.3757 22.2995 14.8757 19.7995C16.9757 17.6995 17.4757 17.1995 17.4757 17.0995C17.5757 16.8995 17.5757 17.2995 17.5757 11.7995C17.4757 6.19947 17.4757 6.59947 17.3757 6.39948Z" fill="#E30613"/>
<path d="M28.8757 22.8995C28.6757 22.8995 28.6757 22.8995 26.9757 22.8995C25.5757 22.8995 25.2757 22.8995 25.1757 22.8995C24.9757 22.9995 24.7757 23.0995 24.6757 23.2995C24.5757 23.4995 24.5757 23.3995 24.5757 26.5995V29.5995H24.4757C24.2757 29.6995 24.0757 29.8995 23.9757 30.0995C23.8757 30.2995 23.8757 30.4995 23.9757 30.6995C24.0757 30.8995 24.2757 31.0995 24.4757 31.1995H24.5757V31.4995C24.5757 31.8995 24.5757 31.9995 24.6757 32.1995C24.9757 32.7995 25.8757 32.7995 26.1757 32.1995C26.2757 31.9995 26.2757 31.9995 26.2757 31.5995V31.1995H27.4757L27.5757 31.0995C28.1757 30.7995 28.1757 29.8995 27.5757 29.5995L27.4757 29.4995H26.2757V28.6995H27.4757C28.5757 28.6995 28.7757 28.6995 28.8757 28.6995C29.3757 28.5995 29.8757 28.3995 30.1757 28.1995C30.3757 28.0995 30.6757 27.6995 30.7757 27.4995C31.0757 27.0995 31.2757 26.5995 31.2757 25.9995C31.3757 25.0995 31.0757 24.2995 30.4757 23.6995C30.1757 23.2995 29.5757 22.9995 28.8757 22.8995ZM29.5757 26.4995C29.3757 26.8995 29.0757 27.0995 28.5757 27.1995C28.4757 27.1995 28.2757 27.1995 27.2757 27.1995H26.1757V24.1995H27.2757C28.2757 24.1995 28.4757 24.1995 28.5757 24.1995C29.0757 24.2995 29.3757 24.4995 29.5757 24.8995C29.6757 25.0995 29.6757 25.1995 29.6757 25.3995C29.7757 25.8995 29.6757 26.2995 29.5757 26.4995Z" fill="#E30613"/>
<path fill-rule="evenodd" clip-rule="evenodd" d="M27.0007 35.4918C31.6907 35.4918 35.4927 31.6898 35.4927 26.9998C35.4927 22.3099 31.6907 18.5079 27.0007 18.5079C22.3108 18.5079 18.5088 22.3099 18.5088 26.9998C18.5088 31.6898 22.3108 35.4918 27.0007 35.4918ZM27.0007 36.7498C32.3855 36.7498 36.7507 32.3846 36.7507 26.9998C36.7507 21.615 32.3855 17.2498 27.0007 17.2498C21.616 17.2498 17.2507 21.615 17.2507 26.9998C17.2507 32.3846 21.616 36.7498 27.0007 36.7498Z" fill="#E30613"/>
<path fill-rule="evenodd" clip-rule="evenodd" d="M27.0007 17.4998C21.754 17.4998 17.5007 21.7531 17.5007 26.9998C17.5007 32.2465 21.754 36.4998 27.0007 36.4998C32.2474 36.4998 36.5007 32.2465 36.5007 26.9998C36.5007 21.7531 32.2474 17.4998 27.0007 17.4998ZM17.0007 26.9998C17.0007 21.477 21.4779 16.9998 27.0007 16.9998C32.5236 16.9998 37.0007 21.477 37.0007 26.9998C37.0007 32.5227 32.5236 36.9998 27.0007 36.9998C21.4779 36.9998 17.0007 32.5227 17.0007 26.9998ZM27.0007 18.7579C22.4488 18.7579 18.7588 22.4479 18.7588 26.9998C18.7588 31.5517 22.4488 35.2418 27.0007 35.2418C31.5526 35.2418 35.2427 31.5517 35.2427 26.9998C35.2427 22.4479 31.5526 18.7579 27.0007 18.7579ZM18.2588 26.9998C18.2588 22.1718 22.1727 18.2579 27.0007 18.2579C31.8288 18.2579 35.7427 22.1718 35.7427 26.9998C35.7427 31.8279 31.8288 35.7418 27.0007 35.7418C22.1727 35.7418 18.2588 31.8279 18.2588 26.9998Z" fill="#E30613"/>
<path d="M18.2808 31.8987C17.6967 31.9655 17.1027 31.9998 16.5007 31.9998C7.94032 31.9998 1.00073 25.0602 1.00073 16.4998C1.00073 7.9394 7.94032 0.999817 16.5007 0.999817C25.0611 0.999817 32.0007 7.9394 32.0007 16.4998C32.0007 17.1018 31.9664 17.6958 31.8996 18.2799C31.2922 17.938 30.6455 17.6576 29.968 17.4474C29.9897 17.1344 30.0007 16.8184 30.0007 16.4998C30.0007 9.04397 23.9566 2.99982 16.5007 2.99982C9.04489 2.99982 3.00073 9.04397 3.00073 16.4998C3.00073 23.9557 9.04489 29.9998 16.5007 29.9998C16.8193 29.9998 17.1353 29.9888 17.4483 29.9671C17.6586 30.6446 17.9389 31.2913 18.2808 31.8987Z" fill="#E30613"/>
<path fill-rule="evenodd" clip-rule="evenodd" d="M0.800781 16.4998C0.800781 7.82893 7.82991 0.799805 16.5008 0.799805C25.1716 0.799805 32.2008 7.82893 32.2008 16.4998C32.2008 17.0644 32.171 17.6221 32.1128 18.1714C35.155 19.9367 37.2008 23.2293 37.2008 26.9998C37.2008 32.6331 32.6341 37.1998 27.0008 37.1998C23.2303 37.1998 19.9377 35.154 18.1723 32.1119C17.623 32.17 17.0654 32.1998 16.5008 32.1998C7.82991 32.1998 0.800781 25.1707 0.800781 16.4998ZM31.7319 17.9611C31.7775 17.4802 31.8008 16.9927 31.8008 16.4998C31.8008 8.04985 24.9507 1.1998 16.5008 1.1998C8.05082 1.1998 1.20078 8.04985 1.20078 16.4998C1.20078 24.9498 8.05082 31.7998 16.5008 31.7998C16.9937 31.7998 17.4811 31.7765 17.962 31.7309C17.7021 31.2354 17.4818 30.7159 17.3052 30.1766C17.039 30.192 16.7708 30.1998 16.5008 30.1998C8.93448 30.1998 2.80078 24.0661 2.80078 16.4998C2.80078 8.9335 8.93448 2.7998 16.5008 2.7998C24.0671 2.7998 30.2008 8.9335 30.2008 16.4998C30.2008 16.7698 30.193 17.038 30.1776 17.3042C30.7169 17.4808 31.2364 17.7012 31.7319 17.9611ZM29.7835 17.184C29.795 16.9574 29.8008 16.7293 29.8008 16.4998C29.8008 9.15442 23.8462 3.1998 16.5008 3.1998C9.15539 3.1998 3.20078 9.15442 3.20078 16.4998C3.20078 23.8452 9.15539 29.7998 16.5008 29.7998C16.7303 29.7998 16.9584 29.794 17.185 29.7825C16.9347 28.8979 16.8008 27.9645 16.8008 26.9998C16.8008 21.3665 21.3675 16.7998 27.0008 16.7998C27.9655 16.7998 28.8989 16.9337 29.7835 17.184ZM17.05 5.82581C17.2548 5.94284 17.4269 6.11554 17.5422 6.28852L17.5491 6.29888L17.5547 6.31002C17.5557 6.31218 17.5578 6.31551 17.5605 6.32C17.5755 6.3448 17.6121 6.40511 17.6313 6.50086C17.6505 6.59718 17.6632 6.75708 17.6756 7.06647C17.7007 7.69432 17.7258 8.9974 17.7758 11.7959L17.7758 11.7995L17.7758 11.807C17.7758 14.5501 17.7758 15.8264 17.7632 16.441C17.7571 16.7438 17.7478 16.9012 17.7303 16.9965C17.714 17.0854 17.6813 17.1442 17.6644 17.1724C17.6608 17.1843 17.6568 17.1944 17.6533 17.2025C17.6431 17.2261 17.6303 17.248 17.6179 17.2671C17.5932 17.3051 17.559 17.3486 17.5172 17.3977C17.433 17.4969 17.3008 17.6385 17.1069 17.8386C16.7183 18.2398 16.0675 18.8906 15.0196 19.9385L15.0172 19.9409C13.7666 21.1915 13.1146 21.8185 12.7619 22.146C12.5852 22.31 12.483 22.3996 12.4178 22.455C12.3881 22.4802 12.3688 22.4963 12.3551 22.5076C12.3353 22.5241 12.3275 22.5306 12.3172 22.5409L12.2943 22.5638L12.2652 22.5783C12.0227 22.6996 11.7818 22.6995 11.5889 22.6995L11.5286 22.6995L11.4836 22.677C11.3856 22.628 11.2814 22.5759 11.1891 22.5231C11.0982 22.4712 11.004 22.4105 10.9344 22.3409C10.5894 21.996 10.4586 21.5177 10.6823 21.0402C10.6985 20.9669 10.7421 20.9056 10.7845 20.852C10.8444 20.7762 10.9445 20.6666 11.1067 20.4982C11.433 20.1594 12.0338 19.5586 13.1302 18.4622L15.4758 16.1166V6.69946C15.4758 6.35122 15.6848 6.00457 16.0148 5.84893C16.0207 5.8387 16.0275 5.82865 16.0351 5.81886C16.0775 5.76434 16.1318 5.73663 16.175 5.72223C16.2377 5.70134 16.3088 5.69946 16.353 5.69941C16.6078 5.64396 16.8513 5.71228 17.05 5.82581ZM16.8516 6.17311C16.7069 6.09047 16.5602 6.05951 16.4243 6.09349L16.4004 6.09946H16.3758L16.3758 6.14361L16.239 6.1892C16.025 6.26056 15.8758 6.48097 15.8758 6.69946V16.2823L13.4172 18.7409C12.3163 19.8418 11.7182 20.4399 11.3948 20.7757C11.232 20.9448 11.1446 21.0415 11.0983 21.1001C11.0878 21.1133 11.0806 21.1233 11.0758 21.1303V21.1467L11.0547 21.1889C10.8984 21.5014 10.9694 21.8102 11.2172 22.058C11.2476 22.0884 11.3033 22.1277 11.3875 22.1758C11.4578 22.216 11.5376 22.2566 11.6229 22.2994C11.7942 22.2986 11.9297 22.2915 12.0619 22.2322C12.0785 22.2174 12.0968 22.2021 12.1174 22.1849C12.1303 22.1742 12.144 22.1627 12.1588 22.1502C12.2186 22.0994 12.3163 22.0139 12.4897 21.8529C12.837 21.5304 13.4849 20.9075 14.7344 19.658C15.7851 18.6073 16.4335 17.9588 16.8196 17.5603C17.0132 17.3605 17.1374 17.227 17.2125 17.1387C17.2437 17.1019 17.2637 17.0762 17.2758 17.059V17.0522L17.2969 17.01C17.324 16.9557 17.33 16.9516 17.3325 16.9459C17.3339 16.9426 17.3342 16.9387 17.3369 16.9243C17.3475 16.8665 17.357 16.7426 17.3633 16.4329C17.3758 15.8232 17.3758 14.5517 17.3758 11.8012C17.3258 9.00096 17.3008 7.70447 17.2759 7.08246C17.2633 6.76684 17.251 6.63925 17.239 6.57931C17.2358 6.56302 17.2351 6.55838 17.2332 6.5543C17.2303 6.54812 17.2247 6.54323 17.203 6.50095C17.1183 6.3771 16.9932 6.25403 16.8516 6.17311ZM27.0008 17.6998C21.8645 17.6998 17.7008 21.8636 17.7008 26.9998C17.7008 32.1361 21.8645 36.2998 27.0008 36.2998C32.137 36.2998 36.3008 32.1361 36.3008 26.9998C36.3008 21.8636 32.137 17.6998 27.0008 17.6998ZM18.0588 26.9998C18.0588 22.0613 22.0623 18.0579 27.0008 18.0579C31.9393 18.0579 35.9427 22.0613 35.9427 26.9998C35.9427 31.9383 31.9393 35.9417 27.0008 35.9417C22.0623 35.9417 18.0588 31.9383 18.0588 26.9998ZM27.0008 18.9579C22.5593 18.9579 18.9588 22.5584 18.9588 26.9998C18.9588 31.4412 22.5593 35.0417 27.0008 35.0417C31.4422 35.0417 35.0427 31.4412 35.0427 26.9998C35.0427 22.5584 31.4422 18.9579 27.0008 18.9579ZM25.1286 22.6995H28.89L28.9041 22.7015C29.6284 22.805 30.2816 23.1167 30.627 23.5679C31.2602 24.2066 31.5784 25.0585 31.4758 26.0106C31.4733 26.6461 31.262 27.1791 30.9462 27.6055C30.8858 27.7213 30.781 27.8755 30.6681 28.0136C30.5581 28.148 30.4152 28.2987 30.2773 28.3721C29.9503 28.5874 29.4295 28.7927 28.915 28.8956L28.8956 28.8995H26.4758V29.2995H27.5586L27.6955 29.4363C28.4025 29.8192 28.4025 30.8798 27.6955 31.2626L27.5586 31.3995H26.4758L26.4758 31.6233C26.4758 31.8005 26.4758 31.9157 26.4606 32.0073C26.4431 32.1124 26.4057 32.187 26.3605 32.2773L26.3547 32.2889C25.981 33.0363 24.8706 33.0363 24.4969 32.2889C24.4389 32.1729 24.4057 32.0761 24.3898 31.9493C24.3758 31.8368 24.3758 31.7009 24.3758 31.514V31.373C24.1408 31.2522 23.9145 31.0241 23.7969 30.7889C23.6687 30.5326 23.6687 30.2663 23.7969 30.01C23.9145 29.7748 24.1408 29.5468 24.3758 29.4259V26.5887C24.3758 24.9983 24.3758 24.2214 24.3884 23.8182C24.3946 23.6183 24.4042 23.4967 24.422 23.4094C24.44 23.3215 24.4671 23.2684 24.4889 23.2258C24.4917 23.2204 24.4943 23.2151 24.4969 23.21C24.6271 22.9496 24.8809 22.823 25.0667 22.7304C25.0733 22.7271 25.0799 22.7238 25.0863 22.7206L25.1286 22.6995ZM24.5262 29.7995C24.3774 29.8861 24.2288 30.0406 24.1547 30.1889C24.0828 30.3326 24.0828 30.4663 24.1547 30.61C24.2288 30.7583 24.3774 30.9129 24.5262 30.9995H24.7758V31.4995C24.7758 31.705 24.7762 31.815 24.7867 31.8997C24.7959 31.9728 24.8126 32.026 24.8547 32.11C25.081 32.5626 25.7706 32.5626 25.9969 32.11C26.0491 32.0057 26.0592 31.9821 26.066 31.9416C26.0751 31.8872 26.0758 31.8086 26.0758 31.5995V30.9995H27.3929L27.4573 30.9351L27.4863 30.9206C27.9389 30.6943 27.9389 30.0046 27.4863 29.7783L27.4573 29.7638L27.3929 29.6995H26.0758V28.4995H28.855C29.3289 28.4021 29.7949 28.213 30.0648 28.0331L30.0752 28.0261L30.0863 28.0206C30.1448 27.9914 30.2467 27.897 30.3585 27.7603C30.465 27.6301 30.5556 27.4927 30.5969 27.41L30.605 27.3939L30.6158 27.3795C30.8924 27.0107 31.0758 26.5521 31.0758 25.9995V25.9884L31.077 25.9774C31.1702 25.1388 30.8922 24.3987 30.3344 23.8409L30.3243 23.8308L30.3158 23.8195C30.0606 23.4792 29.5245 23.197 28.8614 23.0995H25.2235C25.035 23.195 24.9154 23.2675 24.8547 23.3889C24.851 23.3961 24.8478 23.4025 24.8449 23.4083C24.8259 23.446 24.8207 23.4562 24.8139 23.4895C24.8036 23.5398 24.7944 23.6306 24.7882 23.8307C24.7758 24.2267 24.7758 24.9971 24.7758 26.5995V29.7995H24.5262ZM25.9758 23.9995H28.5956L28.615 24.0033C28.8819 24.0567 29.1101 24.1396 29.3021 24.2725C29.4961 24.4068 29.6419 24.5845 29.7547 24.81C29.8112 24.923 29.844 25.0172 29.8606 25.1166C29.8752 25.2046 29.8758 25.2909 29.8758 25.3801C29.978 25.9145 29.8732 26.3519 29.7547 26.5889C29.6419 26.8145 29.4961 26.9921 29.3021 27.1264C29.1101 27.2593 28.8819 27.3422 28.615 27.3956L28.5956 27.3995H25.9758V23.9995ZM26.3758 24.3995V26.9995H28.555C28.7785 26.953 28.9451 26.8871 29.0744 26.7975C29.2054 26.7068 29.3097 26.5845 29.3969 26.41C29.4769 26.2499 29.571 25.8952 29.4797 25.4387L29.4758 25.4193V25.3995C29.4758 25.2955 29.4753 25.2379 29.466 25.1823C29.4576 25.1317 29.4404 25.0759 29.3969 24.9889C29.3097 24.8145 29.2054 24.6921 29.0744 24.6014C28.9451 24.5118 28.7791 24.4459 28.5556 24.3995H26.3758Z" fill="#E30613"/>
</svg>
