<svg width="21" height="21" viewBox="0 0 21 21" fill="none" xmlns="http://www.w3.org/2000/svg">
<path d="M10.4895 0C4.6935 0 0 4.704 0 10.5C0 16.296 4.6935 21 10.4895 21C16.296 21 21 16.296 21 10.5C21 4.704 16.296 0 10.4895 0ZM10.5 18.9C5.859 18.9 2.1 15.141 2.1 10.5C2.1 5.859 5.859 2.1 10.5 2.1C15.141 2.1 18.9 5.859 18.9 10.5C18.9 15.141 15.141 18.9 10.5 18.9Z" fill="#7F8691"/>
<path d="M11.5 5H10V11.5574L15.25 15L16 13.6557L11.5 10.7377V5Z" fill="#7F8691"/>
<path fill-rule="evenodd" clip-rule="evenodd" d="M11.6 4.90002V10.6834L16.1329 13.6228L15.285 15.1426L9.90002 11.6114V4.90002H11.6ZM11.5 10.7377V5H10V11.5574L15.25 15L16 13.6557L11.5 10.7377Z" fill="#7F8691"/>
</svg>
