<svg width="30" height="20" viewBox="0 0 30 20" fill="none" xmlns="http://www.w3.org/2000/svg">
<path d="M3.72708 5.35469C4.23807 4.67506 4.6941 4.04102 5.17658 3.4277C5.99091 2.39168 6.85817 1.38052 7.92901 0.58693C8.44635 0.194271 9.07734 -0.0120272 9.72257 0.000542157C13.0695 0.0233346 16.4163 0.0150464 19.7632 0.000542157C20.2297 0.0143543 20.6817 0.168665 21.0621 0.443958C21.8942 1.01682 22.6357 1.71554 23.2608 2.516C23.9652 3.37382 24.6227 4.27102 25.2966 5.15163C25.3353 5.20136 25.3719 5.25523 25.4574 5.37541C25.5292 5.12826 25.5837 4.87622 25.6203 4.62119C25.6174 4.49721 25.6501 4.37507 25.7145 4.26978C25.7789 4.1645 25.8721 4.08066 25.9827 4.02859C26.6667 3.69084 27.3914 3.65976 28.1304 3.724C28.3238 3.74057 28.5193 3.77165 28.7107 3.80688C29.1341 3.88354 29.2766 4.14462 29.0791 4.5466C28.619 5.49352 27.8047 6.04675 26.7074 5.76288C26.5425 5.72144 26.3674 5.61784 26.2168 5.81261C26.1068 5.95558 26.0885 6.08198 26.2351 6.20008C26.3235 6.27092 26.4191 6.33204 26.5201 6.38242C27.5197 6.85278 28.0592 7.65258 28.0633 8.76734C28.0795 12.124 28.0633 15.4807 28.0633 18.8375C28.074 18.9916 28.0522 19.1462 27.9995 19.2911C27.9468 19.436 27.8643 19.5677 27.7575 19.6776C27.6508 19.7874 27.5222 19.8728 27.3804 19.928C27.2387 19.9832 27.0869 20.007 26.9354 19.9978C26.1048 19.9978 25.2742 19.9978 24.4436 19.9978C24.2965 20.0025 24.15 19.9762 24.0133 19.9207C23.8767 19.8651 23.7528 19.7814 23.6494 19.6748C23.546 19.5682 23.4653 19.441 23.4124 19.3012C23.3596 19.1614 23.3357 19.012 23.3422 18.8623C23.3422 18.0584 23.3422 17.2544 23.3422 16.4318H5.83416V16.6867C5.83416 17.4077 5.83416 18.1371 5.83416 18.8499C5.84259 19.002 5.81954 19.1542 5.76649 19.2967C5.71345 19.4391 5.63159 19.5687 5.52623 19.6769C5.42086 19.7851 5.29433 19.8696 5.15484 19.9249C5.01536 19.9802 4.86601 20.005 4.71649 19.9978C3.90216 19.9978 3.07155 19.9978 2.25111 19.9978C2.09764 20.0077 1.94385 19.984 1.80014 19.9283C1.65644 19.8726 1.52615 19.7861 1.41808 19.6747C1.31002 19.5634 1.22669 19.4297 1.17372 19.2828C1.12075 19.1358 1.09939 18.979 1.11106 18.8229C1.11106 15.4828 1.11106 12.1427 1.11106 8.80464C1.11106 7.65258 1.65665 6.84034 2.68881 6.36792C2.76902 6.32993 2.84425 6.28191 2.91275 6.22495C3.02065 6.13585 3.10412 6.03018 3.0064 5.88513C2.90868 5.74009 2.82929 5.65721 2.64403 5.71523C2.2188 5.87073 1.75498 5.87874 1.32482 5.73802C1.0291 5.6283 0.761117 5.45291 0.540322 5.22461C0.319528 4.9963 0.15147 4.7208 0.0483572 4.41813C0.0177741 4.36242 0.00118386 4.29988 6.10549e-05 4.23608C-0.00106175 4.17227 0.0133172 4.10917 0.0419208 4.05238C0.0705243 3.99559 0.112467 3.94687 0.164022 3.91055C0.215577 3.87423 0.275148 3.85143 0.337443 3.84418C1.28206 3.63697 2.22261 3.59346 3.13873 4.00165C3.26655 4.05324 3.37492 4.1449 3.44813 4.26337C3.52133 4.38184 3.55558 4.52096 3.54589 4.66056C3.58468 4.89723 3.64535 5.12964 3.72708 5.35469ZM4.87732 5.31118L5.34149 5.27388C6.97014 5.13506 8.61508 4.91335 10.2539 4.87605C13.1041 4.80974 15.9542 4.85533 18.8044 4.85533C19.0324 4.85533 19.2604 4.85533 19.4884 4.8802L23.9367 5.28424C24.0425 5.2946 24.1402 5.28424 24.3194 5.28424C23.5987 4.37876 22.9391 3.50643 22.2306 2.67762C21.7579 2.14264 21.2556 1.63555 20.7262 1.15881C20.4384 0.908045 20.0661 0.780988 19.6879 0.804494C16.3593 0.804494 13.0308 0.821071 9.70018 0.804494C9.42415 0.787455 9.1477 0.830166 8.88908 0.929814C8.63045 1.02946 8.39552 1.18378 8.19978 1.38259C7.57274 2.03943 6.95793 2.71491 6.36754 3.40905C5.86266 4.00165 5.40256 4.63362 4.87732 5.31118ZM14.6269 11.4714H14.2848C12.4709 11.4714 10.659 11.4714 8.84513 11.4817C8.67137 11.5161 8.50428 11.5791 8.35043 11.6682C8.41868 11.8282 8.51297 11.9753 8.62933 12.1033C9.43482 12.763 10.4316 13.1337 11.4652 13.158C13.4685 13.158 15.4717 13.1414 17.4729 13.158C18.4714 13.1594 19.4485 12.8642 20.2844 12.3085C20.4505 12.204 20.6024 12.0779 20.7364 11.9334C20.9399 11.7262 20.885 11.5563 20.604 11.4983C20.427 11.4692 20.2478 11.4568 20.0686 11.461L14.6269 11.4714ZM14.6024 16.2163H19.2176C19.3719 16.2187 19.526 16.2056 19.6777 16.177C19.8548 16.1397 19.8956 16.0112 19.7917 15.862C19.7399 15.7879 19.6767 15.7228 19.6044 15.6693C19.0368 15.2161 18.3407 14.9611 17.6195 14.942C15.6183 14.942 13.6171 14.942 11.6159 14.942C10.8954 14.9551 10.1979 15.2019 9.62485 15.6465C9.54793 15.7057 9.47942 15.7754 9.42127 15.8537C9.30319 16.0153 9.34391 16.1376 9.53731 16.1811C9.68085 16.209 9.82687 16.2215 9.97297 16.2184L14.6024 16.2163ZM6.27593 11.4506C6.44613 11.46 6.61671 11.46 6.78692 11.4506C6.86632 11.4506 6.9905 11.3802 6.9905 11.3201C6.9905 11.26 6.94164 11.1502 6.8826 11.0922C6.79367 10.9951 6.68723 10.9163 6.56909 10.8601C5.655 10.4726 4.73685 10.0727 3.81869 9.72255C3.24052 9.51535 2.63588 9.36409 2.03939 9.2004C1.80934 9.13824 1.69941 9.23148 1.70144 9.45111C1.70144 9.9712 2.22465 10.6943 2.71935 10.8477C3.87827 11.1884 5.07143 11.3941 6.27593 11.461V11.4506ZM22.8943 11.4506C24.0386 11.3727 25.1737 11.1903 26.286 10.9057C27.0291 10.7254 27.3039 10.1763 27.4708 9.51535C27.536 9.25427 27.4098 9.13409 27.1492 9.19625C26.7515 9.28041 26.3586 9.38694 25.9725 9.51535C24.9342 9.89867 23.9041 10.3006 22.876 10.7109C22.6755 10.803 22.4884 10.923 22.3202 11.0673C22.284 11.096 22.2547 11.1328 22.2346 11.1748C22.2145 11.2169 22.2041 11.263 22.2042 11.3097C22.2205 11.374 22.3467 11.432 22.4322 11.4444C22.5856 11.4617 22.74 11.4686 22.8943 11.4651V11.4506ZM9.43348 7.53862L9.44977 7.6215H19.751L19.7632 7.53862C19.407 7.43635 19.0425 7.367 18.6741 7.33142C15.9596 7.31484 13.2405 7.31484 10.5165 7.33142C10.1503 7.36821 9.78788 7.43754 9.43348 7.53862ZM24.5637 14.3018L24.5779 14.1691C24.3642 14.0668 24.1438 13.9795 23.9183 13.9081C23.271 13.7741 22.6047 13.7643 21.9538 13.8791C21.6009 13.9352 21.2515 14.012 20.9074 14.1091C20.8178 14.1319 20.7506 14.2355 20.6732 14.2997C20.737 14.3876 20.8093 14.4689 20.889 14.5421C20.9532 14.5941 21.0312 14.6251 21.113 14.6312C21.4014 14.6557 21.6912 14.6606 21.9802 14.6457C22.7416 14.5794 23.501 14.4924 24.2604 14.4054C24.3648 14.3818 24.4664 14.3471 24.5637 14.3018ZM7.77022 14.7162C7.98489 14.6536 8.19508 14.5761 8.39929 14.4841C8.58047 14.395 8.56419 14.2541 8.383 14.1546C8.29672 14.1085 8.20506 14.0737 8.1102 14.051C7.36338 13.8449 6.58664 13.7748 5.81583 13.8438C5.48037 13.892 5.14989 13.9711 4.82846 14.08C4.75721 14.1008 4.70427 14.1961 4.64524 14.2582C4.72056 14.308 4.79385 14.395 4.87325 14.4033C5.80158 14.5027 6.73195 14.6022 7.77022 14.7141V14.7162Z" fill="white"/>
</svg>
