<svg width="20" height="20" viewBox="0 0 20 20" fill="none" xmlns="http://www.w3.org/2000/svg">
<path d="M19.2497 9H15.2361L18.3546 5.76L16.9975 4.34L12.5123 9H10.5873V7L15.0725 2.34L13.7058 0.93L10.5873 4.17V0H8.66237V4.17L5.54392 0.93L4.17719 2.34L8.66237 7V9H6.7374L2.25222 4.34L0.895112 5.76L4.01357 9H0V11H4.01357L0.895112 14.24L2.25222 15.66L6.7374 11H8.66237V13L4.17719 17.66L5.54392 19.07L8.66237 15.83V20H10.5873V15.83L13.7058 19.07L15.0725 17.66L10.5873 13V11H12.5123L16.9975 15.66L18.3546 14.24L15.2361 11H19.2497V9Z" fill="#248AB1"/>
</svg>
