<svg width="36" height="45" viewBox="0 0 36 45" fill="none" xmlns="http://www.w3.org/2000/svg">
<path fill-rule="evenodd" clip-rule="evenodd" d="M15.2226 0.0416087C13.1543 0.308889 10.5477 1.23453 8.54086 2.41451C6.65078 3.52579 4.87084 5.11331 3.54394 6.87116C1.81032 9.16795 0.74625 11.6042 0.172322 14.5907C0.00273725 15.4733 -0.00263297 15.5599 0.00054026 17.3546C0.00591034 20.3506 0.187028 21.4807 1.0463 23.8809C1.91327 26.3024 3.62193 29.153 5.72749 31.6905C7.38526 33.6885 10.5435 37.2542 13.6042 40.5837C14.6454 41.7164 15.9828 43.1737 16.5762 43.8223C17.1697 44.4708 17.6721 45.0008 17.6927 45C17.7427 44.9981 21.8016 40.2681 24.711 36.8213C30.13 30.4015 32.0059 27.8841 33.4393 25.1083C35.2601 21.5821 35.8472 18.2456 35.2634 14.7426C34.9081 12.6104 34.1676 10.5751 33.0423 8.63764C31.7442 6.40257 29.699 4.26725 27.4052 2.75195C25.4638 1.46955 22.79 0.431048 20.6538 0.12975C19.8547 0.0170068 15.9084 -0.0470189 15.2226 0.0416087Z" fill="#E30613"/>
<path d="M19.0303 12.9305H18.9877L18.9809 12.9725L18.5913 15.3864L18.5819 15.4443H18.6406H25.2405C22.7416 18.8672 20.2284 22.2894 17.7011 25.711L17.6422 25.7907H17.7413H21.5132H21.5392L21.5542 25.7693C24.0929 22.1375 26.6347 18.5125 29.1794 14.8946L29.1862 14.8849L29.188 14.8733L29.4734 12.988L29.4821 12.9305H29.424H19.0303ZM17.4689 12.9887L17.4786 12.9305H17.4196H9.1939H9.15523L9.14551 12.9679L7.43287 19.5644L7.41549 19.6314L7.4845 19.6269C7.53388 19.6237 7.58278 19.6205 7.63135 19.6173C8.18253 19.5812 8.69084 19.5479 9.36156 19.5479C10.831 19.5479 11.7832 19.7559 12.3773 20.0986C12.9672 20.439 13.207 20.914 13.249 21.4639C13.2968 22.1248 12.8937 22.6401 12.2599 22.9936C11.6259 23.3472 10.77 23.5327 9.93923 23.5327C8.65191 23.5327 7.40925 23.2197 6.78981 22.9136L6.73746 22.8878L6.71996 22.9435L6.01089 25.2013L5.99937 25.238L6.03186 25.2585C6.34897 25.4591 6.89992 25.6468 7.59817 25.7845C8.29786 25.9225 9.15007 26.0112 10.0729 26.0112C12.0121 26.0112 13.764 25.5582 15.0034 24.6992C16.2447 23.8388 16.9713 22.5711 16.8533 20.9512C16.8171 20.363 16.6216 19.7928 16.2849 19.2922C15.9483 18.7918 15.4814 18.377 14.9269 18.0849C13.9313 17.5092 12.563 17.2942 11.6859 17.2942L11.6852 17.2942C11.489 17.2966 11.2931 17.3073 11.098 17.3263L11.653 15.4485H17.0164H17.0587L17.0657 15.4067L17.4689 12.9887Z" fill="#F6F6F8" stroke="white" stroke-width="0.1"/>
</svg>
