<svg width="34" height="49" viewBox="0 0 34 49" fill="none" xmlns="http://www.w3.org/2000/svg">
<path d="M31.4813 30.92L31.5123 30.9359L31.5444 30.9496C32.3699 31.3023 33 32.1954 33 33.25C33 33.3069 32.9896 33.3961 32.9642 33.5792L32.9641 33.5797L31.2652 45.8685C31.265 45.8697 31.2649 45.8709 31.2647 45.872C31.0762 47.1496 30.1281 48 28.9907 48H13.6C12.957 48 12.3498 47.7246 11.9146 47.2765L1.38991 36.4423L2.50795 35.2768C2.50862 35.2761 2.5093 35.2754 2.50998 35.2747C2.79199 34.9854 3.17358 34.81 3.58133 34.81C3.60542 34.81 3.6355 34.8124 3.69803 34.8227C3.72161 34.8267 3.74053 34.8301 3.7647 34.8344C3.78 34.8371 3.7974 34.8403 3.81941 34.8441C3.85689 34.8507 3.90182 34.8583 3.95143 34.8655L11.6888 36.5374L12.9 36.7992V35.56V10.5C12.9 9.0881 13.9981 8 15.3 8C16.6019 8 17.7 9.0881 17.7 10.5V24.5V25.5H18.7H20.4227C20.6944 25.5 20.9601 25.5561 21.2256 25.6645L31.4813 30.92ZM8.63333 10.5V17.0435C7.06157 15.3415 6.1 13.0433 6.1 10.5C6.1 5.21476 10.2354 1 15.3 1C20.3646 1 24.5 5.21476 24.5 10.5C24.5 13.0433 23.5384 15.3415 21.9667 17.0435V10.5C21.9667 6.75524 19.0074 3.66667 15.3 3.66667C11.5926 3.66667 8.63333 6.75524 8.63333 10.5Z" stroke="#E30613" stroke-width="2"/>
</svg>
