<svg width="34" height="42" viewBox="0 0 34 42" fill="none" xmlns="http://www.w3.org/2000/svg">
<mask id="path-1-outside-1_2687_7639" maskUnits="userSpaceOnUse" x="0" y="0" width="34" height="42" fill="black">
<rect fill="white" width="34" height="42"/>
<path d="M28.6667 2H5.33333C3.5 2 2.01667 3.5 2.01667 5.33333L2 26.8833C2 28.0333 2.58333 29.05 3.46667 29.65L17 38.6667L30.5167 29.65C31.4 29.05 31.9833 28.0333 31.9833 26.8833L32 5.33333C32 3.5 30.5 2 28.6667 2ZM13.6667 27L5.33333 18.6667L7.68333 16.3167L13.6667 22.2833L26.3167 9.63333L28.6667 12L13.6667 27Z"/>
</mask>
<path d="M28.6667 2H5.33333C3.5 2 2.01667 3.5 2.01667 5.33333L2 26.8833C2 28.0333 2.58333 29.05 3.46667 29.65L17 38.6667L30.5167 29.65C31.4 29.05 31.9833 28.0333 31.9833 26.8833L32 5.33333C32 3.5 30.5 2 28.6667 2ZM13.6667 27L5.33333 18.6667L7.68333 16.3167L13.6667 22.2833L26.3167 9.63333L28.6667 12L13.6667 27Z" stroke="#E30613" stroke-width="4" mask="url(#path-1-outside-1_2687_7639)"/>
</svg>
