<svg width="20" height="21" viewBox="0 0 20 21" fill="none" xmlns="http://www.w3.org/2000/svg">
<path d="M15.4407 16.8C14.3084 16.8 13.3819 17.745 13.3819 18.9C13.3819 20.055 14.3084 21 15.4407 21C16.573 21 17.4995 20.055 17.4995 18.9C17.4995 17.745 16.573 16.8 15.4407 16.8Z" fill="#364352"/>
<path d="M5.1469 16.8C4.01458 16.8 3.08814 17.745 3.08814 18.9C3.08814 20.055 4.01458 21 5.1469 21C6.27922 21 7.20566 20.055 7.20566 18.9C7.20566 17.745 6.27922 16.8 5.1469 16.8Z" fill="#364352"/>
<path d="M6.38216 13.44V13.335L7.3086 11.55H14.926C15.7495 11.55 16.3672 11.13 16.7789 10.5L19.7641 4.935C20.2788 3.885 20.0729 1.995 17.9112 2.1H4.3234L3.39696 0H0V2.1H2.05876L5.76453 10.08L4.42634 12.6C4.22046 13.02 4.11752 13.44 4.11752 13.86C4.22046 14.91 5.24984 15.75 6.38216 15.75H18.5289V13.65H6.58804C6.4851 13.65 6.38216 13.545 6.38216 13.44ZM5.35278 4.2H17.9112L15.029 9.45H7.82329L7.61742 9.135L5.35278 4.2Z" fill="#364352"/>
</svg>
