<svg width="240" height="28" viewBox="0 0 240 28" fill="none" xmlns="http://www.w3.org/2000/svg">
<path fill-rule="evenodd" clip-rule="evenodd" d="M42.8975 6.28293C43.6449 3.74939 44.0171 2.46694 44.0139 2.43557C43.9928 2.20025 43.8494 2.09436 43.5815 2.09436H8.16258C8.00391 2.07753 7.84443 2.11777 7.71267 2.20787C7.58091 2.29797 7.48546 2.43206 7.44339 2.58616C2.47331 19.2024 -0.00781581 27.56 1.84946e-05 27.6588C0.0211711 27.8941 0.17629 28 0.470077 28H12.5106C12.9337 28 13.1734 27.8353 13.2298 27.5082L19.5074 6.6265H29.6795C29.2893 7.91131 28.8671 9.31455 28.4127 10.8362L27.0378 15.4625C26.5677 17.0219 26.1172 18.5326 25.6864 19.9946C25.2555 21.4567 24.8638 22.7533 24.5112 23.8844C24.1634 25.0154 23.8892 25.9277 23.6886 26.6211C23.4888 27.3129 23.3878 27.6588 23.3878 27.6588C23.4089 27.8941 23.5546 28 23.8202 28H33.3671C31.8958 27.9271 30.6267 26.7764 30.8593 25.2539V25.2186C31.0004 24.4891 31.2307 23.8067 31.4399 23.1008C32.9347 18.0227 34.4576 12.9541 35.9712 7.88542L35.9947 7.81483L36.2862 7.22654L36.3543 7.14654C36.5782 6.88141 36.8522 6.66311 37.1605 6.50413L37.2498 6.45471L37.8773 6.2947L42.8975 6.28293ZM54.287 17.8815C54.5221 17.8815 54.7689 17.8815 54.9921 17.8556C55.2 16.8169 55.5021 15.7992 55.8946 14.8154C56.1717 14.0984 56.5033 13.4038 56.8865 12.7376C57.6928 11.3138 58.731 10.0349 59.9583 8.95374C59.2453 8.58502 58.45 8.40518 57.648 8.43134H38.3991C38.2893 8.41764 38.1781 8.44317 38.0853 8.50343C37.9924 8.56369 37.9238 8.65482 37.8914 8.76078C34.5524 19.9272 32.8861 25.5425 32.8923 25.6069C32.9064 25.7598 33.0169 25.8422 33.2261 25.8422H41.2711C41.3813 25.8558 41.4926 25.8299 41.5855 25.7692C41.6784 25.7084 41.7469 25.6168 41.7788 25.5104L45.967 11.4292H50.5618C51.6821 11.4292 52.2783 11.8097 52.3504 12.5705C52.3562 12.759 52.3364 12.9474 52.2916 13.1306C52.2041 13.4097 52.0609 13.6682 51.8706 13.8903C51.6803 14.1123 51.4469 14.2934 51.1847 14.4224C50.6825 14.7057 50.1159 14.8548 49.5395 14.8554H46.6486C46.3501 14.8554 46.1785 14.966 46.1433 15.1848L45.4382 17.538C45.4296 17.572 45.4338 17.608 45.45 17.6392C45.4641 17.7921 45.5698 17.8745 45.7649 17.8745L54.287 17.8815ZM74.4055 12.7564C74.4525 13.2615 74.2959 14.1495 73.9355 15.4202L73.1129 18.1804C72.8967 18.8863 72.6828 19.5028 72.4713 20.0182C72.2952 20.4653 72.0773 20.8947 71.8202 21.3006C71.1433 22.3313 70.2816 22.8466 69.2349 22.8466H67.263C66.3229 22.8466 65.8082 22.3815 65.7189 21.4512C65.6515 20.7406 65.8458 19.6503 66.3017 18.1804L67.1337 15.4131C67.328 14.7699 67.5184 14.2208 67.7049 13.7659C67.8545 13.3846 68.041 13.0189 68.2619 12.674C68.5191 12.2773 68.8749 11.9542 69.2943 11.7364C69.7137 11.5186 70.1824 11.4136 70.6545 11.4316H72.6264C73.731 11.43 74.3256 11.8693 74.4102 12.7493L74.4055 12.7564ZM73.3032 25.8492C75.4702 25.8492 77.4766 24.9613 79.3223 23.1855C81.0364 21.525 82.2832 19.4415 82.9371 17.145C83.3015 15.997 83.4823 14.7986 83.473 13.5941H80.8406C78.9604 13.5941 78.0955 12.0152 78.5303 10.3868C78.6995 9.74204 78.8946 9.10905 79.0826 8.4737C78.8875 8.45723 78.6831 8.44782 78.4739 8.44782H66.9575C64.7639 8.44782 62.7489 9.3271 60.9125 11.0857C59.2027 12.7545 57.9644 14.8467 57.3236 17.1497C56.9064 18.4598 56.7413 19.8372 56.8371 21.2089C56.9797 22.7149 57.5171 23.882 58.4494 24.7103C59.2971 25.4727 60.4088 25.8539 61.7845 25.8539L73.3032 25.8492ZM95.9342 11.4363H98.0965C98.896 10.304 99.8574 9.29555 100.95 8.44311H81.6773C81.5675 8.42941 81.4564 8.45494 81.3635 8.5152C81.2707 8.57546 81.202 8.66659 81.1697 8.77255C80.6996 10.379 80.4646 11.1908 80.4646 11.208C80.4787 11.361 80.5915 11.4434 80.8007 11.4434H87.0525C84.2478 20.8826 82.847 25.61 82.8501 25.6257C82.8642 25.7786 82.9606 25.861 83.1392 25.861H91.2524C91.3593 25.8721 91.4666 25.8448 91.5553 25.784C91.644 25.7233 91.7082 25.633 91.7366 25.5292L95.9342 11.4363ZM117.851 14.8625H109.74C109.633 14.8513 109.526 14.8782 109.438 14.9385C109.349 14.9988 109.284 15.0886 109.256 15.1919C108.786 16.7983 108.551 17.6188 108.551 17.6533C108.565 17.8062 108.661 17.8886 108.84 17.8886H116.955C117.254 16.872 117.555 15.861 117.855 14.8554L117.851 14.8625ZM115.477 22.8631H107.949C106.918 22.8631 106.355 22.3729 106.261 21.3924C106.197 20.7147 106.387 19.6495 106.83 18.1968L107.641 15.4296C108.023 14.1087 108.428 13.1784 108.854 12.6387C109.139 12.2511 109.515 11.9395 109.948 11.7314C110.382 11.5234 110.86 11.4253 111.34 11.4457H118.88L119.778 8.45252H107.263C105.053 8.45252 103.039 9.33181 101.22 11.0904C99.5654 12.6701 98.3675 14.686 97.6264 17.1379C97.2046 18.4469 97.0449 19.8263 97.1564 21.1971C97.2974 22.6874 97.827 23.8546 98.7451 24.6986C99.5944 25.461 100.706 25.8422 102.08 25.8422H114.894L114.812 25.3857L114.842 25.2186C114.96 24.5974 115.153 24.0067 115.326 23.4067L115.477 22.8631ZM144.068 25.8586C144.32 25.8586 144.477 25.7951 144.538 25.6704L144.479 25.3386C144.009 24.6217 141.576 21.099 137.179 14.7707L142.35 11.9799L142.247 11.7304L142.124 11.0645L142.143 10.9186C142.166 10.7055 142.207 10.4947 142.263 10.288L142.799 8.45252H142.301C142.208 8.45405 142.117 8.48003 142.038 8.52782L130.401 14.7942C130.347 14.8166 130.299 14.8513 130.261 14.8953C130.223 14.9394 130.195 14.9918 130.18 15.0484L129.55 17.1309L129.588 17.3074L135.229 25.7316C135.26 25.7762 135.303 25.8115 135.352 25.8338C135.402 25.8562 135.457 25.8648 135.511 25.8586H144.068ZM125.266 25.8586C125.548 25.8586 125.71 25.748 125.748 25.5269C129.093 14.3526 130.766 8.73176 130.766 8.6643C130.751 8.51135 130.655 8.42899 130.476 8.42899H122.354C122.247 8.4178 122.14 8.44475 122.052 8.50505C121.963 8.56535 121.899 8.65512 121.87 8.75843C118.531 19.9248 116.864 25.5402 116.868 25.6045C116.882 25.7575 116.988 25.8398 117.181 25.8398L125.266 25.8586ZM159.632 11.4457H161.832C162.109 11.0567 162.405 10.6825 162.72 10.3233C163.321 9.63552 163.989 9.0089 164.713 8.45252H145.391C145.282 8.43941 145.171 8.46521 145.079 8.52543C144.987 8.58565 144.918 8.67644 144.886 8.78196C144.416 10.3884 144.181 11.2002 144.181 11.2175C144.197 11.3704 144.308 11.4528 144.517 11.4528H150.769C147.967 20.892 146.567 25.6194 146.567 25.6351C146.583 25.7881 146.677 25.8704 146.858 25.8704H154.974C155.08 25.882 155.188 25.8549 155.277 25.7941C155.366 25.7332 155.43 25.6426 155.458 25.5386L159.632 11.4457ZM178.514 12.7658C178.563 13.271 178.406 14.1589 178.044 15.4296L177.212 18.1968C176.996 18.9028 176.782 19.5193 176.568 20.0346C176.392 20.4813 176.175 20.9106 175.919 21.3171C175.241 22.3478 174.379 22.8631 173.334 22.8631H171.362C170.422 22.8631 169.907 22.398 169.818 21.4677C169.749 20.7571 169.943 19.6668 170.401 18.1968L171.235 15.4296C171.428 14.7864 171.618 14.2373 171.806 13.7824C171.956 13.4011 172.142 13.0354 172.363 12.6905C172.62 12.2936 172.975 11.9704 173.394 11.7525C173.813 11.5347 174.282 11.4298 174.754 11.4481H176.725C177.841 11.4355 178.44 11.8693 178.521 12.7493L178.514 12.7658ZM177.412 25.8586C178.86 25.8537 180.279 25.4464 181.511 24.6821C181.616 24.2562 181.746 23.8397 181.873 23.4184C183.226 18.8063 184.608 14.2059 185.986 9.60556L185.941 9.5632C185.076 8.81961 183.957 8.44782 182.585 8.44782H171.068C168.875 8.44782 166.86 9.3271 165.023 11.0857C163.314 12.7545 162.075 14.8467 161.434 17.1497C161.018 18.46 160.853 19.8372 160.948 21.2089C161.092 22.7149 161.63 23.882 162.56 24.7103C163.411 25.4727 164.524 25.8539 165.898 25.8539L177.412 25.8586ZM229.217 0.0165383L228.813 2.74617H235.732V2.79088C233.129 6.67669 230.512 10.5617 227.88 14.446H231.793C234.427 10.339 237.064 6.2398 239.704 2.14848L240 0.0165383H229.217ZM227.546 0.0165383H219.012L217.235 7.47597C217.867 7.43126 218.427 7.38655 219.186 7.38655C222.241 7.38655 223.181 8.3278 223.271 9.60556C223.374 11.161 221.522 12.0058 219.785 12.0058C218.443 12.0058 217.146 11.6504 216.495 11.2998L215.759 13.853C216.401 14.2954 218.015 14.6954 219.924 14.6954C223.933 14.6954 227.149 12.6529 226.907 9.03375C226.87 8.37884 226.67 7.74353 226.326 7.18549C225.981 6.62745 225.503 6.16434 224.935 5.83819C223.912 5.19344 222.502 4.95106 221.597 4.95106C221.369 4.95414 221.142 4.96906 220.916 4.99577L221.524 2.75089H227.127L227.546 0.0165383ZM182.42 0.0353674L180.989 5.19579H182.973L183.539 3.14857H185.548L184.98 5.19579H186.963L188.395 0.0353674H186.411L185.894 1.90376H183.884L184.404 0.0353674H182.42ZM161.237 0.0753666L159.806 5.23579H162.217C162.885 4.43337 163.627 3.52742 164.22 2.81442C164.61 2.34379 164.864 1.99082 165.268 1.43077H165.315C164.948 2.51792 164.795 2.8756 164.579 3.65684L164.14 5.21932H166.02L167.451 0.0612484H165.023L163.171 2.28261C162.786 2.75323 162.494 3.16974 162.031 3.76273H161.982C162.217 3.05679 162.44 2.48733 162.668 1.66373L163.108 0.0800775L161.237 0.0753666ZM141.191 3.10385H142.143C142.992 3.10385 143.474 3.26387 143.365 3.67802C143.29 3.9651 142.832 4.231 141.986 4.231C141.393 4.23425 140.805 4.11489 140.261 3.88039L139.567 4.87341C140.301 5.22014 141.107 5.3871 141.918 5.36051C143.208 5.36051 145.175 5.0146 145.518 3.75567C145.725 2.99561 144.971 2.63087 144.195 2.55793L144.207 2.51792C144.865 2.39791 145.711 2.04729 145.892 1.37195C146.176 0.324801 144.865 7.18427e-05 143.706 7.18427e-05C142.766 -0.00415522 141.833 0.178191 140.963 0.536586L141.086 1.46372C141.63 1.23619 142.212 1.11249 142.801 1.09898C143.506 1.09898 143.819 1.31547 143.741 1.60255C143.664 1.88964 143.189 2.12024 142.397 2.1226H141.445L141.191 3.10385ZM123.329 3.41682C123.302 3.51285 123.263 3.60528 123.214 3.69214C123.073 3.87544 122.892 4.0241 122.684 4.12684C122.477 4.22959 122.249 4.28372 122.018 4.28513C121.578 4.28513 121.299 4.07805 121.407 3.67566C121.566 3.07326 122.441 2.86148 123.482 2.85677L123.329 3.41682ZM125.571 2.24025C125.91 1.01662 125.522 0.0141901 123.4 0.0141901C122.509 0.00945977 121.626 0.168998 120.793 0.484817L120.871 1.51784C121.463 1.26716 122.097 1.13217 122.739 1.12016C123.719 1.12016 123.787 1.5249 123.715 1.79316L123.696 1.85434C121.44 1.85434 119.769 2.50851 119.407 3.84038C119.183 4.65456 119.738 5.41698 121.026 5.41698C121.746 5.42997 122.449 5.20501 123.028 4.77693H123.068L123.042 5.29462H124.829C124.859 4.87206 124.938 4.45439 125.064 4.04981L125.571 2.24025ZM101.229 0.178905L99.7981 5.33933H101.779L102.868 1.42371H105.331L105.676 0.178905H101.229ZM83.5247 3.48506C83.4991 3.58168 83.4603 3.67431 83.4095 3.76037C83.2688 3.94393 83.0881 4.09295 82.8812 4.19611C82.6743 4.29927 82.4467 4.35385 82.2156 4.35572C81.7737 4.35572 81.494 4.15099 81.6021 3.74626C81.7667 3.13915 82.6363 2.92972 83.6798 2.92737L83.5247 3.48506ZM85.7668 2.30849C86.1076 1.08487 85.7198 0.0800775 83.5975 0.0800775C82.7066 0.0768676 81.8225 0.236352 80.9887 0.550704L81.0686 1.58373C81.6606 1.33391 82.2948 1.19973 82.9371 1.1884C83.9148 1.1884 83.9853 1.58608 83.9101 1.85905L83.8937 1.92258C81.6374 1.92258 79.9687 2.5744 79.602 3.90862C79.367 4.72516 79.9358 5.48287 81.2237 5.48287C81.9429 5.49514 82.6462 5.27115 83.2262 4.84517H83.2638L83.2403 5.36051H85.0265C85.0578 4.93804 85.1367 4.52046 85.2615 4.1157L85.7668 2.30849ZM56.4587 5.42169H58.2332L58.9007 3.38388C59.044 2.9509 59.2626 2.22378 59.4671 1.57902H59.5211C59.5211 2.06377 59.5211 2.80971 59.5681 3.2874L59.7562 5.33227H61.204L62.6353 3.23092C63.1994 2.40026 63.2769 2.22613 63.7164 1.54137H63.754C63.5989 2.15554 63.4179 2.90854 63.3192 3.34623L62.8421 5.40286H64.6824L65.7283 0.225971H63.2252L62.0125 2.06377C61.6905 2.54851 61.3238 3.12974 61.1099 3.47565H61.07C61.07 3.00502 61.0371 2.48498 61.0136 2.17907L60.8655 0.228326H58.3342L56.4587 5.42169ZM204.83 17.8745C207.337 17.8745 209.319 16.9528 210.774 15.1095C211.738 13.9267 212.156 12.6717 212.029 11.3445C212.001 10.8767 211.86 10.4227 211.619 10.0209C211.378 9.61907 211.044 9.28128 210.645 9.0361C209.9 8.6055 209.048 8.39424 208.189 8.42664H188.938C188.828 8.41352 188.718 8.43933 188.625 8.49954C188.533 8.55976 188.465 8.65056 188.432 8.75608C185.085 19.9288 183.418 25.5473 183.431 25.6116C183.445 25.7645 183.558 25.8469 183.767 25.8469H191.812C191.922 25.8599 192.033 25.8337 192.125 25.7731C192.217 25.7124 192.285 25.621 192.317 25.5151L196.508 11.4339H201.1C202.221 11.4339 202.818 11.8144 202.891 12.5752C202.907 12.967 202.803 13.3543 202.593 13.6852C202.383 14.0162 202.077 14.275 201.716 14.4271C201.214 14.7108 200.647 14.8599 200.071 14.8601H197.192C196.893 14.8601 196.722 14.9707 196.686 15.1895L195.981 17.5427C195.967 17.5591 195.965 17.5921 195.981 17.6439C195.995 17.7968 196.099 17.8792 196.294 17.8792L204.83 17.8745Z" fill="#F6F6F8"/>
</svg>
