<svg width="8" height="13" viewBox="0 0 8 13" fill="none" xmlns="http://www.w3.org/2000/svg">
<path d="M0.282715 1.69284L4.86271 6.28284L0.282715 10.8728L1.69272 12.2828L7.69271 6.28284L1.69271 0.282843L0.282715 1.69284Z" fill="#1D3A49"/>
<path fill-rule="evenodd" clip-rule="evenodd" d="M0.141357 1.69276L1.6927 0.141418L7.83412 6.28284L1.6927 12.4243L0.141358 10.8729L4.72143 6.28284L0.141357 1.69276ZM4.86271 6.28284L0.282715 10.8728L1.69272 12.2828L7.69271 6.28284L1.69271 0.282843L0.282715 1.69284L4.86271 6.28284Z" fill="#1D3A49"/>
<path fill-rule="evenodd" clip-rule="evenodd" d="M1.6927 12.4243L0.141358 10.8729L4.72143 6.28284L0.141357 1.69276L1.6927 0.141418L7.83412 6.28284L1.6927 12.4243ZM4.58015 6.28284L3.8743e-07 10.873L1.69269 12.5657L7.97553 6.28284L1.69269 0L0 1.69269L4.58015 6.28284Z" fill="#1D3A49"/>
</svg>
