<svg width="36" height="36" viewBox="0 0 36 36" fill="none" xmlns="http://www.w3.org/2000/svg">
<path d="M34.7267 5.78561C36.0338 9.61171 32.425 13.8629 28.7309 12.8993C26.7986 12.3892 25.7472 12.9843 24.5253 14.2597C20.9165 18.0008 17.2224 21.6568 13.4715 25.2846C12.5906 26.1348 12.3633 26.8717 12.7043 28.0904C13.8693 32.1999 10.2036 35.7993 5.60024 34.8073C6.5948 33.787 7.44728 32.9084 8.3566 32.0582C9.18066 31.2646 9.9479 30.5277 9.26591 29.2524C8.49868 27.807 7.44729 26.6733 5.74232 26.5316C5.28767 26.5032 4.71934 26.9567 4.34994 27.3535C3.41221 28.3171 2.53131 29.3657 1.622 30.386C1.42308 30.301 1.22417 30.1876 1.02526 30.1026C1.02526 29.5074 0.968427 28.8839 1.02526 28.3171C1.56516 24.2359 4.49202 22.2804 8.41343 23.4424C9.26591 23.6974 9.7774 23.5557 10.3741 22.9322C14.4376 18.8227 18.5011 14.7415 22.6215 10.717C23.4171 9.92347 23.6444 9.27161 23.3034 8.13795C22.1384 4.19848 25.4631 0.514089 29.6118 1.05258C29.7823 1.08092 29.9244 1.19429 30.3222 1.39268C29.2708 2.44131 28.3899 3.46161 27.3669 4.34019C26.2019 5.33214 26.2871 6.38078 27.0828 7.45776C27.5659 8.08127 28.1626 8.67644 28.7877 9.1299C29.7823 9.83844 30.7769 9.83845 31.6862 8.81815C32.6239 7.76952 33.6753 6.83425 34.7267 5.78561Z" stroke="#E30613" stroke-width="2"/>
<path d="M34.8688 31.378C34.8688 34.1271 32.3966 35.7709 30.3222 34.6372C28.7877 33.787 27.3101 32.625 26.145 31.3213C24.0423 28.969 22.1952 26.3899 20.2345 23.9242C19.9788 23.6124 19.6662 23.3007 19.2968 23.1023C17.9896 22.4504 17.9328 22.167 18.9558 21.1184C19.7514 20.2965 20.5187 19.4462 21.3996 18.766C21.6837 18.5393 22.6499 18.6527 22.7635 18.8794C23.6444 20.7783 25.4915 21.6568 26.9407 22.9322C29.2708 24.9728 31.6009 27.0134 33.789 29.1957C34.4141 29.8475 34.6414 30.9245 34.8688 31.378Z" stroke="#E30613" stroke-width="2"/>
<path d="M16.7962 15.11C16.1994 15.7335 15.6595 16.272 14.9775 16.9522C12.0223 13.9763 9.067 10.9721 6.08331 8.02459C5.68549 7.62781 5.25925 7.08932 4.77618 6.97596C2.84389 6.60752 2.50289 5.07708 2.04824 3.57498C1.76408 2.58303 2.38923 1.87449 3.35537 2.1579C4.83301 2.58303 6.39589 2.92312 6.82213 4.79366C6.9358 5.24712 7.39045 5.6439 7.73145 6.01234C10.4594 8.76146 13.1873 11.4822 15.9437 14.2314C16.2847 14.5431 16.5688 14.8549 16.7962 15.11Z" stroke="#E30613" stroke-width="2"/>
</svg>
