<svg width="257" height="30" viewBox="0 0 257 30" fill="none" xmlns="http://www.w3.org/2000/svg">
<path fill-rule="evenodd" clip-rule="evenodd" d="M45.9361 6.73171C46.7364 4.01721 47.1349 2.64315 47.1316 2.60953C47.1089 2.35741 46.9554 2.24396 46.6685 2.24396H8.74077C8.57085 2.22593 8.40008 2.26904 8.25899 2.36558C8.11789 2.46211 8.01568 2.60578 7.97063 2.77089C2.6485 20.574 -0.00836943 29.5285 1.98046e-05 29.6344C0.0226707 29.8865 0.188778 30 0.503374 30H13.3968C13.8498 30 14.1065 29.8235 14.1669 29.4731L20.8892 7.09982H31.7818C31.364 8.4764 30.9118 9.97988 30.4253 11.6103L28.9529 16.567C28.4496 18.2377 27.9672 19.8563 27.5058 21.4228C27.0444 22.9893 26.6249 24.3785 26.2474 25.5904C25.8749 26.8023 25.5813 27.7797 25.3665 28.5226C25.1526 29.2638 25.0444 29.6344 25.0444 29.6344C25.067 29.8865 25.2231 30 25.5075 30H35.7306C34.1551 29.9218 32.7961 28.689 33.0452 27.0577V27.0199C33.1962 26.2383 33.4429 25.5072 33.6669 24.7508C35.2675 19.31 36.8984 13.8794 38.5192 8.44866L38.5444 8.37303L38.8564 7.74272L38.9294 7.657C39.1692 7.37294 39.4625 7.13905 39.7927 6.96871L39.8883 6.91576L40.5603 6.74432L45.9361 6.73171ZM58.1324 19.1588C58.3841 19.1588 58.6483 19.1588 58.8874 19.1311C59.11 18.0181 59.4335 16.9277 59.8538 15.8736C60.1505 15.1054 60.5056 14.3612 60.9159 13.6474C61.7793 12.1219 62.8911 10.7517 64.2053 9.59329C63.4419 9.19824 62.5902 9.00555 61.7314 9.03358H41.119C41.0014 9.0189 40.8824 9.04625 40.783 9.11082C40.6835 9.17538 40.61 9.27303 40.5754 9.38655C36.9999 21.3506 35.2155 27.367 35.2222 27.4359C35.2373 27.5998 35.3556 27.688 35.5796 27.688H44.1945C44.3124 27.7026 44.4317 27.6749 44.5312 27.6098C44.6307 27.5448 44.704 27.4466 44.7381 27.3326L49.223 12.2456H54.1433C55.343 12.2456 55.9814 12.6532 56.0586 13.4684C56.0648 13.6703 56.0436 13.8722 55.9956 14.0684C55.9019 14.3676 55.7485 14.6445 55.5448 14.8824C55.341 15.1203 55.0911 15.3143 54.8102 15.4526C54.2725 15.7561 53.6658 15.9159 53.0485 15.9165H49.9529C49.6332 15.9165 49.4495 16.035 49.4118 16.2695L48.6567 18.7907C48.6476 18.8271 48.652 18.8657 48.6693 18.8991C48.6844 19.063 48.7977 19.1512 49.0066 19.1512L58.1324 19.1588ZM79.6759 13.6676C79.7263 14.2088 79.5585 15.1601 79.1726 16.5216L78.2917 19.479C78.0602 20.2353 77.8311 20.8959 77.6046 21.448C77.4162 21.9271 77.1827 22.3872 76.9075 22.8221C76.1826 23.9264 75.2598 24.4785 74.139 24.4785H72.0275C71.0208 24.4785 70.4696 23.9802 70.3739 22.9835C70.3018 22.2221 70.5099 21.0539 70.9981 19.479L71.889 16.514C72.0971 15.8249 72.301 15.2366 72.5006 14.7492C72.6608 14.3406 72.8606 13.9488 73.0971 13.5793C73.3726 13.1542 73.7535 12.8081 74.2026 12.5747C74.6517 12.3414 75.1536 12.2288 75.6592 12.2481H77.7707C78.9536 12.2464 79.5904 12.7171 79.681 13.66L79.6759 13.6676ZM78.4956 27.6956C80.816 27.6956 82.9645 26.7443 84.941 24.8416C86.7765 23.0625 88.1116 20.8302 88.8118 18.3696C89.202 17.1397 89.3956 15.8557 89.3856 14.5651H86.5668C84.5534 14.5651 83.6273 12.8734 84.0929 11.1287C84.2741 10.4379 84.483 9.75969 84.6843 9.07896C84.4754 9.06131 84.2564 9.05123 84.0325 9.05123H71.7003C69.3513 9.05123 67.1936 9.99332 65.2271 11.8775C63.3962 13.6655 62.0702 15.9071 61.384 18.3747C60.9373 19.7783 60.7605 21.2541 60.8631 22.7238C61.0158 24.3374 61.5913 25.5879 62.5896 26.4753C63.4973 27.2922 64.6877 27.7007 66.1609 27.7007L78.4956 27.6956ZM102.73 12.2532H105.045C105.901 11.04 106.931 9.95952 108.1 9.04619H87.4628C87.3452 9.03151 87.2262 9.05886 87.1268 9.12343C87.0273 9.18799 86.9538 9.28564 86.9192 9.39916C86.4158 11.1203 86.1642 11.9901 86.1642 12.0086C86.1793 12.1725 86.3001 12.2607 86.5241 12.2607H93.2187C90.2153 22.3742 88.7153 27.4393 88.7187 27.4561C88.7338 27.62 88.837 27.7082 89.0282 27.7082H97.7161C97.8306 27.7201 97.9455 27.6908 98.0405 27.6257C98.1354 27.5606 98.2042 27.4639 98.2346 27.3527L102.73 12.2532ZM126.198 15.9241H117.513C117.399 15.9121 117.284 15.9409 117.189 16.0056C117.094 16.0702 117.025 16.1663 116.995 16.277C116.491 17.9982 116.24 18.8772 116.24 18.9142C116.255 19.0781 116.358 19.1663 116.549 19.1663H125.24C125.56 18.0772 125.881 16.9939 126.203 15.9165L126.198 15.9241ZM123.656 24.4962H115.595C114.491 24.4962 113.889 23.9709 113.788 22.9204C113.719 22.1943 113.922 21.053 114.397 19.4966L115.266 16.5317C115.675 15.1164 116.108 14.1197 116.564 13.5415C116.869 13.1261 117.272 12.7923 117.736 12.5694C118.201 12.3465 118.713 12.2414 119.227 12.2633H127.301L128.262 9.05627H114.86C112.495 9.05627 110.338 9.99837 108.39 11.8826C106.618 13.5751 105.335 15.735 104.542 18.3621C104.09 19.7645 103.919 21.2424 104.038 22.7112C104.189 24.3079 104.756 25.5585 105.74 26.4627C106.649 27.2796 107.839 27.688 109.311 27.688H123.032L122.944 27.1989L122.977 27.0199C123.103 26.3543 123.309 25.7215 123.495 25.0786L123.656 24.4962ZM154.273 27.7057C154.542 27.7057 154.711 27.6376 154.776 27.504L154.713 27.1485C154.21 26.3804 151.604 22.6061 146.896 15.8257L152.433 12.8356L152.322 12.5683L152.192 11.8548L152.212 11.6985C152.237 11.4702 152.279 11.2443 152.34 11.0228L152.914 9.05627H152.38C152.281 9.05791 152.184 9.08574 152.099 9.13695L139.638 15.8509C139.58 15.875 139.529 15.9121 139.488 15.9593C139.447 16.0065 139.417 16.0626 139.401 16.1232L138.727 18.3545L138.767 18.5436L144.807 27.5696C144.841 27.6173 144.887 27.6551 144.94 27.6791C144.993 27.7031 145.052 27.7122 145.109 27.7057H154.273ZM134.139 27.7057C134.441 27.7057 134.615 27.5872 134.655 27.3502C138.237 15.3778 140.028 9.35546 140.028 9.28318C140.013 9.1193 139.91 9.03106 139.719 9.03106H131.021C130.906 9.01908 130.792 9.04795 130.697 9.11256C130.602 9.17716 130.533 9.27334 130.502 9.38404C126.927 21.348 125.141 27.3645 125.146 27.4334C125.162 27.5973 125.275 27.6855 125.481 27.6855L134.139 27.7057ZM170.939 12.2633H173.295C173.592 11.8464 173.909 11.4455 174.246 11.0606C174.89 10.3238 175.605 9.65239 176.38 9.05627H155.69C155.573 9.04222 155.454 9.06987 155.355 9.13439C155.257 9.19891 155.183 9.29619 155.149 9.40924C154.645 11.1304 154.394 12.0002 154.394 12.0187C154.411 12.1826 154.53 12.2708 154.754 12.2708H161.448C158.448 22.3843 156.948 27.4494 156.948 27.4662C156.966 27.6301 157.067 27.7183 157.26 27.7183H165.951C166.065 27.7307 166.181 27.7017 166.276 27.6365C166.371 27.5713 166.439 27.4742 166.469 27.3628L170.939 12.2633ZM191.159 13.6777C191.211 14.2189 191.043 15.1702 190.655 16.5317L189.764 19.4966C189.533 20.253 189.304 20.9135 189.075 21.4657C188.886 21.9442 188.654 22.4042 188.38 22.8398C187.654 23.944 186.731 24.4962 185.612 24.4962H183.5C182.494 24.4962 181.942 23.9978 181.847 23.0011C181.773 22.2397 181.981 21.0715 182.471 19.4966L183.364 16.5317C183.571 15.8425 183.775 15.2543 183.976 14.7668C184.136 14.3583 184.336 13.9665 184.572 13.597C184.847 13.1717 185.228 12.8254 185.676 12.592C186.125 12.3586 186.627 12.2462 187.132 12.2658H189.243C190.438 12.2523 191.079 12.7171 191.166 13.66L191.159 13.6777ZM189.978 27.7057C191.53 27.7004 193.049 27.264 194.368 26.4451C194.481 25.9887 194.619 25.5425 194.755 25.0912C196.205 20.1496 197.685 15.2206 199.16 10.2917L199.112 10.2463C198.186 9.44958 196.988 9.05123 195.518 9.05123H183.186C180.837 9.05123 178.679 9.99332 176.713 11.8775C174.882 13.6655 173.556 15.9071 172.869 18.3747C172.424 19.7786 172.247 21.2542 172.348 22.7238C172.503 24.3374 173.078 25.5879 174.075 26.4753C174.986 27.2922 176.177 27.7007 177.649 27.7007L189.978 27.7057ZM245.453 0.0177196L245.02 2.94233H252.43V2.99023C249.643 7.1536 246.84 11.3161 244.021 15.4778H248.211C251.032 11.0774 253.856 6.6855 256.683 2.30195L257 0.0177196H245.453ZM243.664 0.0177196H234.525L232.623 8.00997C233.3 7.96207 233.899 7.91416 234.711 7.91416C237.983 7.91416 238.99 8.92265 239.086 10.2917C239.196 11.9582 237.213 12.8633 235.353 12.8633C233.916 12.8633 232.527 12.4826 231.83 12.1069L231.042 14.8425C231.729 15.3165 233.458 15.7451 235.502 15.7451C239.795 15.7451 243.238 13.5566 242.979 9.67901C242.939 8.97732 242.726 8.29664 242.357 7.69874C241.988 7.10084 241.476 6.60465 240.867 6.25521C239.773 5.5644 238.263 5.30471 237.294 5.30471C237.05 5.30801 236.806 5.324 236.564 5.35261L237.216 2.94738H243.216L243.664 0.0177196ZM195.342 0.0378936L193.809 5.56691H195.933L196.54 3.37346H198.691L198.082 5.56691H200.207L201.739 0.0378936H199.615L199.061 2.03974H196.91L197.466 0.0378936H195.342ZM172.658 0.08075L171.125 5.60978H173.707C174.422 4.75004 175.218 3.77937 175.852 3.01545C176.27 2.5112 176.541 2.13302 176.974 1.53297H177.025C176.632 2.69777 176.468 3.08099 176.237 3.91804L175.766 5.59213H177.78L179.312 0.0656233H176.713L174.729 2.44565C174.317 2.94989 174.004 3.39615 173.509 4.0315H173.456C173.707 3.27513 173.947 2.66499 174.191 1.78257L174.661 0.0857973L172.658 0.08075ZM151.192 3.32556H152.212C153.12 3.32556 153.636 3.497 153.52 3.94074C153.44 4.24832 152.949 4.53321 152.043 4.53321C151.408 4.5367 150.779 4.40881 150.196 4.15756L149.453 5.22151C150.239 5.593 151.102 5.77189 151.97 5.7434C153.352 5.7434 155.458 5.37278 155.826 4.02393C156.047 3.20958 155.239 2.81879 154.409 2.74064L154.421 2.69777C155.126 2.56919 156.032 2.19353 156.226 1.46994C156.531 0.348001 155.126 7.69743e-05 153.885 7.69743e-05C152.878 -0.00445202 151.88 0.190919 150.948 0.574913L151.079 1.56827C151.662 1.32449 152.285 1.19195 152.916 1.17748C153.671 1.17748 154.006 1.40943 153.923 1.71702C153.84 2.02461 153.332 2.27169 152.484 2.27421H151.464L151.192 3.32556ZM132.065 3.66088C132.036 3.76377 131.994 3.8628 131.942 3.95586C131.79 4.15226 131.596 4.31153 131.374 4.42162C131.152 4.5317 130.908 4.5897 130.661 4.59121C130.19 4.59121 129.891 4.36934 130.006 3.93821C130.177 3.29278 131.114 3.06587 132.229 3.06083L132.065 3.66088ZM134.466 2.40027C134.828 1.08924 134.413 0.0152036 132.141 0.0152036C131.187 0.0101355 130.241 0.181069 129.349 0.519446L129.432 1.62626C130.066 1.35767 130.745 1.21304 131.433 1.20017C132.483 1.20017 132.556 1.63382 132.478 1.92124L132.458 1.98679C130.042 1.98679 128.252 2.68769 127.865 4.11469C127.625 4.98703 128.219 5.80391 129.599 5.80391C130.369 5.81783 131.123 5.57679 131.743 5.11814H131.786L131.758 5.67281H133.671C133.703 5.22006 133.788 4.77256 133.922 4.33908L134.466 2.40027ZM108.4 0.191684L106.867 5.72071H108.989L110.154 1.52541H112.792L113.162 0.191684H108.4ZM89.441 3.73399C89.4136 3.83751 89.3721 3.93676 89.3177 4.02897C89.167 4.22564 88.9735 4.3853 88.752 4.49583C88.5304 4.60636 88.2866 4.66484 88.0392 4.66684C87.566 4.66684 87.2665 4.44749 87.3823 4.01384C87.5585 3.36337 88.4897 3.13899 89.6071 3.13647L89.441 3.73399ZM91.842 2.47339C92.2069 1.16236 91.7917 0.0857973 89.519 0.0857973C88.565 0.0823581 87.6183 0.253234 86.7254 0.59004L86.811 1.69685C87.4449 1.42919 88.124 1.28542 88.8118 1.27329C89.8588 1.27329 89.9343 1.69937 89.8537 1.99183L89.8361 2.0599C87.42 2.0599 85.6331 2.75828 85.2405 4.18781C84.9888 5.06267 85.5979 5.8745 86.9771 5.8745C87.7472 5.88765 88.5004 5.64766 89.1214 5.19126H89.1616L89.1365 5.7434H91.0492C91.0827 5.29076 91.1672 4.84335 91.3009 4.40968L91.842 2.47339ZM60.4579 5.80895H62.358L63.0728 3.62558C63.2263 3.16168 63.4604 2.38262 63.6793 1.69181H63.7372C63.7372 2.21118 63.7372 3.01041 63.7876 3.52221L63.9889 5.71315H65.5392L67.0719 3.4617C67.676 2.57171 67.759 2.38514 68.2297 1.65147H68.2699C68.1038 2.30951 67.91 3.1163 67.8043 3.58524L67.2934 5.78878H69.2641L70.384 0.242111H67.7037L66.405 2.21118C66.0602 2.73055 65.6676 3.35329 65.4386 3.72391H65.3958C65.3958 3.21966 65.3605 2.66247 65.3354 2.33472L65.1768 0.244635H62.4663L60.4579 5.80895ZM219.339 19.1512C222.024 19.1512 224.145 18.1637 225.704 16.1888C226.736 14.9215 227.184 13.5768 227.048 12.1548C227.017 11.6536 226.867 11.1672 226.609 10.7367C226.35 10.3061 225.993 9.94423 225.566 9.68154C224.768 9.22018 223.856 8.99383 222.936 9.02854H202.321C202.203 9.01449 202.085 9.04214 201.986 9.10665C201.887 9.17117 201.814 9.26846 201.78 9.38151C198.196 21.3522 196.41 27.3721 196.424 27.441C196.439 27.6048 196.56 27.6931 196.784 27.6931H205.399C205.516 27.707 205.635 27.679 205.734 27.614C205.833 27.549 205.906 27.4511 205.94 27.3376L210.427 12.2507H215.345C216.545 12.2507 217.184 12.6583 217.263 13.4734C217.28 13.8932 217.168 14.3081 216.943 14.6627C216.718 15.0173 216.391 15.2947 216.004 15.4576C215.467 15.7616 214.86 15.9214 214.243 15.9215H211.16C210.84 15.9215 210.656 16.04 210.618 16.2745L209.863 18.7957C209.848 18.8134 209.846 18.8487 209.863 18.9041C209.878 19.068 209.989 19.1563 210.198 19.1563L219.339 19.1512Z" fill="#E30613"/>
</svg>
