<svg width="36" height="49" viewBox="0 0 36 49" fill="none" xmlns="http://www.w3.org/2000/svg">
<path fill-rule="evenodd" clip-rule="evenodd" d="M23.0004 36.0004C25.2095 36.0004 27.0004 34.2095 27.0004 32.0004C27.0004 31.2718 26.8056 30.5887 26.4653 30.0004C25.7736 28.8048 24.481 28.0004 23.0004 28.0004C21.5198 28.0004 20.2271 28.8048 19.5355 30.0004C19.5137 30.0382 19.4924 30.0763 19.4718 30.1149C19.171 30.6766 19.0004 31.3186 19.0004 32.0004C19.0004 32.0883 19.0032 32.1756 19.0088 32.2622C19.1437 34.3493 20.8792 36.0004 23.0004 36.0004ZM23.0004 38.0004C24.5371 38.0004 25.9389 37.4227 27.0004 36.4726C28.2279 35.3739 29.0004 33.7774 29.0004 32.0004C29.0004 28.6867 26.3141 26.0004 23.0004 26.0004C19.6867 26.0004 17.0004 28.6867 17.0004 32.0004C17.0004 33.7803 17.7755 35.3793 19.0066 36.4781C20.0673 37.4249 21.4667 38.0004 23.0004 38.0004Z" fill="#E30613"/>
<path d="M29.6671 4.40037H23.953C22.7329 2.38956 20.5515 1.00037 18.0004 1.00037C15.4493 1.00037 13.2679 2.38956 12.0478 4.40037H6.33373C3.35867 4.40037 1.0004 6.86332 1.0004 9.80037V35.6004C1.0004 38.5374 3.35867 41.0004 6.33373 41.0004H17.0041L17.0052 39.0004H6.33373C4.5004 39.0004 3.0004 37.4704 3.0004 35.6004V9.80037C3.0004 7.93037 4.5004 6.40037 6.33373 6.40037H13.3004C14.0004 4.42837 15.8337 3.00037 18.0004 3.00037C20.1671 3.00037 22.0004 4.42837 22.7004 6.40037H29.6671C31.5004 6.40037 33.0004 7.93037 33.0004 9.80037V35.6004C33.0004 37.4704 31.5004 39.0004 29.6671 39.0004H29.0004V41.0004H29.6671C32.6421 41.0004 35.0004 38.5374 35.0004 35.6004V9.80037C35.0004 6.86332 32.6421 4.40037 29.6671 4.40037Z" fill="#E30613"/>
<path fill-rule="evenodd" clip-rule="evenodd" d="M23.0004 36.0004C20.8792 36.0004 19.1437 34.3493 19.0088 32.2622L19.009 32.0004H19.0004C19.0004 31.3186 19.171 30.6766 19.4718 30.1149C19.4924 30.0763 19.5137 30.0382 19.5355 30.0004H19.5004H18.7147C17.7718 30.0004 17.009 30.9004 17.009 32.0004L17.0052 39.0004L17.0041 41.0004L17.0004 48.0004L23.0004 45.0004L29.0004 48.0004V41.0004V39.0004V32.0004C29.0004 30.9004 28.229 30.0004 27.2861 30.0004H26.5004H26.4653C26.8056 30.5887 27.0004 31.2718 27.0004 32.0004C27.0004 34.2095 25.2095 36.0004 23.0004 36.0004ZM27.0004 36.4726V44.7643L23.0004 42.7643L19.0021 44.7634L19.0066 36.4781C20.0673 37.4249 21.4667 38.0004 23.0004 38.0004C24.5371 38.0004 25.9389 37.4227 27.0004 36.4726Z" fill="#E30613"/>
<path fill-rule="evenodd" clip-rule="evenodd" d="M11.9917 4.30039C13.2339 2.28826 15.4319 0.900391 18.0004 0.900391C20.5689 0.900391 22.7668 2.28826 24.009 4.30039H29.6671C32.6994 4.30039 35.1004 6.8102 35.1004 9.80039V35.6004C35.1004 38.5906 32.6994 41.1004 29.6671 41.1004H29.1004V48.1622L23.0004 45.1122L16.9003 48.1622L16.9041 41.1004H6.33372C3.30137 41.1004 0.900391 38.5906 0.900391 35.6004V9.80039C0.900391 6.8102 3.30137 4.30039 6.33372 4.30039H11.9917ZM16.9042 40.9004L16.9052 39.1004H6.33372C4.4433 39.1004 2.90039 37.5237 2.90039 35.6004V9.80039C2.90039 7.87704 4.4433 6.30039 6.33372 6.30039H13.2303C13.9606 4.32629 15.8124 2.90039 18.0004 2.90039C20.1883 2.90039 22.0402 4.32629 22.7705 6.30039H29.6671C31.5575 6.30039 33.1004 7.87704 33.1004 9.80039V35.6004C33.1004 37.5237 31.5575 39.1004 29.6671 39.1004H29.1004V40.9004H29.6671C32.5848 40.9004 34.9004 38.4843 34.9004 35.6004V9.80039C34.9004 6.91648 32.5848 4.50039 29.6671 4.50039H23.8967L23.8675 4.45227C22.6639 2.46876 20.5136 1.10039 18.0004 1.10039C15.4872 1.10039 13.3369 2.46876 12.1333 4.45227L12.1041 4.50039H6.33372C3.41596 4.50039 1.10039 6.91648 1.10039 9.80039V35.6004C1.10039 38.4843 3.41596 40.9004 6.33372 40.9004H16.9042ZM29.1004 38.9004H29.6671C31.4433 38.9004 32.9004 37.417 32.9004 35.6004V9.80039C32.9004 7.98374 31.4433 6.50039 29.6671 6.50039H22.6298L22.6062 6.43384C21.9191 4.49837 20.1213 3.10039 18.0004 3.10039C15.8795 3.10039 14.0817 4.49837 13.3946 6.43384L13.371 6.50039H6.33372C4.55748 6.50039 3.10039 7.98374 3.10039 9.80039V35.6004C3.10039 37.417 4.55748 38.9004 6.33372 38.9004H16.9053L16.9088 32.3232C16.9032 32.2163 16.9004 32.1087 16.9004 32.0004C16.9004 28.6315 19.6315 25.9004 23.0004 25.9004C26.3693 25.9004 29.1004 28.6315 29.1004 32.0004V38.9004ZM28.9004 33.5554V47.8386L23.0004 44.8886L17.1005 47.8385L17.1081 33.5845C17.4161 34.7329 18.0509 35.7476 18.9065 36.5227L18.902 44.9253L23.0004 42.8761L27.1004 44.9261V36.5171C27.9601 35.7362 28.5961 34.713 28.9004 33.5554ZM27.1004 36.243C28.2104 35.1701 28.9004 33.6659 28.9004 32.0004C28.9004 31.0369 28.2883 30.255 27.5206 30.1208L27.3792 32.1004H27.1004V36.243ZM27.0992 31.9004H27.193L27.3215 30.1009C27.3097 30.1005 27.2979 30.1004 27.2861 30.1004H26.6345C26.9176 30.6408 27.0837 31.252 27.0992 31.9004ZM26.5225 29.9004H27.5364L27.535 29.92C28.0542 30.0027 28.4997 30.3403 28.7811 30.8143C28.2321 28.1243 25.8526 26.1004 23.0004 26.1004C20.1428 26.1004 17.7597 28.1319 17.2166 30.8295C17.5384 30.2731 18.0839 29.9004 18.7147 29.9004H19.4783C20.1939 28.7027 21.5034 27.9004 23.0004 27.9004C24.4974 27.9004 25.8069 28.7027 26.5225 29.9004ZM19.3663 30.1004H18.8147V31.9004H18.9016C18.9171 31.2521 19.0832 30.6408 19.3663 30.1004ZM18.9016 32.1004H18.6147V30.1041C17.7863 30.1652 17.109 30.9807 17.109 32.0004L17.1088 32.318C17.1906 33.8597 17.8641 35.2444 18.9067 36.2491L18.9088 32.2654C18.9053 32.2107 18.9029 32.1557 18.9016 32.1004ZM19.1083 33.2928L19.1066 36.4331C20.1456 37.3466 21.5082 37.9004 23.0004 37.9004C24.4955 37.9004 25.8606 37.3444 26.9004 36.4277V33.2689C26.3662 34.9124 24.822 36.1004 23.0004 36.1004C21.1876 36.1004 19.6496 34.9239 19.1083 33.2928ZM26.9004 32.0004C26.9004 34.1543 25.1543 35.9004 23.0004 35.9004C20.9334 35.9004 19.2419 34.2923 19.1088 32.259L19.109 31.9004H19.1016C19.1174 31.2727 19.2815 30.6822 19.5599 30.1621C19.58 30.1245 19.6008 30.0873 19.6221 30.0505C20.2966 28.8845 21.557 28.1004 23.0004 28.1004C24.4438 28.1004 25.7042 28.8845 26.3787 30.0505C26.7105 30.624 26.9004 31.2899 26.9004 32.0004ZM19.1064 36.696C20.1628 37.573 21.5201 38.1004 23.0004 38.1004C24.4835 38.1004 25.8431 37.571 26.9004 36.691V44.6025L23.0004 42.6525L19.1022 44.6016L19.1064 36.696Z" fill="#E30613"/>
</svg>
