<svg width="25" height="25" viewBox="0 0 25 25" fill="none" xmlns="http://www.w3.org/2000/svg">
<path d="M12.5 0C5.5956 0 0 5.61457 0 12.5C0 19.3854 5.61457 25 12.5 25C19.3854 25 25 19.4044 25 12.519C25 5.63354 19.3854 0 12.5 0ZM12.5 23.1222C6.65782 23.1222 1.89681 18.3612 1.89681 12.519C1.89681 6.67678 6.65782 1.91578 12.5 1.91578C18.3422 1.91578 23.1032 6.65782 23.1032 12.519C23.1032 18.3612 18.3422 23.1222 12.5 23.1222ZM12.481 2.57966C6.99924 2.57966 2.54173 7.03718 2.54173 12.519C2.54173 18.0008 6.99924 22.4583 12.481 22.4583C17.9628 22.4583 22.4203 18.0008 22.4203 12.519C22.4203 7.03718 17.9818 2.57966 12.481 2.57966ZM21.0926 10.3376L15.7625 12.0068C15.7056 11.6654 15.6108 11.3429 15.459 11.0395L20.7701 9.33232C20.9029 9.67375 20.9977 9.99621 21.0926 10.3376ZM20.3907 8.47876L14.4917 9.86343C14.4348 9.82549 14.3968 9.78756 14.3399 9.74963L13.9036 3.75569C16.7299 4.21092 19.1199 6.0129 20.3907 8.47876ZM15.2883 11.8551C15.2883 12.1396 15.0607 12.3672 14.7762 12.3672C14.4917 12.3672 14.264 12.1396 14.264 11.8551C14.264 11.5706 14.4917 11.3429 14.7762 11.3429C15.0607 11.3429 15.2883 11.5895 15.2883 11.8551ZM14.3778 14.4158C14.3778 14.7003 14.1502 14.9279 13.8657 14.9279C13.5812 14.9279 13.3536 14.7003 13.3536 14.4158C13.3536 14.1313 13.5812 13.9036 13.8657 13.9036C14.1502 13.9226 14.3778 14.1502 14.3778 14.4158ZM12.1017 3.66085C12.2344 3.66085 12.3672 3.64188 12.5 3.64188C12.7087 3.64188 12.8983 3.64188 13.088 3.66085L13.1259 9.25645C12.9173 9.21851 12.7087 9.19955 12.5 9.19955C12.3672 9.19955 12.2155 9.21852 12.0827 9.23748L12.1017 3.66085ZM13.107 10.2238C13.107 10.5084 12.8794 10.736 12.5948 10.736C12.3103 10.736 12.0827 10.5084 12.0827 10.2238C12.0827 9.93931 12.3103 9.71169 12.5948 9.71169C12.8794 9.71169 13.107 9.93931 13.107 10.2238ZM12.481 11.1722C13.2398 11.1722 13.8467 11.7792 13.8467 12.5379C13.8467 13.2967 13.2398 13.9036 12.481 13.9036C11.7223 13.9036 11.1153 13.2967 11.1153 12.5379C11.1153 11.7792 11.7223 11.1722 12.481 11.1722ZM11.1533 13.9226C11.4378 13.9226 11.6654 14.1502 11.6654 14.4347C11.6654 14.7193 11.4378 14.9469 11.1533 14.9469C10.8687 14.9469 10.6411 14.7193 10.6411 14.4347C10.6411 14.1502 10.8687 13.9226 11.1533 13.9226ZM10.3376 12.3103C10.0531 12.3103 9.82549 12.0827 9.82549 11.7982C9.82549 11.5137 10.0531 11.286 10.3376 11.286C10.6222 11.286 10.8498 11.5137 10.8498 11.7982C10.8308 12.0827 10.6032 12.3103 10.3376 12.3103ZM11.0395 3.77466L10.698 9.73065C10.5842 9.80652 10.4894 9.8824 10.3945 9.95827L4.62823 8.44082C5.88012 6.0129 8.25114 4.2299 11.0395 3.77466ZM4.22989 9.29439L9.50304 11.0964C9.38923 11.3619 9.29438 11.6275 9.23748 11.912L3.94537 10.1669C4.02125 9.88239 4.11609 9.57891 4.22989 9.29439ZM3.62291 12.519C3.62291 12.0637 3.66085 11.6085 3.71776 11.1722L9.31335 13.4674C9.33232 13.5432 9.35129 13.6001 9.38923 13.676L6.08877 18.6457C4.55235 17.0524 3.62291 14.89 3.62291 12.519ZM6.92337 19.4234L10.1859 14.9089C10.4135 15.1366 10.698 15.3262 10.9826 15.478L7.66313 19.9545C7.41654 19.8027 7.15099 19.6131 6.92337 19.4234ZM12.481 21.3961C11.0774 21.3961 9.74962 21.0736 8.5736 20.4856L12.5 15.8384C12.5379 15.8384 12.5569 15.8384 12.5948 15.8384L16.4264 20.4666C15.2314 21.0546 13.9036 21.3961 12.481 21.3961ZM17.3179 19.9545L14.0744 15.4211C14.3209 15.2883 14.5675 15.1176 14.7572 14.9089L18.0766 19.3854C17.849 19.5941 17.5835 19.7838 17.3179 19.9545ZM18.7974 18.7595L15.6297 13.6191C15.6487 13.5812 15.6487 13.5432 15.6677 13.5243L21.2633 11.1722C21.3392 11.6085 21.3771 12.0827 21.3771 12.5379C21.3581 14.9469 20.3718 17.1472 18.7974 18.7595Z" fill="white"/>
</svg>
