<svg width="21" height="21" viewBox="0 0 21 21" fill="none" xmlns="http://www.w3.org/2000/svg">
<path fill-rule="evenodd" clip-rule="evenodd" d="M6.72834 0.826944L9.07131 4.46503C9.45556 5.07955 9.36454 5.87804 8.85192 6.39039C8.8519 6.39041 8.85193 6.39037 8.85192 6.39039L7.46899 7.77268C7.57342 8.43431 7.97317 9.94939 9.51349 11.4897C11.0538 13.03 12.5689 13.4298 13.2306 13.5342L14.6129 12.1513C15.1256 11.6391 15.9245 11.5483 16.5387 11.9329L16.5483 11.9389L20.1771 14.2753C20.8474 14.7001 21.0903 15.5613 20.7416 16.2734L18.9733 20.0281L18.9698 20.0351C18.6832 20.6173 18.0646 20.9597 17.4191 20.8936L17.4166 20.8933C15.4215 20.6834 10.6039 19.8174 5.89435 15.1075C1.1848 10.3976 0.318388 5.57954 0.108474 3.58538L0.10821 3.58284C0.0421131 2.93731 0.384529 2.3188 0.966672 2.03215L0.9737 2.02869L4.72825 0.26045C5.4414 -0.089068 6.30406 0.154894 6.72834 0.826944ZM7.45196 7.65327C7.45201 7.65366 7.45206 7.65406 7.45211 7.65445L7.45196 7.65327ZM5.32338 1.96981L1.91822 3.57349C2.13503 5.42258 2.98472 9.65199 7.16718 13.8347C11.3497 18.0175 15.5786 18.8668 17.4285 19.0836L19.032 15.6789L15.7463 13.5635L14.4196 14.8908C14.4192 14.8912 14.4187 14.8916 14.4183 14.892C14.0786 15.2334 13.5995 15.3977 13.1218 15.3367C12.2496 15.2258 10.2309 14.7526 8.2407 12.7625C6.25056 10.7724 5.77737 8.75362 5.66648 7.88148C5.60547 7.40369 5.76976 6.92465 6.11116 6.58489C6.11157 6.58448 6.11198 6.58408 6.11239 6.58367L7.44009 5.25657L5.32338 1.96981Z" fill="#F4F9FF"/>
<path d="M21 3C21 4.65685 19.6569 6 18 6C16.3431 6 15 4.65685 15 3C15 1.34315 16.3431 0 18 0C19.6569 0 21 1.34315 21 3Z" fill="#E30613"/>
</svg>
