<svg width="43" height="42" viewBox="0 0 43 42" fill="none" xmlns="http://www.w3.org/2000/svg">
<path d="M0 21C0 9.40202 9.40202 0 21 0H22C33.598 0 43 9.40202 43 21V21C43 32.598 33.598 42 22 42H21C9.40202 42 0 32.598 0 21V21Z" fill="#E30613"/>
<path d="M27 27C25.9 27 25 27.9 25 29C25 30.1 25.9 31 27 31C28.1 31 29 30.1 29 29C29 27.9 28.1 27 27 27Z" fill="#F6F6F8"/>
<path d="M17 27C15.9 27 15 27.9 15 29C15 30.1 15.9 31 17 31C18.1 31 19 30.1 19 29C19 27.9 18.1 27 17 27Z" fill="#F6F6F8"/>
<path d="M18.2 23.8V23.7L19.1 22H26.5C27.3 22 27.9 21.6 28.3 21L31.2 15.7C31.7 14.7 31.5 12.9 29.4 13H16.2L15.3 11H12V13H14L17.6 20.6L16.3 23C16.1 23.4 16 23.8 16 24.2C16.1 25.2 17.1 26 18.2 26H30V24H18.4C18.3 24 18.2 23.9 18.2 23.8ZM17.2 15H29.4L26.6 20H19.6L19.4 19.7L17.2 15Z" fill="#F6F6F8"/>
</svg>
