<svg width="25" height="25" viewBox="0 0 25 25" fill="none" xmlns="http://www.w3.org/2000/svg">
<path d="M12.5001 0C5.60755 0 0 5.60745 0 12.5C0 19.3926 5.60755 25 12.5001 25C19.3926 25 25.0001 19.3926 25.0001 12.5C25.0001 5.60745 19.3925 0 12.5001 0ZM12.5001 21.3781C7.59678 21.3781 3.62194 17.4033 3.62194 12.5C3.62194 7.59669 7.59678 3.62194 12.5001 3.62194C17.4032 3.62194 21.3782 7.59669 21.3782 12.5C21.3782 17.4033 17.4031 21.3781 12.5001 21.3781Z" fill="white"/>
<path d="M12.5003 4.77129C8.2386 4.77129 4.77155 8.23834 4.77155 12.5C4.77155 16.7616 8.2387 20.2287 12.5003 20.2287C16.762 20.2287 20.229 16.7616 20.229 12.5C20.229 8.23834 16.7619 4.77129 12.5003 4.77129ZM19.2393 12.0072H15.4893C15.4127 11.5333 15.2254 11.0962 14.9554 10.7226L17.6028 8.0752C18.5322 9.1454 19.1306 10.5091 19.2393 12.0072ZM12.9853 5.76036C14.4825 5.86713 15.8457 6.46322 16.9165 7.38992L14.2697 10.0368C13.896 9.76693 13.4591 9.57982 12.9853 9.50321V5.76036ZM12.0153 5.76036V9.50311C11.5415 9.57972 11.1045 9.76683 10.7308 10.0368L8.08391 7.39002C9.1547 6.46332 10.5181 5.86713 12.0153 5.76036ZM7.39745 8.0753L10.045 10.7227C9.77495 11.0962 9.58784 11.5333 9.51123 12.0071H5.76121C5.86994 10.5091 6.4683 9.1455 7.39745 8.0753ZM5.76013 12.977H9.51133C9.58784 13.4508 9.77505 13.8879 10.0451 14.2616L7.39028 16.9163C6.46191 15.8436 5.86533 14.4773 5.76013 12.977ZM12.0153 19.2396C10.5141 19.1325 9.14762 18.5336 8.07546 17.6027L10.7308 14.9473C11.1045 15.2173 11.5415 15.4044 12.0153 15.481V19.2396ZM12.0153 14.4833V14.4904C11.806 14.4395 11.6096 14.3568 11.4306 14.2474L11.4353 14.2428C11.1553 14.0721 10.9202 13.8369 10.7495 13.5569L10.745 13.5614C10.6356 13.3825 10.5528 13.1861 10.502 12.9768H10.5089C10.4711 12.8212 10.4489 12.6593 10.4489 12.4919C10.4489 12.3246 10.4712 12.1627 10.5089 12.007H10.502C10.5528 11.7978 10.6355 11.6015 10.745 11.4225L10.7495 11.427C10.9202 11.1471 11.1554 10.9119 11.4353 10.7413L11.4306 10.7367C11.6096 10.6272 11.806 10.5444 12.0153 10.4937V10.5007C12.1711 10.4629 12.3329 10.4406 12.5003 10.4406C12.6678 10.4406 12.8296 10.4629 12.9854 10.5007V10.4937C13.1947 10.5445 13.391 10.6271 13.5699 10.7366L13.5652 10.7412C13.8453 10.9118 14.0804 11.147 14.2511 11.4269L14.2556 11.4224C14.3651 11.6014 14.4478 11.7978 14.4987 12.0071H14.4917C14.5296 12.1628 14.5518 12.3247 14.5518 12.492C14.5518 12.6594 14.5295 12.8213 14.4917 12.9769H14.4987C14.4478 13.1862 14.3652 13.3827 14.2556 13.5616L14.2511 13.5571C14.0804 13.837 13.8452 14.0722 13.5652 14.2429L13.5699 14.2474C13.391 14.3568 13.1947 14.4395 12.9854 14.4904V14.4833C12.8296 14.5211 12.6678 14.5434 12.5003 14.5434C12.3329 14.5434 12.1711 14.5212 12.0153 14.4833ZM12.9853 19.2396V15.481C13.4591 15.4044 13.896 15.2173 14.2697 14.9474L16.9249 17.6027C15.8529 18.5336 14.4864 19.1325 12.9853 19.2396ZM17.6102 16.9163L14.9555 14.2617C15.2255 13.888 15.4127 13.4509 15.4894 12.977H19.2405C19.1352 14.4773 18.5387 15.8436 17.6102 16.9163Z" fill="white"/>
</svg>
