<svg width="36" height="36" viewBox="0 0 36 36" fill="none" xmlns="http://www.w3.org/2000/svg">
<g id="Vector">
<path d="M36 18C36 27.9411 27.9411 36 18 36C8.05887 36 0 27.9411 0 18C0 8.05887 8.05887 0 18 0C27.9411 0 36 8.05887 36 18Z" fill="url(#paint0_linear_5220_8612)"/>
<path fill-rule="evenodd" clip-rule="evenodd" d="M12.9817 10.5001L15.163 13.8871C15.5207 14.4592 15.436 15.2026 14.9587 15.6796L13.6712 16.9665C13.7685 17.5825 14.1406 18.9931 15.5747 20.4271C17.0087 21.8611 18.4193 22.2333 19.0353 22.3305L20.3222 21.043C20.7995 20.5662 21.5434 20.4816 22.1152 20.8397L22.124 20.8453L25.5024 23.0205C26.1265 23.4159 26.3527 24.2177 26.028 24.8807L24.3817 28.3763L24.3785 28.3829C24.1116 28.9249 23.5358 29.2436 22.9348 29.1821L22.9325 29.1819C21.075 28.9864 16.5899 28.1801 12.2053 23.7952C7.82067 19.4104 7.01404 14.9247 6.81861 13.0682L6.81836 13.0658C6.75683 12.4648 7.07562 11.889 7.61759 11.6221L7.62413 11.6189L11.1196 9.97267C11.7836 9.64727 12.5867 9.8744 12.9817 10.5001ZM13.6554 16.8554L13.6555 16.8565L13.6554 16.8554ZM11.6737 11.5641L8.50348 13.0571C8.70533 14.7786 9.49639 18.7162 13.3903 22.6103C17.2842 26.5045 21.2213 27.2952 22.9435 27.497L24.4364 24.3272L21.3774 22.3578L20.1422 23.5935L20.1411 23.5947C19.8248 23.9125 19.3788 24.0654 18.934 24.0086C18.122 23.9054 16.2425 23.4649 14.3897 21.6121C12.5369 19.7593 12.0963 17.8798 11.9931 17.0678C11.9363 16.623 12.0893 16.177 12.4071 15.8607L12.4082 15.8596L13.6443 14.6241L11.6737 11.5641Z" fill="white"/>
<path d="M25.2973 15.5676C25.2973 13.6703 24.6365 12.0608 23.3149 10.7392C21.9932 9.41757 20.3838 8.75676 18.4865 8.75676V6.81081C19.7027 6.81081 20.8419 7.04189 21.9041 7.50405C22.9662 7.96622 23.8905 8.59054 24.677 9.37703C25.4635 10.1635 26.0878 11.0878 26.55 12.15C27.0122 13.2122 27.2432 14.3514 27.2432 15.5676H25.2973ZM21.4054 15.5676C21.4054 14.7568 21.1216 14.0676 20.5541 13.5C19.9865 12.9324 19.2973 12.6486 18.4865 12.6486V10.7027C19.8324 10.7027 20.9797 11.177 21.9284 12.1257C22.877 13.0743 23.3514 14.2216 23.3514 15.5676H21.4054Z" fill="white"/>
</g>
<defs>
<linearGradient id="paint0_linear_5220_8612" x1="18" y1="0" x2="18.0124" y2="52.0001" gradientUnits="userSpaceOnUse">
<stop stop-color="#E30613"/>
<stop offset="1" stop-color="#E77B06"/>
</linearGradient>
</defs>
</svg>
