<svg width="19" height="20" viewBox="0 0 19 20" fill="none" xmlns="http://www.w3.org/2000/svg">
<g id="Vector">
<path d="M14.6687 16C13.593 16 12.7129 16.9 12.7129 18C12.7129 19.1 13.593 20 14.6687 20C15.7444 20 16.6245 19.1 16.6245 18C16.6245 16.9 15.7444 16 14.6687 16Z" fill="#656777"/>
<path d="M4.88956 16C3.81386 16 2.93374 16.9 2.93374 18C2.93374 19.1 3.81386 20 4.88956 20C5.96526 20 6.84538 19.1 6.84538 18C6.84538 16.9 5.96526 16 4.88956 16Z" fill="#656777"/>
<path d="M6.06305 12.8V12.7L6.94317 11H14.1797C14.962 11 15.5488 10.6 15.94 10L18.7759 4.7C19.2649 3.7 19.0693 1.9 17.0157 2H4.10723L3.22711 0H0V2H1.95582L5.47631 9.6L4.20502 12C4.00944 12.4 3.91165 12.8 3.91165 13.2C4.00944 14.2 4.98735 15 6.06305 15H17.6024V13H6.25864C6.16084 13 6.06305 12.9 6.06305 12.8ZM5.08514 4H17.0157L14.2775 9H7.43213L7.23655 8.7L5.08514 4Z" fill="#656777"/>
<path fill-rule="evenodd" clip-rule="evenodd" d="M14.1797 11C14.962 11 15.5488 10.6 15.94 10L18.7759 4.7C19.2649 3.7 19.0693 1.9 17.0157 2H4.10723L3.22711 0H0V2H1.95582L5.47631 9.6L4.20502 12C4.00944 12.4 3.91165 12.8 3.91165 13.2C4.00944 14.2 4.98735 15 6.06305 15H17.6024V13H6.25864C6.16084 13 6.06305 12.9 6.06305 12.8V12.7L6.94317 11H14.1797ZM14.2775 9L17.0157 4H5.08514L7.23655 8.7L7.43213 9H14.2775ZM2.93374 18C2.93374 16.9 3.81386 16 4.88956 16C5.96526 16 6.84538 16.9 6.84538 18C6.84538 19.1 5.96526 20 4.88956 20C3.81386 20 2.93374 19.1 2.93374 18ZM12.7129 18C12.7129 16.9 13.593 16 14.6687 16C15.7444 16 16.6245 16.9 16.6245 18C16.6245 19.1 15.7444 20 14.6687 20C13.593 20 12.7129 19.1 12.7129 18Z" fill="#656777"/>
</g>
</svg>
