<svg width="180" height="185" viewBox="0 0 180 185" fill="none" xmlns="http://www.w3.org/2000/svg">
<path d="M0 0H180V185H0V0Z" fill="white"/>
<path d="M73.5568 84.1293C63.4743 84.1296 56.82 129.536 56.82 129.536H135.665C135.665 129.536 113.685 99.87 108.039 101.081C105.262 101.676 103.981 107.456 103.199 109.96C102.294 112.86 100.737 114.906 99.2976 116.279C97.6604 117.841 95.2514 116.926 94.3574 114.847C90.5032 105.882 80.4411 84.1292 73.5568 84.1293Z" fill="#ABACB3"/>
<path fill-rule="evenodd" clip-rule="evenodd" d="M142.675 71.804H50.7056V134.738H142.675V71.804ZM48.0233 64.5423C45.4592 64.5423 43.3806 66.6094 43.3806 69.1593V137.383C43.3806 139.933 45.4592 142 48.0233 142H145.357C147.921 142 150 139.933 150 137.383V69.1593C150 66.6094 147.921 64.5423 145.357 64.5423H48.0233Z" fill="#ABACB3"/>
<path d="M134.769 87.2454C134.769 92.4084 130.356 96.5938 124.913 96.5938C119.47 96.5938 115.057 92.4084 115.057 87.2454C115.057 82.0825 119.47 77.8971 124.913 77.8971C130.356 77.8971 134.769 82.0825 134.769 87.2454Z" fill="#ABACB3"/>
<path fill-rule="evenodd" clip-rule="evenodd" d="M31 53H137.009C139.145 53 140.877 54.7226 140.877 56.8474C140.877 58.9723 139.145 60.6949 137.009 60.6949H38.7379V126.871C38.7379 128.996 37.0057 130.718 34.8689 130.718C32.7322 130.718 31 128.996 31 126.871V53Z" fill="#ABACB3"/>
<path d="M38.9414 169H37.7793V164.29H32.5293V169H31.3672V159.006H32.5293V163.265H37.7793V159.006H38.9414V169Z" fill="#656777"/>
<path d="M44.4033 161.371C45.0413 161.371 45.5882 161.512 46.0439 161.795C46.4997 162.077 46.8483 162.474 47.0898 162.984C47.3314 163.49 47.4521 164.083 47.4521 164.762V165.466H42.2773C42.291 166.345 42.5098 167.015 42.9336 167.476C43.3574 167.936 43.9544 168.166 44.7246 168.166C45.1986 168.166 45.6178 168.123 45.9824 168.036C46.347 167.95 46.7253 167.822 47.1172 167.653V168.651C46.7389 168.82 46.363 168.943 45.9893 169.021C45.6201 169.098 45.1826 169.137 44.6768 169.137C43.9567 169.137 43.3278 168.991 42.79 168.699C42.2568 168.403 41.8421 167.97 41.5459 167.4C41.2497 166.831 41.1016 166.133 41.1016 165.309C41.1016 164.502 41.236 163.805 41.5049 163.217C41.7783 162.624 42.1611 162.169 42.6533 161.85C43.1501 161.531 43.7334 161.371 44.4033 161.371ZM44.3896 162.301C43.7835 162.301 43.3005 162.499 42.9404 162.896C42.5804 163.292 42.3662 163.846 42.2979 164.557H46.2627C46.2581 164.11 46.1875 163.718 46.0508 163.381C45.9186 163.039 45.7158 162.775 45.4424 162.588C45.1689 162.396 44.818 162.301 44.3896 162.301Z" fill="#656777"/>
<path d="M54.4863 162.472H52.0186V169H50.8975V162.472H48.4639V161.508H54.4863V162.472Z" fill="#656777"/>
<path d="M60.6865 161.508V166.218C60.6865 166.309 60.6842 166.427 60.6797 166.573C60.6751 166.715 60.6683 166.867 60.6592 167.031C60.6501 167.191 60.641 167.346 60.6318 167.496C60.6273 167.642 60.6204 167.763 60.6113 167.858L64.6992 161.508H66.0938V169H65.0342V164.406C65.0342 164.26 65.0365 164.074 65.041 163.846C65.0456 163.618 65.0524 163.395 65.0615 163.176C65.0706 162.952 65.0775 162.779 65.082 162.656L61.0078 169H59.6064V161.508H60.6865Z" fill="#656777"/>
<path d="M70.4346 161.371C70.9951 161.371 71.4805 161.449 71.8906 161.604C72.3008 161.754 72.6175 161.975 72.8408 162.267C73.0641 162.558 73.1758 162.914 73.1758 163.333C73.1758 163.784 73.0527 164.144 72.8066 164.413C72.5605 164.682 72.221 164.876 71.7881 164.994V165.049C72.0934 165.131 72.3691 165.249 72.6152 165.404C72.8659 165.555 73.0641 165.755 73.21 166.006C73.3604 166.252 73.4355 166.56 73.4355 166.929C73.4355 167.348 73.3216 167.726 73.0938 168.063C72.8659 168.396 72.5195 168.658 72.0547 168.85C71.5898 169.041 71.002 169.137 70.291 169.137C69.9401 169.137 69.6074 169.116 69.293 169.075C68.9785 169.039 68.6937 168.984 68.4385 168.911C68.1833 168.838 67.96 168.752 67.7686 168.651V167.619C68.0876 167.774 68.4613 167.911 68.8896 168.029C69.318 168.148 69.7806 168.207 70.2773 168.207C70.6602 168.207 71.0042 168.164 71.3096 168.077C71.6149 167.986 71.8564 167.842 72.0342 167.646C72.2165 167.446 72.3076 167.184 72.3076 166.86C72.3076 166.564 72.2279 166.32 72.0684 166.129C71.9089 165.933 71.6696 165.789 71.3506 165.698C71.0361 165.603 70.6374 165.555 70.1543 165.555H69.1494V164.625H69.9766C70.6191 164.625 71.1318 164.534 71.5146 164.352C71.8975 164.169 72.0889 163.862 72.0889 163.429C72.0889 163.055 71.9408 162.777 71.6445 162.595C71.3483 162.408 70.9245 162.314 70.373 162.314C69.9629 162.314 69.6006 162.358 69.2861 162.444C68.9717 162.526 68.6322 162.645 68.2676 162.8L67.8643 161.891C68.2562 161.717 68.6663 161.588 69.0947 161.501C69.5231 161.414 69.9697 161.371 70.4346 161.371Z" fill="#656777"/>
<path d="M81.7344 165.24C81.7344 165.855 81.6546 166.405 81.4951 166.888C81.3356 167.371 81.1055 167.779 80.8047 168.111C80.5039 168.444 80.1393 168.699 79.7109 168.877C79.2871 169.05 78.8063 169.137 78.2686 169.137C77.7673 169.137 77.307 169.05 76.8877 168.877C76.473 168.699 76.113 168.444 75.8076 168.111C75.5068 167.779 75.2721 167.371 75.1035 166.888C74.9395 166.405 74.8574 165.855 74.8574 165.24C74.8574 164.42 74.9964 163.723 75.2744 163.148C75.5524 162.57 75.9489 162.13 76.4639 161.829C76.9834 161.524 77.6009 161.371 78.3164 161.371C79 161.371 79.597 161.524 80.1074 161.829C80.6224 162.134 81.0212 162.576 81.3037 163.155C81.5908 163.729 81.7344 164.424 81.7344 165.24ZM76.0332 165.24C76.0332 165.842 76.113 166.364 76.2725 166.806C76.432 167.248 76.6781 167.59 77.0107 167.831C77.3434 168.073 77.7718 168.193 78.2959 168.193C78.8154 168.193 79.2415 168.073 79.5742 167.831C79.9115 167.59 80.1598 167.248 80.3193 166.806C80.4788 166.364 80.5586 165.842 80.5586 165.24C80.5586 164.643 80.4788 164.128 80.3193 163.695C80.1598 163.258 79.9137 162.921 79.5811 162.684C79.2484 162.447 78.8177 162.328 78.2891 162.328C77.5098 162.328 76.9378 162.586 76.5732 163.101C76.2132 163.616 76.0332 164.329 76.0332 165.24Z" fill="#656777"/>
<path d="M83.3066 164.502C83.3066 163.436 83.4092 162.526 83.6143 161.774C83.8193 161.018 84.1361 160.412 84.5645 159.956C84.9974 159.496 85.5534 159.181 86.2324 159.013C86.8158 158.853 87.4082 158.716 88.0098 158.603C88.6113 158.484 89.1969 158.382 89.7666 158.295L89.9648 159.293C89.6777 159.334 89.377 159.382 89.0625 159.437C88.748 159.487 88.4336 159.541 88.1191 159.601C87.8047 159.655 87.5085 159.715 87.2305 159.778C86.9525 159.838 86.7064 159.899 86.4922 159.963C86.1048 160.068 85.7699 160.25 85.4873 160.51C85.2093 160.77 84.9883 161.127 84.8242 161.583C84.6647 162.039 84.569 162.613 84.5371 163.306H84.6191C84.7559 163.105 84.9427 162.907 85.1797 162.711C85.4167 162.515 85.6992 162.353 86.0273 162.226C86.3555 162.093 86.7246 162.027 87.1348 162.027C87.7819 162.027 88.3219 162.169 88.7549 162.451C89.1878 162.729 89.5137 163.121 89.7324 163.627C89.9512 164.133 90.0605 164.725 90.0605 165.404C90.0605 166.22 89.9193 166.906 89.6367 167.462C89.3587 168.018 88.9668 168.437 88.4609 168.72C87.9551 168.998 87.3604 169.137 86.6768 169.137C86.1481 169.137 85.6742 169.034 85.2549 168.829C84.8402 168.624 84.487 168.323 84.1953 167.927C83.9082 167.53 83.6872 167.045 83.5322 166.471C83.3818 165.896 83.3066 165.24 83.3066 164.502ZM86.7656 168.193C87.1986 168.193 87.57 168.102 87.8799 167.92C88.1943 167.738 88.4359 167.451 88.6045 167.059C88.7777 166.662 88.8643 166.147 88.8643 165.514C88.8643 164.721 88.7116 164.101 88.4062 163.654C88.1055 163.203 87.6224 162.978 86.957 162.978C86.5423 162.978 86.1663 163.066 85.8291 163.244C85.4919 163.417 85.207 163.625 84.9746 163.866C84.7422 164.108 84.5736 164.324 84.4688 164.516C84.4688 164.98 84.5029 165.432 84.5713 165.869C84.6396 166.307 84.7581 166.701 84.9268 167.052C85.0954 167.403 85.3278 167.681 85.624 167.886C85.9248 168.091 86.3053 168.193 86.7656 168.193Z" fill="#656777"/>
<path d="M95.543 161.371C96.4772 161.371 97.2223 161.692 97.7783 162.335C98.3343 162.978 98.6123 163.944 98.6123 165.233C98.6123 166.086 98.4847 166.801 98.2295 167.38C97.9743 167.959 97.6143 168.396 97.1494 168.692C96.6891 168.989 96.1445 169.137 95.5156 169.137C95.1191 169.137 94.7705 169.084 94.4697 168.979C94.1689 168.875 93.9115 168.733 93.6973 168.556C93.4831 168.378 93.3053 168.184 93.1641 167.975H93.082C93.0957 168.152 93.1117 168.367 93.1299 168.617C93.1527 168.868 93.1641 169.087 93.1641 169.273V172.35H92.0225V161.508H92.959L93.1094 162.615H93.1641C93.3099 162.387 93.4876 162.18 93.6973 161.993C93.9069 161.802 94.1621 161.651 94.4629 161.542C94.7682 161.428 95.1283 161.371 95.543 161.371ZM95.3447 162.328C94.8252 162.328 94.4059 162.428 94.0869 162.629C93.7725 162.829 93.5423 163.13 93.3965 163.531C93.2507 163.928 93.1732 164.427 93.1641 165.028V165.247C93.1641 165.881 93.2324 166.416 93.3691 166.854C93.5104 167.291 93.7406 167.624 94.0596 167.852C94.3831 168.079 94.8161 168.193 95.3584 168.193C95.8232 168.193 96.2106 168.068 96.5205 167.817C96.8304 167.567 97.0605 167.218 97.2109 166.771C97.3659 166.32 97.4434 165.803 97.4434 165.22C97.4434 164.336 97.2702 163.634 96.9238 163.114C96.582 162.59 96.0557 162.328 95.3447 162.328Z" fill="#656777"/>
<path d="M103.397 161.385C104.291 161.385 104.954 161.585 105.387 161.986C105.82 162.387 106.036 163.028 106.036 163.907V169H105.209L104.99 167.893H104.936C104.726 168.166 104.507 168.396 104.279 168.583C104.051 168.765 103.787 168.904 103.486 169C103.19 169.091 102.826 169.137 102.393 169.137C101.937 169.137 101.531 169.057 101.176 168.897C100.825 168.738 100.547 168.496 100.342 168.173C100.141 167.849 100.041 167.439 100.041 166.942C100.041 166.195 100.337 165.621 100.93 165.22C101.522 164.819 102.424 164.6 103.637 164.563L104.929 164.509V164.051C104.929 163.404 104.79 162.95 104.512 162.69C104.234 162.431 103.842 162.301 103.336 162.301C102.944 162.301 102.57 162.358 102.215 162.472C101.859 162.586 101.522 162.72 101.203 162.875L100.854 162.014C101.192 161.84 101.579 161.692 102.017 161.569C102.454 161.446 102.914 161.385 103.397 161.385ZM104.915 165.309L103.773 165.356C102.839 165.393 102.181 165.546 101.798 165.814C101.415 166.083 101.224 166.464 101.224 166.956C101.224 167.384 101.354 167.701 101.613 167.906C101.873 168.111 102.217 168.214 102.646 168.214C103.311 168.214 103.855 168.029 104.279 167.66C104.703 167.291 104.915 166.737 104.915 165.999V165.309Z" fill="#656777"/>
<path d="M117.151 161.508L114.034 165.151L117.418 169H116.119L112.838 165.199V169H111.778V165.199L108.504 169H107.205L110.589 165.151L107.465 161.508H108.716L111.778 165.145V161.508H112.838V165.145L115.914 161.508H117.151Z" fill="#656777"/>
<path d="M121.554 161.371C122.192 161.371 122.739 161.512 123.194 161.795C123.65 162.077 123.999 162.474 124.24 162.984C124.482 163.49 124.603 164.083 124.603 164.762V165.466H119.428C119.441 166.345 119.66 167.015 120.084 167.476C120.508 167.936 121.105 168.166 121.875 168.166C122.349 168.166 122.768 168.123 123.133 168.036C123.497 167.95 123.876 167.822 124.268 167.653V168.651C123.889 168.82 123.513 168.943 123.14 169.021C122.771 169.098 122.333 169.137 121.827 169.137C121.107 169.137 120.478 168.991 119.94 168.699C119.407 168.403 118.993 167.97 118.696 167.4C118.4 166.831 118.252 166.133 118.252 165.309C118.252 164.502 118.386 163.805 118.655 163.217C118.929 162.624 119.312 162.169 119.804 161.85C120.3 161.531 120.884 161.371 121.554 161.371ZM121.54 162.301C120.934 162.301 120.451 162.499 120.091 162.896C119.731 163.292 119.517 163.846 119.448 164.557H123.413C123.409 164.11 123.338 163.718 123.201 163.381C123.069 163.039 122.866 162.775 122.593 162.588C122.319 162.396 121.968 162.301 121.54 162.301Z" fill="#656777"/>
<path d="M127.672 161.508V164.652H131.849V161.508H132.983V169H131.849V165.616H127.672V169H126.53V161.508H127.672Z" fill="#656777"/>
<path d="M136.47 161.508V166.218C136.47 166.309 136.467 166.427 136.463 166.573C136.458 166.715 136.451 166.867 136.442 167.031C136.433 167.191 136.424 167.346 136.415 167.496C136.41 167.642 136.404 167.763 136.395 167.858L140.482 161.508H141.877V169H140.817V164.406C140.817 164.26 140.82 164.074 140.824 163.846C140.829 163.618 140.836 163.395 140.845 163.176C140.854 162.952 140.861 162.779 140.865 162.656L136.791 169H135.39V161.508H136.47Z" fill="#656777"/>
<path d="M144.652 169H143.326L145.486 165.842C145.172 165.773 144.88 165.657 144.611 165.493C144.342 165.325 144.124 165.094 143.955 164.803C143.791 164.511 143.709 164.149 143.709 163.716C143.709 162.996 143.948 162.449 144.427 162.075C144.91 161.697 145.546 161.508 146.334 161.508H149.649V169H148.515V165.992H146.614L144.652 169ZM144.81 163.723C144.81 164.169 144.969 164.502 145.288 164.721C145.607 164.935 146.063 165.042 146.655 165.042H148.515V162.458H146.457C145.874 162.458 145.452 162.576 145.192 162.813C144.937 163.046 144.81 163.349 144.81 163.723Z" fill="#656777"/>
</svg>
