<svg width="149" height="129" viewBox="0 0 149 129" fill="none" xmlns="http://www.w3.org/2000/svg">
<path d="M9.85107 121.488H8.10059V116.654H3.16406V121.488H1.40625V110.78H3.16406V115.16H8.10059V110.78H9.85107V121.488ZM18.75 121.488H12.6855V110.78H18.75V112.26H14.4434V115.167H18.479V116.64H14.4434V120.001H18.75V121.488ZM24.7778 121.488H23.0127V112.274H19.8779V110.78H27.9053V112.274H24.7778V121.488ZM33.4497 110.78H35.0537V116.457C35.0537 116.701 35.0513 116.969 35.0464 117.262C35.0415 117.555 35.0317 117.841 35.0171 118.119C35.0073 118.397 34.9976 118.646 34.9878 118.866C34.978 119.081 34.9683 119.237 34.9585 119.335H35.0098L40.459 110.78H42.5024V121.488H40.9131V115.856C40.9131 115.592 40.918 115.307 40.9277 114.999C40.9375 114.691 40.9497 114.394 40.9644 114.105C40.979 113.817 40.9937 113.563 41.0083 113.344C41.0229 113.124 41.0327 112.968 41.0376 112.875H40.9717L35.5078 121.488H33.4497V110.78ZM52.1484 113.285C52.1484 114.008 51.9067 114.586 51.4233 115.021C50.9448 115.451 50.3198 115.724 49.5483 115.841V115.893C50.4761 116.005 51.1865 116.283 51.6797 116.728C52.1729 117.167 52.4194 117.743 52.4194 118.456C52.4194 119.081 52.2559 119.633 51.9287 120.111C51.6016 120.59 51.1133 120.963 50.4639 121.232C49.8145 121.5 49.0088 121.635 48.0469 121.635C47.3486 121.635 46.7114 121.586 46.1353 121.488C45.5591 121.396 45.0464 121.249 44.5972 121.049V119.525C44.9048 119.672 45.2417 119.799 45.6079 119.906C45.979 120.009 46.355 120.089 46.7358 120.148C47.1216 120.202 47.4829 120.229 47.8198 120.229C48.7769 120.229 49.4873 120.067 49.9512 119.745C50.415 119.423 50.647 118.966 50.647 118.375C50.647 117.77 50.3467 117.328 49.7461 117.05C49.1455 116.771 48.3228 116.632 47.2778 116.632H46.0034V115.226H47.1973C47.9736 115.226 48.5962 115.158 49.0649 115.021C49.5337 114.884 49.873 114.689 50.083 114.435C50.293 114.181 50.3979 113.878 50.3979 113.527C50.3979 113.063 50.2124 112.702 49.8413 112.443C49.4751 112.179 48.9673 112.047 48.3179 112.047C47.7026 112.047 47.1631 112.13 46.6992 112.296C46.2354 112.462 45.7935 112.68 45.3735 112.948L44.5752 111.769C44.9023 111.544 45.2588 111.347 45.6445 111.176C46.0352 111.005 46.4648 110.871 46.9336 110.773C47.4023 110.675 47.9175 110.626 48.479 110.626C49.2603 110.626 49.9219 110.741 50.4639 110.971C51.0107 111.195 51.4282 111.508 51.7163 111.908C52.0044 112.309 52.1484 112.768 52.1484 113.285ZM64.0723 116.12C64.0723 116.945 63.9673 117.697 63.7573 118.375C63.5522 119.049 63.2422 119.63 62.8271 120.119C62.4121 120.602 61.8921 120.976 61.2671 121.239C60.6421 121.503 59.9097 121.635 59.0698 121.635C58.2153 121.635 57.4731 121.503 56.8433 121.239C56.2183 120.976 55.6982 120.6 55.2832 120.111C54.873 119.623 54.5654 119.04 54.3604 118.361C54.1553 117.682 54.0527 116.93 54.0527 116.105C54.0527 115.001 54.2334 114.04 54.5947 113.219C54.9609 112.394 55.5151 111.754 56.2573 111.3C57.0044 110.841 57.9468 110.612 59.0845 110.612C60.1978 110.612 61.123 110.839 61.8604 111.293C62.5977 111.747 63.1494 112.387 63.5156 113.212C63.8867 114.032 64.0723 115.001 64.0723 116.12ZM55.8984 116.12C55.8984 116.945 56.0107 117.66 56.2354 118.266C56.46 118.866 56.8042 119.33 57.2681 119.657C57.7368 119.979 58.3374 120.141 59.0698 120.141C59.8071 120.141 60.4077 119.979 60.8716 119.657C61.3354 119.33 61.6772 118.866 61.897 118.266C62.1167 117.66 62.2266 116.945 62.2266 116.12C62.2266 114.865 61.9751 113.883 61.4722 113.175C60.9741 112.462 60.1782 112.106 59.0845 112.106C58.3521 112.106 57.749 112.267 57.2754 112.589C56.8066 112.912 56.46 113.373 56.2354 113.974C56.0107 114.569 55.8984 115.285 55.8984 116.12ZM66.3721 121.488V110.78H72.9053V112.267H68.1299V115.109H69.4116C70.4272 115.109 71.2427 115.243 71.8579 115.512C72.4731 115.775 72.9175 116.144 73.1909 116.618C73.4644 117.091 73.6011 117.636 73.6011 118.251C73.6011 119.271 73.2764 120.067 72.627 120.639C71.9824 121.205 70.9351 121.488 69.4849 121.488H66.3721ZM68.1299 120.023H69.375C70.2002 120.023 70.813 119.884 71.2134 119.606C71.6138 119.323 71.814 118.871 71.814 118.251C71.814 117.816 71.7163 117.479 71.521 117.24C71.3257 116.996 71.0327 116.825 70.6421 116.728C70.2563 116.63 69.7681 116.581 69.1772 116.581H68.1299V120.023ZM78.8599 110.78C80.2417 110.78 81.25 111.063 81.8848 111.63C82.5195 112.196 82.8369 112.99 82.8369 114.01C82.8369 114.474 82.7637 114.916 82.6172 115.336C82.4756 115.751 82.2412 116.12 81.9141 116.442C81.5869 116.759 81.1548 117.011 80.6177 117.196C80.0854 117.382 79.4287 117.475 78.6475 117.475H77.5049V121.488H75.7471V110.78H78.8599ZM78.7427 112.238H77.5049V116.01H78.4644C79.0161 116.01 79.4849 115.946 79.8706 115.819C80.2563 115.688 80.5493 115.48 80.7495 115.197C80.9497 114.914 81.0498 114.54 81.0498 114.076C81.0498 113.456 80.8618 112.995 80.4858 112.692C80.1147 112.389 79.5337 112.238 78.7427 112.238ZM91.6113 121.488L90.564 118.515H86.4697L85.4224 121.488H83.5693L87.5537 110.736H89.502L93.479 121.488H91.6113ZM90.1099 117.006L89.0918 114.076C89.0527 113.949 88.9966 113.771 88.9233 113.542C88.8501 113.307 88.7769 113.07 88.7036 112.831C88.6304 112.587 88.5693 112.382 88.5205 112.216C88.4717 112.416 88.4106 112.641 88.3374 112.89C88.269 113.134 88.2007 113.363 88.1323 113.578C88.0688 113.793 88.02 113.959 87.9858 114.076L86.9604 117.006H90.1099ZM97.5806 115.951L93.6914 110.78H95.5518L99.3457 115.966V110.78H101.008V115.966L104.802 110.78H106.67L102.773 115.944L106.846 121.488H104.912L101.008 116.061V121.488H99.3457V116.061L95.4346 121.488H93.501L97.5806 115.951ZM114.346 121.488H108.281V110.78H114.346V112.26H110.039V115.167H114.075V116.64H110.039V120.001H114.346V121.488ZM125.105 121.488H123.354V116.654H118.418V121.488H116.66V110.78H118.418V115.16H123.354V110.78H125.105V121.488ZM127.947 110.78H129.551V116.457C129.551 116.701 129.548 116.969 129.543 117.262C129.539 117.555 129.529 117.841 129.514 118.119C129.504 118.397 129.495 118.646 129.485 118.866C129.475 119.081 129.465 119.237 129.456 119.335H129.507L134.956 110.78H137V121.488H135.41V115.856C135.41 115.592 135.415 115.307 135.425 114.999C135.435 114.691 135.447 114.394 135.461 114.105C135.476 113.817 135.491 113.563 135.505 113.344C135.52 113.124 135.53 112.968 135.535 112.875H135.469L130.005 121.488H127.947V110.78ZM143.181 117.196L140.537 121.488H138.545L141.57 116.779C141.228 116.657 140.898 116.481 140.581 116.251C140.269 116.022 140.012 115.709 139.812 115.314C139.617 114.914 139.519 114.413 139.519 113.812C139.519 112.826 139.861 112.074 140.544 111.557C141.233 111.039 142.227 110.78 143.525 110.78H146.741V121.488H144.983V117.196H143.181ZM144.983 112.238H143.599C143.105 112.238 142.688 112.296 142.346 112.414C142.004 112.526 141.746 112.707 141.57 112.956C141.394 113.2 141.306 113.522 141.306 113.922C141.306 114.499 141.497 114.945 141.877 115.263C142.258 115.58 142.839 115.739 143.621 115.739H144.983V112.238Z" fill="#6D6F7C"/>
<path d="M57.6343 31.3601C47.5334 31.3603 40.867 77.103 40.867 77.103H119.855C119.855 77.103 97.8354 47.2175 92.179 48.4373C89.3976 49.0371 88.1139 54.8599 87.3306 57.3826C86.4234 60.304 84.8644 62.3646 83.4219 63.7482C81.7818 65.3215 79.3684 64.3996 78.4728 62.3051C74.6116 53.2745 64.5311 31.36 57.6343 31.3601Z" fill="#ABACB3"/>
<path fill-rule="evenodd" clip-rule="evenodd" d="M126.878 18.9434H34.7414V82.3443H126.878V18.9434ZM32.0543 11.6279C29.4855 11.6279 27.4031 13.7103 27.4031 16.2791V85.0086C27.4031 87.5774 29.4855 89.6598 32.0543 89.6598H129.565C132.134 89.6598 134.217 87.5774 134.217 85.0086V16.2791C134.217 13.7103 132.134 11.6279 129.565 11.6279H32.0543Z" fill="#ABACB3"/>
<path d="M118.958 34.4993C118.958 39.7005 114.537 43.917 109.084 43.917C103.631 43.917 99.2105 39.7005 99.2105 34.4993C99.2105 29.2981 103.631 25.0817 109.084 25.0817C114.537 25.0817 118.958 29.2981 118.958 34.4993Z" fill="#ABACB3"/>
<path fill-rule="evenodd" clip-rule="evenodd" d="M15 0H121.202C123.342 0 125.078 1.73533 125.078 3.87597C125.078 6.01661 123.342 7.75194 121.202 7.75194H22.7519V74.4186C22.7519 76.5592 21.0166 78.2946 18.876 78.2946C16.7353 78.2946 15 76.5592 15 74.4186V0Z" fill="#ABACB3"/>
</svg>
