<svg width="17" height="12" viewBox="0 0 17 12" fill="none" xmlns="http://www.w3.org/2000/svg">
<path d="M2.55118 7.75392C3.04812 7.75392 3.31065 7.75392 3.45129 7.75392C3.51692 7.75392 3.57318 7.75392 3.62944 7.74448C3.69507 7.73503 3.73257 7.71614 3.7607 7.7067L3.66694 7.44225L3.64819 7.38559L3.77008 7.7067C4.26701 7.51781 4.37953 6.88503 4.02323 6.52614C3.96698 6.46947 3.88259 6.40336 3.80758 6.37503L3.65756 6.71503V6.70558L3.80758 6.36558L3.67632 6.29947H2.58868C2.18551 6.29947 1.93236 6.29947 1.77296 6.29947C1.68858 6.29947 1.63232 6.29947 1.58544 6.30892C1.54793 6.30892 1.49168 6.30892 1.43542 6.32781C1.27603 6.37503 1.13538 6.46947 1.04162 6.59225C0.750962 6.97003 0.929108 7.5367 1.36041 7.7067C1.45417 7.74448 1.52918 7.74448 1.66982 7.75392C1.80109 7.75392 2.06362 7.75392 2.55118 7.75392Z" fill="#7A7C8A"/>
<path d="M16.6154 7.82003V6.10114L16.5779 6.01614L16.5498 5.95003L16.231 6.11058H16.2216L16.5498 5.94058C16.531 5.91225 16.5122 5.87447 16.5029 5.87447C16.4935 5.85558 16.4747 5.83669 16.4654 5.8178C16.4372 5.77058 16.3904 5.72336 16.3435 5.65725C16.2497 5.52502 16.1185 5.35502 15.9778 5.17558L15.4996 4.56169L14.9746 3.49446C14.6839 2.88057 14.412 2.3139 14.3745 2.23834L14.0369 2.40834L14.0651 2.3989L14.3745 2.23834C14.0276 1.5489 13.4087 1.08612 12.6493 0.92556L12.5743 1.29389L12.593 1.21834L12.6587 0.92556C12.4805 0.887782 12.4243 0.887782 11.3085 0.887782H10.5396C10.5396 0.765003 10.5396 0.651669 10.5209 0.566669C10.5115 0.500558 10.4928 0.434446 10.4553 0.377779C10.4271 0.321112 10.3896 0.27389 10.3615 0.245557C10.3052 0.179445 10.2209 0.113334 10.1459 0.0755559L9.99583 0H6.13286C4.56705 0 3.62006 0 3.05749 0C2.77621 0 2.59806 0 2.47617 0C2.41991 0 2.37303 0 2.33553 0C2.31678 0 2.29802 0 2.28865 0C2.27927 0 2.24177 0 2.19489 0.018889C1.95111 0.0944448 1.78234 0.283335 1.7167 0.519447C1.64169 0.783892 1.72608 1.04834 1.90423 1.22778C1.9136 1.23723 1.92298 1.24667 1.92298 1.25612C1.97924 1.32223 2.04487 1.36945 2.12925 1.38834C2.19489 1.40723 2.26052 1.41667 2.31678 1.42612C2.38241 1.43556 2.46679 1.43556 2.56993 1.43556C2.99186 1.44501 3.91072 1.44501 5.89846 1.44501H9.05822L9.0676 5.01502V5.10002L9.13323 5.23224C9.17073 5.32669 9.23637 5.40225 9.29262 5.44947C9.3395 5.49669 9.42389 5.5628 9.50827 5.61002C9.56453 5.63836 9.61141 5.63836 9.63954 5.6478C9.66767 5.6478 9.70517 5.65725 9.7333 5.65725C9.79893 5.65725 9.90207 5.66669 10.0802 5.66669C10.4271 5.66669 11.0553 5.66669 12.2086 5.66669L14.5151 5.67614L15.1808 6.52614V8.97226H14.5245C14.2995 8.28281 13.7557 7.72559 13.0618 7.49892C12.9399 7.46114 12.8368 7.43281 12.7243 7.41392C12.6118 7.39503 12.4993 7.39503 12.3586 7.39503C12.1336 7.39503 12.0492 7.39503 11.8992 7.43281C11.2897 7.56503 10.7741 7.90503 10.4365 8.41504C10.3334 8.56615 10.2302 8.77393 10.1646 8.97226H7.30488C7.22987 8.75504 7.11736 8.51893 6.99547 8.34892C6.87358 8.16948 6.63918 7.94281 6.46103 7.81059C6.20787 7.63114 5.88909 7.48948 5.5703 7.42337C5.44841 7.39503 5.28901 7.38559 5.13899 7.38559C4.99835 7.38559 4.82958 7.39503 4.70769 7.41392C4.26701 7.49892 3.85446 7.7067 3.53567 8.01837C3.24501 8.29226 3.04812 8.60393 2.9356 8.97226H2.71057C2.42929 8.97226 2.25114 8.97226 2.12925 8.99115C2.05424 9.00059 1.97924 9.01948 1.90423 9.06671C1.83859 9.10448 1.78234 9.15171 1.76358 9.17059C1.36979 9.52948 1.47292 10.1528 1.95111 10.37C1.96986 10.3795 2.00736 10.3984 2.06362 10.4078C2.1105 10.4173 2.15738 10.4267 2.20426 10.4267C2.28865 10.4267 2.43867 10.4362 2.69182 10.4362H2.94498C3.17001 11.1067 3.69507 11.6356 4.37015 11.8717C4.97022 12.0795 5.58905 12.0323 6.16099 11.7489C6.69543 11.4845 7.10798 10.9934 7.30488 10.4267H10.1552C10.2865 10.8139 10.5396 11.1823 10.8397 11.4373L10.9897 11.2578L11.0835 11.1445L10.8397 11.4373C11.4679 11.9662 12.2836 12.1267 13.0525 11.8717C13.6525 11.6734 14.1495 11.2389 14.412 10.6628C14.4401 10.5967 14.4776 10.5023 14.5058 10.4173L15.6871 10.4078H15.7528L15.8184 10.3889L15.9028 10.3606C16.156 10.2662 16.3716 10.0867 16.4935 9.8506C16.4935 9.84115 16.5404 9.7656 16.5685 9.6806C16.5966 9.5956 16.5966 9.50115 16.606 9.38782C16.6154 9.16115 16.6154 8.71726 16.6154 7.82003ZM1.94173 1.25612L2.16676 1.01056L2.19489 0.982226L1.94173 1.25612ZM13.7275 4.22168C13.7182 4.22168 13.7182 4.22168 13.7088 4.22168C13.3337 4.22168 12.8087 4.22168 12.2367 4.22168H10.5303V2.32334H11.2522C11.7867 2.32334 12.0586 2.32334 12.2086 2.33279C12.3586 2.33279 12.3586 2.34223 12.3774 2.34223C12.6774 2.40834 12.9024 2.57834 13.0431 2.80501L13.3431 2.62557L13.3056 2.64446L13.0431 2.80501C13.0431 2.79557 13.0525 2.81446 13.0806 2.88057C13.1087 2.93723 13.1462 3.01279 13.1931 3.10724C13.2869 3.29613 13.3994 3.53224 13.5213 3.79668L13.7182 3.70224L13.7932 3.66446L13.5213 3.79668C13.5963 3.94779 13.6619 4.09891 13.7275 4.22168ZM5.66406 10.3512C5.57967 10.4173 5.43903 10.4928 5.33589 10.5212C5.28901 10.5306 5.27964 10.5306 5.26088 10.54C5.24213 10.54 5.20463 10.54 5.12024 10.54C5.03586 10.54 5.00773 10.54 4.9796 10.54C4.97022 10.54 4.95147 10.54 4.90459 10.5212C4.59518 10.4362 4.3514 10.1906 4.28577 9.89782C4.26701 9.82226 4.25764 9.65226 4.26701 9.56726C4.31389 9.21782 4.5858 8.92504 4.95147 8.84948C4.95147 8.84948 4.97022 8.84948 5.00773 8.84948C5.04523 8.84948 5.09211 8.84948 5.13899 8.84948C5.18587 8.84948 5.23276 8.84948 5.27026 8.85893C5.28901 8.85893 5.30776 8.85893 5.31714 8.86837C5.32652 8.86837 5.33589 8.86837 5.33589 8.86837C5.40153 8.88726 5.53279 8.94393 5.6078 8.99115C5.70156 9.05726 5.83283 9.19893 5.88908 9.31226C6.06723 9.66171 5.96409 10.1056 5.66406 10.3512ZM13.1837 9.7656C13.1462 10.1056 12.9212 10.3889 12.593 10.5023C12.4149 10.5589 12.1898 10.5495 12.0117 10.4739C11.6085 10.3039 11.3929 9.86949 11.5054 9.45393C11.5054 9.45393 11.5054 9.45393 11.5148 9.43504C11.5148 9.4256 11.5241 9.40671 11.5335 9.39726C11.5429 9.36893 11.5616 9.33115 11.571 9.30282C11.6648 9.10448 11.8242 8.96282 12.0305 8.88726C12.1055 8.85893 12.143 8.84948 12.1711 8.84948C12.1992 8.84004 12.2461 8.84004 12.3586 8.84004C12.443 8.84004 12.4805 8.84004 12.5086 8.84948C12.518 8.84948 12.5274 8.84948 12.5649 8.85893L12.668 8.51892L12.6774 8.50004L12.5743 8.85893C12.9681 8.99115 13.2212 9.36893 13.1837 9.7656Z" fill="#7A7C8A"/>
<path d="M1.29478 3.53224L1.36041 3.56057L1.43542 3.59835H5.73907L5.81408 3.56057L5.87971 3.53224C5.97347 3.48502 6.05786 3.4189 6.12349 3.35279C6.3954 3.06001 6.37664 2.62557 6.09536 2.35168C6.08598 2.34223 6.09536 2.35168 6.08598 2.34223C6.08598 2.34223 6.07661 2.33279 6.06723 2.32334C6.02973 2.28557 5.98285 2.23834 5.90784 2.21001C5.8047 2.16279 5.67343 2.15334 5.56092 2.15334C5.29839 2.1439 4.75457 2.1439 3.60131 2.1439C2.61681 2.1439 2.10113 2.1439 1.81984 2.1439C1.6792 2.1439 1.59481 2.1439 1.53856 2.15334C1.4823 2.15334 1.41667 2.16279 1.35103 2.19112C1.18226 2.25723 1.051 2.38001 0.966613 2.54057C0.77909 2.91835 0.938485 3.35279 1.29478 3.53224Z" fill="#7A7C8A"/>
<path d="M4.69832 5.66669C4.81083 5.66669 4.94209 5.65725 5.04523 5.61002C5.12024 5.57225 5.16712 5.53447 5.20463 5.49669C5.214 5.48725 5.214 5.48725 5.214 5.4778C5.214 5.4778 5.214 5.4778 5.214 5.46836C5.214 5.46836 5.214 5.46836 5.20463 5.4778C5.32652 5.36447 5.4109 5.20391 5.42965 5.04335C5.44841 4.89224 5.4109 4.76002 5.36402 4.65613C5.31714 4.55224 5.23276 4.43891 5.12024 4.36335C5.12962 4.3728 5.04523 4.29724 4.92334 4.26891C4.83896 4.25002 4.73582 4.24057 4.61393 4.24057C4.3514 4.23113 3.81696 4.23113 2.71057 4.23113C1.76358 4.23113 1.2479 4.23113 0.966613 4.23113C0.825971 4.23113 0.741586 4.23113 0.675953 4.24057C0.619696 4.24057 0.554063 4.25002 0.48843 4.26891C-0.0178815 4.44835 -0.1679 5.08113 0.216522 5.46836C0.272779 5.52502 0.347788 5.58169 0.413421 5.61002L0.48843 5.63836L0.563439 5.67614H2.72933C3.89197 5.67614 4.43578 5.67614 4.69832 5.66669Z" fill="#7A7C8A"/>
</svg>
