<svg width="49" height="49" viewBox="0 0 49 49" fill="none" xmlns="http://www.w3.org/2000/svg">
<circle cx="24.5" cy="24.5" r="23.5" stroke="#E30613" stroke-width="2"/>
<path d="M24.1867 28.9241C24.1867 29.4907 24.1867 30.0292 24.1867 30.5865C25.2496 30.5865 28.1977 30.5865 29.2751 30.5865C29.2751 31.4856 29.2751 32.3613 29.2751 33.2558C28.2122 33.2558 25.2641 33.2558 24.1915 33.2558C24.1915 34.1783 24.1915 35.0821 24.1915 36C21.7625 36 21.2523 36 18.8089 36C18.8089 35.0962 18.8089 34.1924 18.8089 33.2652C17.8566 33.2652 16.9379 33.2652 16 33.2652C16 32.3707 16 31.495 16 30.5912C16.9235 30.5912 17.8518 30.5912 18.7945 30.5912C18.7945 25.0559 18.7945 19.5488 18.7945 14.0042C18.8907 14.0042 18.9677 14.0042 19.0446 14.0042C23.2388 14.0042 22.6913 13.9948 26.8855 14.0042C30.565 14.0135 33.4605 16.533 33.903 20.092C34.0906 21.628 34.0425 23.15 33.4317 24.6064C32.3783 27.0977 30.4544 28.5026 27.7224 28.8585C27.3424 28.91 26.9528 28.9147 26.5728 28.9147C24.9279 28.9241 26.1298 28.9194 24.4849 28.9241C24.3887 28.9241 24.3021 28.9241 24.1867 28.9241ZM24.1915 23.7494C25.3314 23.7494 26.4617 23.7869 27.5872 23.7353C28.5732 23.6885 29.237 23.0891 29.4005 22.1853C29.463 21.8528 29.4727 21.5016 29.4486 21.1597C29.3572 19.9656 28.7464 19.324 27.5103 19.2491C26.4184 19.1788 25.317 19.2257 24.2203 19.221C24.2155 19.221 24.2059 19.2303 24.1867 19.2491C24.1915 20.7383 24.1915 22.2415 24.1915 23.7494Z" fill="#E40B12"/>
</svg>
