<svg width="49" height="49" viewBox="0 0 49 49" fill="none" xmlns="http://www.w3.org/2000/svg">
<circle cx="24.5" cy="24.5" r="23.5" stroke="#E30613" stroke-width="2"/>
<mask id="path-2-outside-1_2708_11939" maskUnits="userSpaceOnUse" x="11" y="14" width="27" height="22" fill="black">
<rect fill="white" x="11" y="14" width="27" height="22"/>
<path d="M34.32 15H14.48C13.1036 15 12.0124 16.1125 12.0124 17.5L12 32.5C12 33.8875 13.1036 35 14.48 35H34.32C35.6964 35 36.8 33.8875 36.8 32.5V17.5C36.8 16.1125 35.6964 15 34.32 15ZM34.32 32.5H14.48V25H34.32V32.5ZM34.32 20H14.48V17.5H34.32V20Z"/>
</mask>
<path d="M34.32 15H14.48C13.1036 15 12.0124 16.1125 12.0124 17.5L12 32.5C12 33.8875 13.1036 35 14.48 35H34.32C35.6964 35 36.8 33.8875 36.8 32.5V17.5C36.8 16.1125 35.6964 15 34.32 15ZM34.32 32.5H14.48V25H34.32V32.5ZM34.32 20H14.48V17.5H34.32V20Z" fill="#E40B12"/>
<path d="M34.32 15H14.48C13.1036 15 12.0124 16.1125 12.0124 17.5L12 32.5C12 33.8875 13.1036 35 14.48 35H34.32C35.6964 35 36.8 33.8875 36.8 32.5V17.5C36.8 16.1125 35.6964 15 34.32 15ZM34.32 32.5H14.48V25H34.32V32.5ZM34.32 20H14.48V17.5H34.32V20Z" stroke="#E30613" mask="url(#path-2-outside-1_2708_11939)"/>
</svg>
