<svg width="13" height="18" viewBox="0 0 13 18" fill="none" xmlns="http://www.w3.org/2000/svg">
    <path fill-rule="evenodd" clip-rule="evenodd"
          d="M5.82718 16.8984C6.24133 17.3708 6.5 17.6429 6.5 17.6429C6.5 17.6429 6.75867 17.3708 7.17282 16.8984C8.83469 15.003 13 9.88236 13 6.175C13 2.76111 10.0936 0 6.5 0C2.90643 0 0 2.76111 0 6.175C0 9.88236 4.16531 15.003 5.82718 16.8984ZM6.5 16.1487C6.58005 16.0568 6.66539 15.958 6.7553 15.8527C7.35131 15.1551 8.14409 14.1798 8.9347 13.0666C9.72744 11.9504 10.5045 10.7144 11.0799 9.49413C11.662 8.25969 12 7.11988 12 6.175C12 3.36111 9.59024 1 6.5 1C3.40976 1 1 3.36111 1 6.175C1 7.11988 1.33796 8.25969 1.9201 9.49413C2.49555 10.7144 3.27256 11.9504 4.0653 13.0666C4.85591 14.1798 5.64869 15.1551 6.2447 15.8527C6.33461 15.958 6.41995 16.0568 6.5 16.1487Z"
          fill="#6D6F7C"/>
    <path fill-rule="evenodd" clip-rule="evenodd"
          d="M5 6.46875C5 7.29646 5.67228 7.96875 6.5 7.96875C7.32771 7.96875 8 7.29646 8 6.46875C8 5.64103 7.32772 4.96875 6.5 4.96875C5.67228 4.96875 5 5.64103 5 6.46875ZM4 6.46875C4 7.84875 5.12 8.96875 6.5 8.96875C7.88 8.96875 9 7.84875 9 6.46875C9 5.08875 7.88 3.96875 6.5 3.96875C5.12 3.96875 4 5.08875 4 6.46875Z"
          fill="#6D6F7C"/>
</svg>
