<svg width="18" height="18" viewBox="0 0 18 18" fill="none" xmlns="http://www.w3.org/2000/svg">
<path fill-rule="evenodd" clip-rule="evenodd" d="M9 16.44C13.109 16.44 16.44 13.109 16.44 9C16.44 4.891 13.109 1.56 9 1.56C4.891 1.56 1.56 4.891 1.56 9C1.56 13.109 4.891 16.44 9 16.44ZM9 18C13.9706 18 18 13.9706 18 9C18 4.02944 13.9706 0 9 0C4.02944 0 0 4.02944 0 9C0 13.9706 4.02944 18 9 18Z" fill="#6D6F7C"/>
<path d="M7.95908 10.1476L5.67467 7.86316L4.53783 9L7.94836 12.4105L13.7368 6.53684L12.6 5.4L7.95908 10.1476Z" fill="#6D6F7C"/>
</svg>
