<svg width="117" height="116" viewBox="0 0 117 116" fill="none" xmlns="http://www.w3.org/2000/svg">
<path fill-rule="evenodd" clip-rule="evenodd" d="M25.5 103.372C25.5793 103.322 25.6541 103.275 25.7232 103.231C29.0203 101.094 32.6067 100.165 36.1217 100.541C39.6392 100.917 42.9387 102.585 45.6827 105.387C48.4571 108.203 48.9245 111.94 49.266 114.786C49.3819 115.682 49.5624 115.893 49.5764 115.907C49.5764 115.907 49.5767 115.908 49.5787 115.909C49.5822 115.911 49.6012 115.922 49.6454 115.936C49.7407 115.966 49.9415 116.007 50.3081 115.999L50.3211 115.999L50.3378 115.999C55.7281 115.955 61.1279 115.911 66.529 115.911C66.7294 115.911 66.8732 115.899 66.9724 115.883C66.9791 115.824 66.9843 115.745 66.9843 115.643C66.9843 114.977 67.0949 114.347 67.2025 113.836C67.2637 113.545 67.3125 113.336 67.3563 113.148C67.4078 112.927 67.4526 112.735 67.5023 112.475L67.5092 112.439L67.5175 112.403C69.2543 104.85 75.9983 99.4111 83.994 100.533L83.9975 100.533C85.7337 100.78 87.3329 101.503 88.7375 102.289C89.6985 102.827 90.6817 103.464 91.5793 104.045C91.9619 104.293 92.329 104.53 92.6722 104.746L92.6743 104.747C92.9477 104.919 93.1259 105.009 93.2411 105.055C93.2903 105.021 93.3621 104.965 93.4584 104.877L93.4634 104.872C94.4842 103.944 95.4764 103.085 96.4453 102.245C98.0272 100.875 99.547 99.5585 101.027 98.0859C102.367 96.7531 103.508 95.3408 104.775 93.7717L104.777 93.7686C105.02 93.4687 105.266 93.163 105.52 92.8511C103.931 90.798 102.466 88.5926 101.622 86.1495C100.564 83.0885 100.511 79.756 102.084 76.0042C103.634 72.2992 106.021 70.0102 108.897 68.602C111.221 67.4638 113.809 66.9316 116.36 66.595C117.223 60.8771 117.197 55.2233 116.38 49.3797C113.873 49.0192 111.289 48.4875 108.961 47.363C106.068 45.9656 103.637 43.6892 102.081 39.9446L102.079 39.9383C100.559 36.2444 100.586 32.9455 101.605 29.9094C102.431 27.4498 103.885 25.2376 105.495 23.1827C102.012 18.4408 97.9683 14.4307 93.2628 11.0462C93.1957 11.0486 93.13 11.0575 93.0789 11.0691C93.0652 11.0722 93.0548 11.0751 93.0476 11.0772C91.9625 11.6581 90.9431 12.3596 89.9909 13.1491L89.9828 13.1558L89.9745 13.1625C86.0911 16.3136 80.6067 16.0298 76.3196 14.2402C72.0587 12.4616 68.0438 8.79686 67.6489 4.05466L67.6484 4.049C67.6233 3.73639 67.536 3.41257 67.384 2.84846L67.3711 2.80049C67.2336 2.29022 67.0282 1.52721 67.0282 0.70443C67.0282 0.330521 66.9752 0.156754 66.946 0.0917282C66.8861 0.0645523 66.6984 0 66.266 0C60.7841 0 55.3553 1.52588e-05 49.884 0.0435638L49.8761 0.0436249H49.8681C49.6665 0.0436249 49.5461 0.0637741 49.4843 0.0791168C49.4519 0.15757 49.393 0.345177 49.3634 0.72242C49.1237 4.07164 48.203 7.06962 46.3713 9.53588C44.5302 12.0147 41.8848 13.7999 38.4721 14.9076L38.4684 14.9088C32.9338 16.6932 28.2846 15.0909 24.3745 11.7844L24.3659 11.7771L24.3574 11.7698C23.5704 11.0889 23.2484 11.1192 23.1842 11.1252L23.183 11.1253C23.004 11.1421 22.6152 11.2735 21.7686 11.9715C17.6957 15.3549 14.0268 18.9956 10.8993 23.1944C11.0098 23.368 11.1193 23.5404 11.2282 23.7118L11.2338 23.7204C12.1219 25.1181 12.9655 26.4456 13.9118 27.7517C16.4194 31.2042 15.7873 36.1632 14.1974 39.9466C13.3695 41.9169 12.2051 43.7783 10.814 45.2412C9.44138 46.6847 7.71468 47.8759 5.74939 48.2146L5.73944 48.2164L5.72949 48.218C4.9233 48.3485 4.12956 48.5321 3.26025 48.7332L3.07565 48.7758C2.15824 48.9877 1.15796 49.2142 0.116486 49.3588L0.113373 49.3593C0.0715334 49.365 0.0338364 49.371 0 49.3772V66.7253C0.88924 66.8055 1.84277 67.0046 2.65436 67.1741C2.97444 67.241 3.27278 67.3033 3.53604 67.3518L3.54495 67.3534L3.55386 67.3551C11.1039 68.8171 16.4603 76.0893 15.5958 83.6779L15.5953 83.682C15.4212 85.1832 14.8057 86.5833 14.1556 87.6818C13.2593 89.2655 12.2538 90.8207 11.2608 92.3566L10.9511 92.8359C14.3696 97.3503 18.2665 101.232 22.6862 104.687C22.9847 104.919 23.1618 105.007 23.2436 105.04C23.3089 105.003 23.4327 104.917 23.6247 104.733L23.6424 104.716L23.6606 104.7C24.2555 104.157 24.9763 103.703 25.5 103.372ZM15.9493 57.9815V57.9775C15.9493 34.8843 34.8672 15.9823 58.0153 15.8907C81.3026 15.7992 100.314 34.6606 100.36 57.8863C100.406 81.2084 81.4766 99.977 58.1109 99.977C34.9133 99.977 15.9953 81.1157 15.9493 57.9815Z" fill="#E30613"/>
<path d="M66.9275 0.0595474C66.9275 0.0595474 66.93 0.0653534 66.9373 0.0739136C66.9315 0.0632935 66.9275 0.0595474 66.9275 0.0595474Z" fill="#E30613"/>
<path d="M23.1871 105.067C23.1871 105.067 23.1903 105.067 23.1971 105.064C23.1905 105.065 23.1871 105.067 23.1871 105.067Z" fill="#E30613"/>
<path d="M52.125 58.5781C52.125 62.5677 51.4688 65.5208 50.1562 67.4375C48.8542 69.3542 46.8438 70.3125 44.125 70.3125C41.4896 70.3125 39.5 69.3229 38.1562 67.3438C36.8229 65.3646 36.1562 62.4427 36.1562 58.5781C36.1562 54.5469 36.8073 51.5781 38.1094 49.6719C39.4115 47.7552 41.4167 46.7969 44.125 46.7969C46.7604 46.7969 48.75 47.7969 50.0938 49.7969C51.4479 51.7969 52.125 54.724 52.125 58.5781ZM40.9531 58.5781C40.9531 61.3802 41.1927 63.3906 41.6719 64.6094C42.1615 65.8177 42.9792 66.4219 44.125 66.4219C45.25 66.4219 46.0625 65.8073 46.5625 64.5781C47.0625 63.349 47.3125 61.349 47.3125 58.5781C47.3125 55.776 47.0573 53.7656 46.5469 52.5469C46.0469 51.3177 45.2396 50.7031 44.125 50.7031C42.9896 50.7031 42.1771 51.3177 41.6875 52.5469C41.1979 53.7656 40.9531 55.776 40.9531 58.5781Z" fill="#E30613"/>
<path d="M57.0625 53.9688C57.0625 55.7396 57.2552 57.0677 57.6406 57.9531C58.026 58.8385 58.651 59.2812 59.5156 59.2812C61.224 59.2812 62.0781 57.5104 62.0781 53.9688C62.0781 50.4479 61.224 48.6875 59.5156 48.6875C58.651 48.6875 58.026 49.125 57.6406 50C57.2552 50.875 57.0625 52.1979 57.0625 53.9688ZM64.2188 53.9688C64.2188 56.3438 63.8177 58.1406 63.0156 59.3594C62.224 60.5677 61.0573 61.1719 59.5156 61.1719C58.0573 61.1719 56.9219 60.5521 56.1094 59.3125C55.3073 58.0729 54.9062 56.2917 54.9062 53.9688C54.9062 51.6042 55.2917 49.8229 56.0625 48.625C56.8438 47.4271 57.9948 46.8281 59.5156 46.8281C61.026 46.8281 62.1875 47.4479 63 48.6875C63.8125 49.9271 64.2188 51.6875 64.2188 53.9688ZM70.8125 63.125C70.8125 64.9062 71.0052 66.2396 71.3906 67.125C71.776 68 72.4062 68.4375 73.2812 68.4375C74.1562 68.4375 74.8021 68.0052 75.2188 67.1406C75.6354 66.2656 75.8438 64.9271 75.8438 63.125C75.8438 61.3438 75.6354 60.026 75.2188 59.1719C74.8021 58.3073 74.1562 57.875 73.2812 57.875C72.4062 57.875 71.776 58.3073 71.3906 59.1719C71.0052 60.026 70.8125 61.3438 70.8125 63.125ZM77.9844 63.125C77.9844 65.4896 77.5833 67.2812 76.7812 68.5C75.9896 69.7083 74.8229 70.3125 73.2812 70.3125C71.8021 70.3125 70.6615 69.6927 69.8594 68.4531C69.0677 67.2135 68.6719 65.4375 68.6719 63.125C68.6719 60.7604 69.0573 58.9792 69.8281 57.7812C70.6094 56.5833 71.7604 55.9844 73.2812 55.9844C74.7604 55.9844 75.9115 56.599 76.7344 57.8281C77.5677 59.0469 77.9844 60.8125 77.9844 63.125ZM73.9531 47.1562L61.2812 70H58.9844L71.6562 47.1562H73.9531Z" fill="#2E3541"/>
</svg>
