<svg width="117" height="116" viewBox="0 0 117 116" fill="none" xmlns="http://www.w3.org/2000/svg">
<path d="M43.25 70H27.2812V66.6406L33.0156 60.8438C34.7135 59.1042 35.8229 57.901 36.3438 57.2344C36.8646 56.5573 37.2396 55.9323 37.4688 55.3594C37.6979 54.7865 37.8125 54.1927 37.8125 53.5781C37.8125 52.6615 37.5573 51.9792 37.0469 51.5312C36.5469 51.0833 35.875 50.8594 35.0312 50.8594C34.1458 50.8594 33.2865 51.0625 32.4531 51.4688C31.6198 51.875 30.75 52.4531 29.8438 53.2031L27.2188 50.0938C28.3438 49.1354 29.276 48.4583 30.0156 48.0625C30.7552 47.6667 31.5625 47.3646 32.4375 47.1562C33.3125 46.9375 34.2917 46.8281 35.375 46.8281C36.8021 46.8281 38.0625 47.0885 39.1562 47.6094C40.25 48.1302 41.099 48.8594 41.7031 49.7969C42.3073 50.7344 42.6094 51.8073 42.6094 53.0156C42.6094 54.0677 42.4219 55.0573 42.0469 55.9844C41.6823 56.901 41.1094 57.8438 40.3281 58.8125C39.5573 59.7812 38.1927 61.1615 36.2344 62.9531L33.2969 65.7188V65.9375H43.25V70ZM61.4062 58.5781C61.4062 62.5677 60.75 65.5208 59.4375 67.4375C58.1354 69.3542 56.125 70.3125 53.4062 70.3125C50.7708 70.3125 48.7812 69.3229 47.4375 67.3438C46.1042 65.3646 45.4375 62.4427 45.4375 58.5781C45.4375 54.5469 46.0885 51.5781 47.3906 49.6719C48.6927 47.7552 50.6979 46.7969 53.4062 46.7969C56.0417 46.7969 58.0312 47.7969 59.375 49.7969C60.7292 51.7969 61.4062 54.724 61.4062 58.5781ZM50.2344 58.5781C50.2344 61.3802 50.474 63.3906 50.9531 64.6094C51.4427 65.8177 52.2604 66.4219 53.4062 66.4219C54.5312 66.4219 55.3438 65.8073 55.8438 64.5781C56.3438 63.349 56.5938 61.349 56.5938 58.5781C56.5938 55.776 56.3385 53.7656 55.8281 52.5469C55.3281 51.3177 54.5208 50.7031 53.4062 50.7031C52.2708 50.7031 51.4583 51.3177 50.9688 52.5469C50.4792 53.7656 50.2344 55.776 50.2344 58.5781Z" fill="#E30613"/>
<path d="M66.3438 53.9688C66.3438 55.7396 66.5365 57.0677 66.9219 57.9531C67.3073 58.8385 67.9323 59.2812 68.7969 59.2812C70.5052 59.2812 71.3594 57.5104 71.3594 53.9688C71.3594 50.4479 70.5052 48.6875 68.7969 48.6875C67.9323 48.6875 67.3073 49.125 66.9219 50C66.5365 50.875 66.3438 52.1979 66.3438 53.9688ZM73.5 53.9688C73.5 56.3438 73.099 58.1406 72.2969 59.3594C71.5052 60.5677 70.3385 61.1719 68.7969 61.1719C67.3385 61.1719 66.2031 60.5521 65.3906 59.3125C64.5885 58.0729 64.1875 56.2917 64.1875 53.9688C64.1875 51.6042 64.5729 49.8229 65.3438 48.625C66.125 47.4271 67.276 46.8281 68.7969 46.8281C70.3073 46.8281 71.4688 47.4479 72.2812 48.6875C73.0938 49.9271 73.5 51.6875 73.5 53.9688ZM80.0938 63.125C80.0938 64.9062 80.2865 66.2396 80.6719 67.125C81.0573 68 81.6875 68.4375 82.5625 68.4375C83.4375 68.4375 84.0833 68.0052 84.5 67.1406C84.9167 66.2656 85.125 64.9271 85.125 63.125C85.125 61.3438 84.9167 60.026 84.5 59.1719C84.0833 58.3073 83.4375 57.875 82.5625 57.875C81.6875 57.875 81.0573 58.3073 80.6719 59.1719C80.2865 60.026 80.0938 61.3438 80.0938 63.125ZM87.2656 63.125C87.2656 65.4896 86.8646 67.2812 86.0625 68.5C85.2708 69.7083 84.1042 70.3125 82.5625 70.3125C81.0833 70.3125 79.9427 69.6927 79.1406 68.4531C78.349 67.2135 77.9531 65.4375 77.9531 63.125C77.9531 60.7604 78.3385 58.9792 79.1094 57.7812C79.8906 56.5833 81.0417 55.9844 82.5625 55.9844C84.0417 55.9844 85.1927 56.599 86.0156 57.8281C86.849 59.0469 87.2656 60.8125 87.2656 63.125ZM83.2344 47.1562L70.5625 70H68.2656L80.9375 47.1562H83.2344Z" fill="#2E3541"/>
<path fill-rule="evenodd" clip-rule="evenodd" d="M25.5 103.372C25.5793 103.322 25.6541 103.275 25.7232 103.231C29.0203 101.094 32.6067 100.165 36.1217 100.541C39.6392 100.917 42.9387 102.585 45.6827 105.387C48.4571 108.203 48.9245 111.94 49.266 114.786C49.3819 115.682 49.5624 115.893 49.5764 115.907C49.5764 115.907 49.5767 115.908 49.5787 115.909C49.5822 115.911 49.6012 115.922 49.6455 115.936C49.7407 115.966 49.9415 116.007 50.3081 115.999L50.3211 115.999L50.3378 115.999C55.7281 115.955 61.1279 115.911 66.529 115.911C66.7294 115.911 66.8732 115.899 66.9724 115.883C66.9791 115.824 66.9843 115.745 66.9843 115.643C66.9843 114.977 67.0949 114.347 67.2026 113.836C67.2637 113.545 67.3125 113.336 67.3563 113.148C67.4078 112.927 67.4525 112.735 67.5023 112.475L67.5092 112.439L67.5175 112.403C69.2543 104.85 75.9983 99.4111 83.994 100.533L83.9975 100.533C85.7337 100.78 87.3329 101.503 88.7375 102.289C89.6985 102.827 90.6817 103.464 91.5793 104.045C91.9619 104.293 92.329 104.53 92.6722 104.746L92.6743 104.747C92.9476 104.919 93.1259 105.009 93.2412 105.055C93.2903 105.021 93.3621 104.965 93.4584 104.877L93.4634 104.872C94.4842 103.944 95.4764 103.085 96.4453 102.245C98.0272 100.875 99.5469 99.5585 101.027 98.0859C102.367 96.7531 103.508 95.3408 104.775 93.7717L104.777 93.7686C105.02 93.4687 105.266 93.163 105.52 92.8511C103.931 90.798 102.466 88.5926 101.622 86.1495C100.564 83.0885 100.511 79.756 102.084 76.0042C103.634 72.2992 106.021 70.0102 108.897 68.602C111.221 67.4638 113.809 66.9316 116.36 66.595C117.223 60.8771 117.197 55.2233 116.38 49.3797C113.873 49.0192 111.289 48.4875 108.961 47.363C106.068 45.9656 103.637 43.6892 102.081 39.9446L102.079 39.9383C100.559 36.2444 100.586 32.9455 101.605 29.9094C102.431 27.4498 103.885 25.2376 105.495 23.1827C102.012 18.4408 97.9683 14.4307 93.2628 11.0462C93.1957 11.0486 93.13 11.0575 93.0789 11.0691C93.0652 11.0722 93.0548 11.0751 93.0476 11.0772C91.9625 11.6581 90.9431 12.3596 89.9909 13.1491L89.9827 13.1558L89.9746 13.1625C86.0911 16.3136 80.6067 16.0298 76.3197 14.2402C72.0587 12.4616 68.0438 8.79686 67.6489 4.05466L67.6484 4.049C67.6233 3.73639 67.536 3.41257 67.384 2.84846L67.3711 2.80049C67.2336 2.29022 67.0282 1.52721 67.0282 0.70443C67.0282 0.330521 66.9752 0.156754 66.9461 0.0917282C66.8861 0.0645523 66.6984 0 66.266 0C60.7841 0 55.3553 1.52588e-05 49.884 0.0435638L49.8761 0.0436249H49.8681C49.6665 0.0436249 49.5461 0.0637741 49.4843 0.0791168C49.4519 0.15757 49.393 0.345177 49.3634 0.72242C49.1237 4.07164 48.203 7.06962 46.3713 9.53588C44.5302 12.0147 41.8848 13.7999 38.4721 14.9076L38.4684 14.9088C32.9338 16.6932 28.2846 15.0909 24.3745 11.7844L24.3659 11.7771L24.3574 11.7698C23.5704 11.0889 23.2484 11.1192 23.1842 11.1252L23.183 11.1253C23.004 11.1421 22.6152 11.2735 21.7686 11.9715C17.6957 15.3549 14.0268 18.9956 10.8993 23.1944C11.0098 23.368 11.1194 23.5404 11.2283 23.7118L11.2338 23.7204C12.1219 25.1181 12.9655 26.4456 13.9118 27.7517C16.4194 31.2042 15.7873 36.1632 14.1974 39.9466C13.3695 41.9169 12.2051 43.7783 10.814 45.2412C9.44138 46.6847 7.71469 47.8759 5.7494 48.2146L5.73945 48.2164L5.72948 48.218C4.92329 48.3485 4.12956 48.5321 3.26026 48.7332L3.07566 48.7758C2.15825 48.9877 1.15795 49.2142 0.116473 49.3588L0.113371 49.3593C0.0715315 49.365 0.0338364 49.371 0 49.3772V66.7253C0.88924 66.8055 1.84276 67.0046 2.65435 67.1741C2.97442 67.241 3.27277 67.3033 3.53603 67.3518L3.54495 67.3534L3.55386 67.3551C11.1039 68.8171 16.4603 76.0893 15.5958 83.6779L15.5953 83.682C15.4212 85.1832 14.8057 86.5833 14.1556 87.6818C13.2593 89.2655 12.2538 90.8207 11.2608 92.3566L10.9511 92.8359C14.3696 97.3503 18.2665 101.232 22.6863 104.687C22.9847 104.919 23.1618 105.007 23.2436 105.04C23.3089 105.003 23.4327 104.917 23.6247 104.733L23.6424 104.716L23.6606 104.7C24.2555 104.157 24.9763 103.703 25.5 103.372ZM15.9493 57.9815V57.9775C15.9493 34.8843 34.8672 15.9823 58.0153 15.8907C81.3026 15.7992 100.314 34.6606 100.36 57.8863C100.406 81.2084 81.4766 99.977 58.1109 99.977C34.9133 99.977 15.9953 81.1157 15.9493 57.9815Z" fill="#E30613"/>
<path d="M66.9275 0.0595474C66.9275 0.0595474 66.93 0.0653534 66.9373 0.0739136C66.9315 0.0632935 66.9275 0.0595474 66.9275 0.0595474Z" fill="#E30613"/>
<path d="M23.1871 105.067C23.1871 105.067 23.1903 105.067 23.1971 105.064C23.1905 105.065 23.1871 105.067 23.1871 105.067Z" fill="#E30613"/>
</svg>
