<svg width="117" height="116" viewBox="0 0 117 116" fill="none" xmlns="http://www.w3.org/2000/svg">
<path fill-rule="evenodd" clip-rule="evenodd" d="M25.5 12.6277C25.5793 12.6777 25.6541 12.7249 25.7232 12.769C29.0203 14.9057 32.6067 15.8346 36.1217 15.4588C39.6392 15.0827 42.9387 13.4155 45.6827 10.6133C48.4571 7.79708 48.9245 4.05969 49.266 1.21447C49.3819 0.317738 49.5624 0.107127 49.5764 0.0927416C49.5764 0.0927416 49.5767 0.0924207 49.5787 0.0911864C49.5822 0.0890757 49.6012 0.0779456 49.6455 0.0638501C49.7407 0.0335146 49.9415 -0.00678632 50.3081 0.00097242L50.3211 0.00124922L50.3378 0.00138369C55.7281 0.0449832 61.1279 0.0886592 66.529 0.0886592C66.7294 0.0886592 66.8732 0.101446 66.9724 0.117206C66.9791 0.17648 66.9843 0.255259 66.9843 0.356897C66.9843 1.02343 67.0949 1.6526 67.2025 2.16449C67.2637 2.45512 67.3125 2.66424 67.3563 2.85198C67.4078 3.07302 67.4526 3.26471 67.5023 3.52466L67.5092 3.56085L67.5175 3.59675C69.2543 11.1501 75.9983 16.5889 83.994 15.4671L83.9975 15.4666C85.7337 15.2199 87.3329 14.4966 88.7375 13.7106C89.6985 13.1727 90.6817 12.5362 91.5793 11.9552C91.9619 11.7075 92.329 11.4698 92.6722 11.2542L92.6743 11.2528C92.9477 11.0806 93.1259 10.9906 93.2411 10.9448C93.2903 10.9793 93.3621 11.0351 93.4584 11.1233L93.4634 11.1278C94.4842 12.0558 95.4764 12.9153 96.4453 13.7546C98.0272 15.125 99.547 16.4415 101.027 17.9141C102.367 19.2469 103.508 20.6592 104.775 22.2283L104.777 22.2314C105.02 22.5313 105.266 22.837 105.52 23.1489C103.931 25.202 102.466 27.4074 101.622 29.8505C100.564 32.9115 100.511 36.244 102.084 39.9958C103.634 43.7008 106.021 45.9898 108.897 47.398C111.221 48.5362 113.809 49.0684 116.36 49.405C117.223 55.1229 117.197 60.7767 116.38 66.6203C113.873 66.9808 111.289 67.5125 108.961 68.637C106.068 70.0344 103.637 72.3108 102.081 76.0554L102.079 76.0617C100.559 79.7556 100.586 83.0545 101.605 86.0906C102.431 88.5502 103.885 90.7624 105.495 92.8173C102.012 97.5592 97.9683 101.569 93.2628 104.954C93.1957 104.951 93.13 104.943 93.0789 104.931C93.0652 104.928 93.0548 104.925 93.0476 104.923C91.9625 104.342 90.9431 103.64 89.9909 102.851L89.9828 102.844L89.9745 102.838C86.0911 99.6864 80.6067 99.9702 76.3196 101.76C72.0587 103.538 68.0438 107.203 67.6489 111.945L67.6484 111.951C67.6233 112.264 67.536 112.587 67.384 113.152L67.3711 113.2C67.2336 113.71 67.0282 114.473 67.0282 115.296C67.0282 115.669 66.9752 115.843 66.946 115.908C66.8861 115.935 66.6984 116 66.266 116C60.7841 116 55.3553 116 49.884 115.956L49.8761 115.956H49.8681C49.6665 115.956 49.5461 115.936 49.4843 115.921C49.4519 115.842 49.393 115.655 49.3634 115.278C49.1237 111.928 48.203 108.93 46.3713 106.464C44.5302 103.985 41.8848 102.2 38.4721 101.092L38.4684 101.091C32.9338 99.3068 28.2846 100.909 24.3745 104.216L24.3659 104.223L24.3574 104.23C23.5704 104.911 23.2484 104.881 23.1842 104.875L23.183 104.875C23.004 104.858 22.6152 104.726 21.7686 104.029C17.6957 100.645 14.0268 97.0044 10.8993 92.8056C11.0098 92.632 11.1194 92.4596 11.2283 92.2882L11.2338 92.2796C12.1219 90.8819 12.9655 89.5544 13.9118 88.2483C16.4194 84.7958 15.7873 79.8368 14.1974 76.0534C13.3695 74.0831 12.2051 72.2217 10.814 70.7588C9.44138 69.3153 7.71469 68.1241 5.7494 67.7854L5.73946 67.7836L5.72948 67.782C4.92329 67.6515 4.12956 67.4679 3.26025 67.2668L3.07567 67.2242C2.15826 67.0123 1.15794 66.7858 0.11647 66.6412L0.113373 66.6407C0.0715334 66.635 0.0338364 66.629 0 66.6228V49.2747C0.88924 49.1945 1.84276 48.9954 2.65434 48.8259C2.97442 48.759 3.27277 48.6967 3.53603 48.6482L3.54495 48.6466L3.55386 48.6449C11.1039 47.1829 16.4603 39.9107 15.5958 32.3221L15.5953 32.318C15.4212 30.8168 14.8057 29.4167 14.1556 28.3182C13.2593 26.7345 12.2538 25.1793 11.2608 23.6434L10.9511 23.1641C14.3696 18.6497 18.2665 14.7679 22.6862 11.3127C22.9847 11.081 23.1618 10.9925 23.2436 10.9599C23.3089 10.9974 23.4327 11.0827 23.6247 11.2666L23.6424 11.2836L23.6606 11.3002C24.2555 11.8428 24.9763 12.2974 25.5 12.6277ZM15.9493 58.0185V58.0225C15.9493 81.1157 34.8672 100.018 58.0153 100.109C81.3026 100.201 100.314 81.3394 100.36 58.1137C100.406 34.7916 81.4766 16.023 58.1109 16.023C34.9133 16.023 15.9953 34.8843 15.9493 58.0185Z" fill="#E30613"/>
<path d="M66.9275 115.94C66.9275 115.94 66.93 115.935 66.9373 115.926C66.9315 115.937 66.9275 115.94 66.9275 115.94Z" fill="#E30613"/>
<path d="M23.1871 10.9329C23.1871 10.9329 23.1903 10.9334 23.1971 10.9362C23.1905 10.9345 23.1871 10.9329 23.1871 10.9329Z" fill="#E30613"/>
<path d="M40.2188 70H35.3906V56.7812L35.4375 54.6094L35.5156 52.2344C34.7135 53.0365 34.1562 53.5625 33.8438 53.8125L31.2188 55.9219L28.8906 53.0156L36.25 47.1562H40.2188V70ZM62.4062 58.5781C62.4062 62.5677 61.75 65.5208 60.4375 67.4375C59.1354 69.3542 57.125 70.3125 54.4062 70.3125C51.7708 70.3125 49.7812 69.3229 48.4375 67.3438C47.1042 65.3646 46.4375 62.4427 46.4375 58.5781C46.4375 54.5469 47.0885 51.5781 48.3906 49.6719C49.6927 47.7552 51.6979 46.7969 54.4062 46.7969C57.0417 46.7969 59.0312 47.7969 60.375 49.7969C61.7292 51.7969 62.4062 54.724 62.4062 58.5781ZM51.2344 58.5781C51.2344 61.3802 51.474 63.3906 51.9531 64.6094C52.4427 65.8177 53.2604 66.4219 54.4062 66.4219C55.5312 66.4219 56.3438 65.8073 56.8438 64.5781C57.3438 63.349 57.5938 61.349 57.5938 58.5781C57.5938 55.776 57.3385 53.7656 56.8281 52.5469C56.3281 51.3177 55.5208 50.7031 54.4062 50.7031C53.2708 50.7031 52.4583 51.3177 51.9688 52.5469C51.4792 53.7656 51.2344 55.776 51.2344 58.5781Z" fill="#E30613"/>
<path d="M67.3438 53.9688C67.3438 55.7396 67.5365 57.0677 67.9219 57.9531C68.3073 58.8385 68.9323 59.2812 69.7969 59.2812C71.5052 59.2812 72.3594 57.5104 72.3594 53.9688C72.3594 50.4479 71.5052 48.6875 69.7969 48.6875C68.9323 48.6875 68.3073 49.125 67.9219 50C67.5365 50.875 67.3438 52.1979 67.3438 53.9688ZM74.5 53.9688C74.5 56.3438 74.099 58.1406 73.2969 59.3594C72.5052 60.5677 71.3385 61.1719 69.7969 61.1719C68.3385 61.1719 67.2031 60.5521 66.3906 59.3125C65.5885 58.0729 65.1875 56.2917 65.1875 53.9688C65.1875 51.6042 65.5729 49.8229 66.3438 48.625C67.125 47.4271 68.276 46.8281 69.7969 46.8281C71.3073 46.8281 72.4688 47.4479 73.2812 48.6875C74.0938 49.9271 74.5 51.6875 74.5 53.9688ZM81.0938 63.125C81.0938 64.9062 81.2865 66.2396 81.6719 67.125C82.0573 68 82.6875 68.4375 83.5625 68.4375C84.4375 68.4375 85.0833 68.0052 85.5 67.1406C85.9167 66.2656 86.125 64.9271 86.125 63.125C86.125 61.3438 85.9167 60.026 85.5 59.1719C85.0833 58.3073 84.4375 57.875 83.5625 57.875C82.6875 57.875 82.0573 58.3073 81.6719 59.1719C81.2865 60.026 81.0938 61.3438 81.0938 63.125ZM88.2656 63.125C88.2656 65.4896 87.8646 67.2812 87.0625 68.5C86.2708 69.7083 85.1042 70.3125 83.5625 70.3125C82.0833 70.3125 80.9427 69.6927 80.1406 68.4531C79.349 67.2135 78.9531 65.4375 78.9531 63.125C78.9531 60.7604 79.3385 58.9792 80.1094 57.7812C80.8906 56.5833 82.0417 55.9844 83.5625 55.9844C85.0417 55.9844 86.1927 56.599 87.0156 57.8281C87.849 59.0469 88.2656 60.8125 88.2656 63.125ZM84.2344 47.1562L71.5625 70H69.2656L81.9375 47.1562H84.2344Z" fill="#2E3541"/>
</svg>
