<svg width="20" height="31" viewBox="0 0 20 31" fill="none" xmlns="http://www.w3.org/2000/svg">
<path d="M10.6914 25.2441H12.0215V21.7168H12.9268V26H7.53906V21.7168H8.44727V25.2441H9.77734V21.7168H10.6914V25.2441Z" fill="black"/>
<path d="M20 9H15.83L19.07 5.76L17.66 4.34L13 9H11V7L15.66 2.34L14.24 0.93L11 4.17V0H9V4.17L5.76 0.93L4.34 2.34L9 7V9H7L2.34 4.34L0.93 5.76L4.17 9H3.04806e-09V11H4.17L0.93 14.24L2.34 15.66L7 11H13L17.66 15.66L19.07 14.24L15.83 11H20V9Z" fill="#248AB1"/>
<path d="M9.99999 15.0754L17.8778 27.6872H2.12221L9.99999 15.0754ZM12.4598 14.3634C11.3237 12.5455 8.67625 12.5455 7.54013 14.3634L0.445561 25.7147C-0.761973 27.6467 0.62704 30.1529 2.90541 30.1529H17.0946C19.3729 30.1529 20.762 27.6467 19.5544 25.7147L12.4598 14.3634Z" fill="#E40B12"/>
</svg>
