<svg width="20" height="20" viewBox="0 0 20 20" fill="none" xmlns="http://www.w3.org/2000/svg">
<path d="M14.573 1.96477C14.5731 1.96477 14.5731 1.96477 14.5731 1.96477L14.5799 1.97404C14.5825 1.9786 14.5846 1.98246 14.5861 1.9856C14.5843 1.98973 14.5816 1.99506 14.578 2.0016L14.6158 2.02287L14.6598 2.08271L14.7959 2.16129L14.7991 2.16316L14.8153 2.13512L15.2316 2.36931C14.8483 3.04825 14.4552 3.7216 14.0621 4.39495L14.0621 4.39503L14.062 4.39514L14.062 4.39519C13.8502 4.76205 13.3893 4.88121 13.0287 4.67736M14.573 1.96477L14.5786 2.00054C14.1982 2.6741 13.8078 3.34288 13.4143 4.01708L13.4125 4.02019C13.4111 4.02254 13.4101 4.02372 13.4097 4.02416L13.409 4.02493C13.4087 4.02511 13.408 4.02559 13.4066 4.02596C13.4051 4.02636 13.4037 4.02642 13.4026 4.02629C13.4019 4.02621 13.4005 4.02601 13.3979 4.0245L13.0287 4.67736M14.573 1.96477C14.172 2.6448 13.7773 3.32849 13.389 4.01585L13.3888 4.01625L13.3884 4.01696C13.3885 4.01702 13.3885 4.01708 13.3885 4.01714C13.3896 4.01846 13.3921 4.02124 13.3978 4.02447M14.573 1.96477L13.3978 4.02447M13.0287 4.67736C12.6649 4.47164 12.5255 4.01891 12.736 3.64693L13.3978 4.02447M13.0287 4.67736L13.3978 4.02447M10.7154 0.775869C10.7229 1.55563 10.7192 2.33539 10.7154 3.11515C10.7154 3.53877 10.3759 3.87242 9.96165 3.87617M10.7154 0.775869C10.7117 0.442221 10.5438 0.202295 10.2378 0.0635873M10.7154 0.775869L10.2378 0.781211M10.7154 0.775869L10.2378 0.78044V0.0635873M10.2378 0.0635873H10.2341C10.0288 -0.0263851 9.79373 -0.0226366 9.59969 0.0860801C9.59596 0.0879545 9.59129 0.0907662 9.58663 0.093578C9.58197 0.0963897 9.5773 0.0992014 9.57357 0.101076M10.2378 0.0635873L10.2341 0.0718174L10.1245 0.313547L9.94677 0.705562L9.94132 0.717587L9.78665 0.458295L9.57357 0.101076M9.57357 0.101076C9.33475 0.243532 9.19295 0.457216 9.19295 0.734631C9.18549 1.53314 9.18549 2.33164 9.19295 3.13015C9.19668 3.55752 9.54372 3.87992 9.96165 3.87617M9.57357 0.101076L9.8918 0.734631L9.8951 0.741194L9.91021 0.77128C9.91899 0.766871 9.92669 0.762799 9.933 0.759384C9.9327 0.7599 9.93239 0.760401 9.9321 0.760886C9.9296 0.764932 9.92785 0.766897 9.92779 0.766969C9.92776 0.767005 9.92815 0.766567 9.92909 0.765679C9.93106 0.763811 9.93537 0.760027 9.94279 0.754832M9.96165 3.87617L9.95486 3.1262M9.96165 3.87617L9.95492 3.1262C9.958 3.12616 9.95929 3.12565 9.9599 3.12539C9.96093 3.12495 9.96213 3.12419 9.96321 3.1231C9.96425 3.12207 9.96463 3.12129 9.96475 3.12102L9.96505 3.11996C9.96517 3.11938 9.96543 3.11787 9.96543 3.11515V3.11156L9.96543 3.11156C9.96917 2.3309 9.97286 1.55653 9.96546 0.783047L9.95486 3.1262M9.95486 3.1262C9.9483 3.12625 9.94474 3.1251 9.94317 3.12448C9.9431 3.12445 9.94303 3.12442 9.94296 3.12439M9.95486 3.1262L9.96813 0.765914C9.96846 0.766432 9.96881 0.766959 9.96917 0.767493C9.97176 0.77132 9.97363 0.773151 9.97362 0.773158C9.97362 0.773162 9.973 0.77257 9.97156 0.771414C9.97014 0.77027 9.96785 0.768537 9.96454 0.766322M9.94296 3.12439L9.94292 3.1236L9.94292 3.12314C9.93554 2.3337 9.9355 1.54427 9.94279 0.754832M9.94296 3.12439L9.94309 3.1268L9.94321 3.12768C9.94319 3.12761 9.94316 3.1275 9.94311 3.12735L9.94271 3.12629C9.94215 3.12502 9.94153 3.12413 9.94112 3.12361C9.94094 3.12339 9.9408 3.12323 9.94072 3.12316M9.94296 3.12439C9.94227 3.12411 9.94176 3.12383 9.94139 3.12361C9.94102 3.12339 9.94081 3.12323 9.94072 3.12316M9.94279 0.754832C9.9428 0.754827 9.94281 0.754822 9.94282 0.754816M9.94279 0.754832C9.94279 0.754822 9.9428 0.754817 9.9428 0.754807L9.94282 0.754816M9.94282 0.754816L9.95335 0.759433M9.94282 0.754816C9.94311 0.754613 9.9434 0.754408 9.9437 0.754201C9.94728 0.75605 9.95049 0.7578 9.95335 0.759433M9.95335 0.759433C9.95794 0.762053 9.96163 0.764374 9.96454 0.766322M9.95335 0.759433L9.96431 0.76424C9.96439 0.764897 9.96447 0.765591 9.96454 0.766322M9.96454 0.766322C9.965 0.770829 9.96539 0.776757 9.96547 0.784257L10.0089 0.783771M10.0089 0.783771L10.0769 0.813587H10.2341H10.2378V0.781211M10.0089 0.783771L10.2341 0.781253L10.2378 0.781211M10.0089 0.783771L10.2378 0.781211M9.94072 3.12316C9.94071 3.12315 9.9407 3.12314 9.94069 3.12314L9.94068 3.12312C9.94068 3.12312 9.9407 3.12313 9.94072 3.12316ZM19.7533 9.44321V9.44696C20.0816 9.74312 20.0816 10.268 19.757 10.5679L19.2044 10.7815C18.8314 10.7778 18.4583 10.7741 18.0852 10.7741C17.9459 10.7741 17.8066 10.7745 17.6673 10.7749H17.6671C17.3885 10.7757 17.11 10.7765 16.8314 10.7741C16.5329 10.7741 16.2941 10.6466 16.1486 10.3804M19.7533 9.44321C19.6077 9.31575 19.4473 9.23702 19.2458 9.23702M19.7533 9.44321L19.75 9.44696L19.6396 9.57298L19.2591 10.0074C19.2569 10.0054 19.2547 10.0036 19.2527 10.0019C19.2445 9.99502 19.2382 9.99026 19.2336 9.98709C19.2332 9.98709 19.2327 9.98709 19.2323 9.98709M19.7533 9.44321H19.2467L19.2458 9.23702M19.2458 9.23702C18.8987 9.23863 18.5517 9.23817 18.2047 9.23771C17.7419 9.2371 17.2792 9.23649 16.8165 9.24077C16.2269 9.24452 15.865 9.85933 16.1486 10.3804M19.2458 9.23702V9.44321H19.0033V9.44696V9.78051L19.2274 9.98265C19.227 9.98249 19.2266 9.98233 19.2262 9.98218C19.2238 9.98113 19.2245 9.98117 19.2286 9.98374L19.2323 9.98709M16.1486 10.3804L16.801 10.0237C16.7953 10.0207 16.7927 10.0203 16.7955 10.021C16.7968 10.0213 16.7994 10.0218 16.8034 10.0224L16.8066 10.0206C16.8068 10.0209 16.8069 10.0211 16.807 10.0213M16.1486 10.3804L16.8024 10.0246C16.8084 10.028 16.8129 10.0319 16.8151 10.0342C16.817 10.0361 16.814 10.0336 16.8079 10.0229M16.8079 10.0229C16.8137 10.0236 16.8215 10.0241 16.8314 10.0241H16.8382V10.0241C17.1125 10.0265 17.3831 10.0257 17.6589 10.0249C17.7993 10.0245 17.941 10.0241 18.0852 10.0241C18.4622 10.0241 18.8385 10.0278 19.2104 10.0316L19.2122 10.0316L19.2173 10.0316C19.2242 10.0318 19.2286 10.0314 19.2309 10.0312M16.8079 10.0229C16.8076 10.0224 16.8073 10.0219 16.807 10.0213M16.8079 10.0229C16.8072 10.0229 16.8065 10.0228 16.8058 10.0227L16.8073 10.0219C16.8072 10.0217 16.8071 10.0215 16.807 10.0213M19.2309 10.0312C19.2308 10.0313 19.2306 10.0314 19.2305 10.0314C19.2285 10.0327 19.2286 10.0324 19.2304 10.0317C19.2319 10.0311 19.233 10.0309 19.233 10.0309L19.2329 10.0309C19.2326 10.0309 19.232 10.031 19.2309 10.0312ZM19.2309 10.0312C19.2333 10.0296 19.2385 10.0258 19.2464 10.0185L19.2481 10.017C19.2484 10.0167 19.2483 10.0169 19.2486 10.0162C19.2491 10.0148 19.25 10.0118 19.25 10.0077C19.25 10.0058 19.2498 10.0042 19.2496 10.003C19.2495 10.0028 19.2495 10.0027 19.2495 10.0026M19.2495 10.0026L19.2509 10.0039C19.251 10.0039 19.2505 10.0035 19.2499 10.0026L19.2491 10.0013C19.2491 10.0013 19.2493 10.0017 19.2495 10.0026ZM19.2495 10.0026L19.2323 9.98709M19.2323 9.98709C18.8797 9.98866 18.5361 9.98818 18.195 9.98771C17.7385 9.98708 17.2866 9.98645 16.8235 9.99074L16.8213 9.99076C16.8129 9.99081 16.8084 9.99188 16.8068 9.99231C16.8051 9.99277 16.8046 9.99313 16.8046 9.99314C16.8045 9.99319 16.8033 9.99395 16.8019 9.99627C16.8005 9.99859 16.8002 10.0005 16.8001 10.0017C16.8001 10.0023 16.8001 10.0036 16.8007 10.0061C16.8013 10.0084 16.8028 10.0135 16.807 10.0213M17.906 14.6349C17.9086 14.6349 17.9109 14.6346 17.913 14.6342C17.9149 14.6337 17.916 14.6333 17.9165 14.633C17.9167 14.6329 17.9168 14.6329 17.9168 14.6329C17.9167 14.633 17.9166 14.633 17.9165 14.6331C17.9162 14.6333 17.9161 14.6335 17.9165 14.633L17.9193 14.6295L17.921 14.6232C17.923 14.6159 17.9228 14.612 17.9228 14.6108C17.9227 14.6094 17.9225 14.6086 17.9221 14.6076C17.9217 14.6067 17.9204 14.6041 17.9169 14.6001C17.9135 14.5963 17.9068 14.5898 17.8946 14.5826C17.2916 14.2348 16.6913 13.8886 16.0877 13.5463C15.9797 13.4865 15.8862 13.4433 15.8015 13.4152C15.8002 13.4171 15.7989 13.4194 15.7975 13.4222C15.7972 13.4229 15.7969 13.4236 15.7966 13.4244L15.7962 13.4253C15.7963 13.4249 15.7964 13.4246 15.7966 13.4244L17.906 14.6349ZM17.906 14.6349L17.9019 14.6326C17.2008 14.2417 16.5024 13.8393 15.7989 13.4338C15.7978 13.4295 15.7974 13.4254 15.7975 13.4225L17.906 14.6349ZM1.99365 14.6389L1.99602 14.6376C2.39762 14.4173 2.78993 14.1895 3.19111 13.9565C3.34748 13.8656 3.5052 13.774 3.66534 13.6818L3.67067 13.6787L3.67069 13.6788C3.70015 13.6621 3.72818 13.6464 3.75505 13.6313C3.84802 13.5791 3.92721 13.5346 4.00466 13.4869L4.0107 13.4832L4.01072 13.4832C4.02606 13.4739 4.03294 13.4662 4.03547 13.4629C4.03656 13.4614 4.03722 13.4604 4.03759 13.4597C4.03731 13.458 4.03609 13.4526 4.0311 13.4435L1.99365 14.6389ZM1.99365 14.6389C1.99145 14.6401 1.98975 14.6409 1.98853 14.6414C1.98802 14.6412 1.9874 14.6409 1.9867 14.6404C1.9829 14.6381 1.98027 14.6351 1.97895 14.6329C1.97839 14.6319 1.97785 14.6307 1.97738 14.629C1.97694 14.6274 1.97608 14.6235 1.97608 14.6166C1.97608 14.6131 1.97654 14.6087 1.97766 14.6042C1.97808 14.6025 1.97854 14.6009 1.979 14.5996C2.65878 14.2031 3.33481 13.8127 4.01647 13.4337L1.99365 14.6389ZM5.33718 2.00002L4.65538 2.30165L5.37254 1.99221C5.37241 1.99199 5.37228 1.99177 5.37215 1.99156C5.36785 1.98425 5.36516 1.98147 5.3651 1.98144C5.36508 1.98143 5.36539 1.98176 5.36608 1.98235C5.36722 1.98334 5.36908 1.98478 5.37163 1.98631C5.37245 1.9868 5.37328 1.98727 5.37412 1.98771L5.37881 1.98502M5.33718 2.00002L5.34141 2.00633C5.34215 2.00584 5.34305 2.00527 5.3441 2.00463L5.34126 1.99822L5.33718 2.00002ZM5.33718 2.00002L4.92405 1.38318L5.34862 2.00144C5.34992 2.00055 5.35178 1.99879 5.35314 1.9969M5.35314 1.9969C5.35325 1.99687 5.35336 1.99684 5.35347 1.99681C5.35367 1.99622 5.35383 1.99588 5.35389 1.99576C5.35398 1.99557 5.35382 1.99594 5.35326 1.99674C5.35322 1.99679 5.35318 1.99685 5.35314 1.9969ZM5.35314 1.9969C5.35292 1.99696 5.3527 1.99702 5.35248 1.99709L5.15168 1.27447L5.37881 1.98502M5.37881 1.98502L5.37977 1.98801L6.02113 1.61561L5.37881 1.98502ZM9.93545 19.2016L9.93546 19.2028C9.93564 19.225 9.93968 19.2383 9.94222 19.2447C9.9431 19.2469 9.94391 19.2485 9.94458 19.2497C9.94624 19.2499 9.94851 19.25 9.95148 19.25M9.93545 19.2016L9.95792 20M9.93545 19.2016C9.93301 18.9538 9.93382 18.7102 9.93464 18.4609C9.93506 18.3335 9.93549 18.2047 9.93549 18.0731C9.93549 17.9683 9.935 17.8667 9.93452 17.7673C9.93316 17.4821 9.93188 17.2145 9.9424 16.9396H9.94244L9.94265 16.9322C9.94305 16.918 9.94571 16.9016 9.94952 16.8864M9.93545 19.2016L9.90919 16.8348L9.90043 16.8694C9.9223 16.8749 9.93824 16.8811 9.94952 16.8864M9.95148 19.25L9.95792 20M9.95148 19.25C9.95144 19.25 9.95141 19.25 9.95137 19.25L9.95792 20M9.95148 19.25C9.95289 19.25 9.95407 19.2499 9.95505 19.2499M9.95792 20C10.387 19.9962 10.7117 19.6551 10.7154 19.2052M9.95505 19.2499C9.9538 19.252 9.95302 19.2527 9.95317 19.2526C9.95353 19.2522 9.95513 19.2508 9.95748 19.2498C9.95965 19.2488 9.95936 19.2495 9.95505 19.2499ZM9.95505 19.2499C9.95595 19.2483 9.95711 19.2461 9.95833 19.243C9.96111 19.236 9.96503 19.2224 9.96542 19.2009M9.96542 19.2009C9.96542 19.2024 9.96542 19.2038 9.96542 19.2052H10.7154M9.96542 19.2009C9.96543 18.9437 9.96584 18.6878 9.96626 18.4325C9.96708 17.9212 9.96791 17.4122 9.96543 16.8995L9.96542 16.8959C9.96542 16.8957 9.96541 16.8955 9.96541 16.8952M9.96542 19.2009C9.96544 19.2003 9.96544 19.1996 9.96545 19.199L10.7154 19.2052M10.7154 19.2052L9.96541 16.8952M9.96541 16.8952C9.96576 16.8955 9.9661 16.8957 9.96642 16.8959C9.96861 16.8974 9.9702 16.8986 9.97127 16.8995C9.97348 16.9013 9.97353 16.9017 9.97208 16.9C9.97194 16.8999 9.9718 16.8997 9.97165 16.8995C9.97085 16.8985 9.97 16.8973 9.96915 16.8959C9.96779 16.8937 9.96647 16.8911 9.96549 16.8884C9.96385 16.8838 9.96535 16.8851 9.96541 16.8952ZM9.96541 16.8952C9.9617 16.8928 9.95651 16.8898 9.94952 16.8864M9.96541 16.8952L10.7154 16.8959C10.7154 16.521 10.4691 16.2399 10.0848 16.1424M9.94952 16.8864C9.95298 16.8726 9.95739 16.8597 9.96195 16.8502L9.91294 16.8266L10.0848 16.1424M10.0848 16.1424L9.91146 16.8259L9.28624 16.5248C9.4355 16.2249 9.78627 16.0674 10.0848 16.1424ZM1.90594 5.35161C1.90601 5.35157 1.90605 5.35154 1.90605 5.35154C1.90605 5.35154 1.9059 5.35165 1.90556 5.35192C1.90482 5.35208 1.90464 5.35218 1.90492 5.35208L1.90594 5.35161ZM1.90594 5.35161C1.9063 5.35128 1.90668 5.35094 1.90708 5.3506L1.41639 4.78339C1.67387 4.56221 2.04329 4.53971 2.37913 4.7309L1.90594 5.35161ZM13.8686 18.3917L14.5125 18.0072C14.4573 17.9147 14.4088 17.8287 14.3555 17.7342C14.3267 17.6831 14.2965 17.6295 14.2631 17.5711C14.1155 17.3103 13.9671 17.0497 13.8194 16.7901L13.8188 16.7892L13.8184 16.7884C13.6709 16.5293 13.524 16.2712 13.3781 16.0133C13.3699 15.9984 13.3654 15.9875 13.363 15.9807C13.3646 15.9775 13.3668 15.9734 13.3698 15.9684C13.3718 15.9652 13.3736 15.9626 13.3751 15.9606C13.3865 15.9617 13.3951 15.9631 13.4011 15.9644C13.4032 15.9674 13.4057 15.9713 13.4085 15.9761C13.7852 16.643 14.1654 17.3096 14.5448 17.9747C14.5544 17.9917 14.5543 18.0058 14.5521 18.0147C14.5515 18.0172 14.5508 18.0189 14.5503 18.0198C14.5401 18.0255 14.534 18.0265 14.5324 18.0268C14.5304 18.0271 14.53 18.0268 14.5304 18.0269C14.5309 18.027 14.53 18.027 14.5277 18.0253C14.5257 18.0237 14.5193 18.0185 14.5114 18.0053L13.8686 18.3917ZM13.8686 18.3917C14.0962 18.7703 14.5552 18.8866 14.9321 18.6654M13.8686 18.3917C13.8089 18.2917 13.7525 18.1918 13.6961 18.0918C13.6679 18.0418 13.6397 17.9918 13.6111 17.9419C13.4637 17.6813 13.3154 17.4208 13.1671 17.1602L14.9321 18.6654M14.9321 18.6654L14.5508 18.0196L14.9321 18.6654ZM13.3871 4.01473C13.3871 4.01474 13.3871 4.01476 13.3871 4.01477L13.3871 4.01473ZM4.02609 6.55396C4.02461 6.55841 4.02298 6.56205 4.02138 6.565C3.99273 6.55759 3.96891 6.55057 3.95198 6.54479C3.95145 6.54461 3.95093 6.54443 3.95044 6.54426C3.26768 6.16228 2.59151 5.77622 1.91408 5.38573L1.91124 5.3841C1.90615 5.38119 1.90365 5.37898 1.90266 5.37803C1.9016 5.37702 1.90107 5.37629 1.90073 5.37576C1.89998 5.37457 1.89881 5.37203 1.89843 5.36813C1.89805 5.3642 1.89872 5.3613 1.8993 5.35982C1.89955 5.35916 1.89992 5.35838 1.90067 5.35733C1.90126 5.35648 1.90268 5.35461 1.90561 5.3519C1.90648 5.35172 1.90806 5.35146 1.91052 5.35132C1.91992 5.35079 1.95393 5.35186 2.00808 5.38269C2.67726 5.76365 3.34676 6.14852 4.01301 6.53367C4.016 6.53551 4.02095 6.54001 4.0243 6.54816C4.02539 6.55082 4.02588 6.55276 4.02609 6.55396ZM3.93952 6.5402C3.93956 6.5402 3.94047 6.54054 3.94217 6.54128C3.94034 6.54057 3.93949 6.54021 3.93952 6.5402ZM3.16412 10.0354L3.15861 10.0353C2.88775 10.0328 2.61458 10.0336 2.34761 10.0345C2.25164 10.0348 2.15647 10.0351 2.06249 10.0352C2.02544 10.03 1.99014 10.0278 1.95747 10.0278C1.82044 10.0278 1.68605 10.0282 1.55307 10.0287C1.2932 10.0295 1.03869 10.0303 0.780341 10.0279C0.774162 10.0277 0.766846 10.0257 0.760486 10.0219C0.75679 10.0197 0.754824 10.0178 0.753858 10.0166C0.751538 10.0115 0.750675 10.0082 0.750355 10.0068C0.750098 10.0056 0.750025 10.0049 0.750005 10.0046C0.750073 10.0044 0.750229 10.0041 0.750561 10.0035C0.751362 10.0022 0.752658 10.0008 0.754789 9.99957C0.755852 9.99896 0.757943 9.99792 0.761652 9.99692C0.765278 9.99595 0.772122 9.99458 0.783032 9.99451L0.785269 9.99449C1.38557 9.9889 1.98248 9.9896 2.58342 9.9903C2.7847 9.99054 2.98642 9.99077 3.18888 9.99077L3.19012 9.99082L3.19039 9.99086C3.19038 9.99085 3.1904 9.99086 3.19047 9.99088C3.19073 9.99099 3.1922 9.99167 3.19421 9.9936C3.19626 9.99557 3.198 9.998 3.19918 10.0005C3.20019 10.0027 3.20103 10.0054 3.20126 10.0095L3.20138 10.0115C3.20143 10.0124 3.20145 10.0119 3.20137 10.0121C3.20096 10.0131 3.19918 10.0169 3.1945 10.0216C3.18399 10.0323 3.17239 10.0355 3.16412 10.0354ZM17.7076 5.54025L17.7005 5.5442L17.6934 5.5483C17.1013 5.89248 16.5076 6.23545 15.9147 6.57049C15.9045 6.57617 15.8984 6.57781 15.8958 6.57825C15.8948 6.57761 15.8918 6.57533 15.8883 6.56913C15.8862 6.56538 15.8817 6.55632 15.8788 6.53982C15.8818 6.53769 15.8854 6.5352 15.89 6.53245C16.5682 6.13936 17.2409 5.74953 17.9163 5.37126C17.9239 5.37384 17.934 5.38045 17.9416 5.3928C17.9408 5.39472 17.9394 5.39748 17.9368 5.40074C17.9335 5.40497 17.9275 5.41112 17.9166 5.41748L17.9166 5.41741L17.907 5.42317C17.8302 5.46948 17.7677 5.50702 17.7076 5.54025ZM15.8949 6.57835C15.895 6.57835 15.895 6.57835 15.895 6.57835C15.8941 6.57846 15.8941 6.57833 15.8949 6.57835ZM6.53921 15.9704C6.53993 15.9714 6.54051 15.9723 6.54095 15.9731C6.15661 16.6599 5.76918 17.342 5.37486 18.0197C5.36714 18.0176 5.36165 18.015 5.3579 18.0129C5.3542 18.0109 5.35119 18.0087 5.34876 18.0066C5.7203 17.3189 6.11094 16.6365 6.51079 15.9581C6.51235 15.9581 6.51408 15.9582 6.51596 15.9585C6.52092 15.9592 6.52608 15.9609 6.53137 15.9639C6.53549 15.9663 6.53776 15.9686 6.53921 15.9704ZM6.49315 4.04381L6.49192 4.04167C6.11499 3.38726 5.74166 2.72922 5.37193 2.06754L5.36365 2.04884L5.3536 2.02612C5.35084 2.0149 5.35136 2.00567 5.35259 1.99999C5.35646 1.99805 5.36107 1.99593 5.36627 1.99382C5.36869 1.99336 5.37088 1.99301 5.37283 1.99274C5.75822 2.66288 6.14015 3.33715 6.51872 4.01202C6.52839 4.02975 6.53037 4.04073 6.53083 4.04441C6.53096 4.04552 6.53102 4.04635 6.53103 4.04694C6.53095 4.04705 6.53086 4.04717 6.53076 4.0473C6.52961 4.04875 6.5246 4.05466 6.51173 4.06219C6.51161 4.06216 6.51149 4.06212 6.51135 4.06209C6.50985 4.06166 6.50766 4.06074 6.50509 4.05875C6.50293 4.05707 6.49843 4.05306 6.49314 4.04381L6.49315 4.04381ZM14.0589 15.6026L13.413 15.9674L14.0589 15.6026ZM5.75 10C5.75 7.65588 7.65588 5.75 10 5.75C12.3441 5.75 14.25 7.65588 14.25 10C14.25 12.3441 12.3441 14.25 10 14.25C7.65588 14.25 5.75 12.3441 5.75 10Z" stroke="#F8972D" stroke-width="1.5"/>
</svg>
