<svg width="99" height="100" viewBox="0 0 99 100" fill="none" xmlns="http://www.w3.org/2000/svg">
<path d="M39.2174 83.1121C34.1146 82.1386 29.4875 80.1481 25.1545 77.2364C24.9383 77.4797 24.7394 77.7318 24.5231 77.9578C23.3988 79.0964 22.2745 80.2438 21.1242 81.365C19.5847 82.8774 17.3014 82.9122 15.7533 81.4085C14.257 79.9656 12.7954 78.488 11.351 76.9843C9.82022 75.3937 9.86346 73.1164 11.4116 71.5258C12.6224 70.2828 13.8505 69.066 15.0787 67.8404C15.1911 67.7274 15.3295 67.6405 15.4852 67.5188C12.5965 63.1815 10.7024 58.4966 9.74237 53.3771C9.57805 53.3771 9.42237 53.3771 9.27534 53.3771C7.56288 53.3771 5.84177 53.3771 4.12931 53.3771C1.66441 53.3684 0.0038439 51.7082 0.0038439 49.2397C0.0038439 47.3101 -0.00480488 45.3892 0.0038439 43.4596C0.0124927 41.1301 1.68171 39.4352 4.00823 39.4178C5.79853 39.4091 7.58018 39.4091 9.37048 39.4178C9.60399 39.4178 9.75102 39.4091 9.81157 39.0962C10.7543 34.2114 12.6916 29.7437 15.4333 25.6238C15.4679 25.5803 15.4852 25.5282 15.5371 25.4325C15.4333 25.3282 15.3381 25.2066 15.2257 25.1023C14.0149 23.8854 12.7954 22.6685 11.5846 21.443C9.76832 19.6177 9.77697 17.3751 11.5932 15.5411C12.8819 14.2374 14.1792 12.9336 15.4765 11.6385C17.3014 9.81317 19.5241 9.81317 21.349 11.6472C22.6464 12.9423 23.9437 14.246 25.2323 15.5498C25.2496 15.5672 25.2842 15.5846 25.3188 15.6107C25.4572 15.5238 25.6042 15.4368 25.7426 15.3412C29.7557 12.7076 34.106 10.8997 38.8109 9.98701C39.0963 9.93486 39.2174 9.83925 39.2088 9.51765C39.1915 7.75319 39.2001 5.98004 39.2001 4.21558C39.2001 1.66885 40.8607 0 43.3948 0C45.2975 0 47.2003 0 49.103 0C51.3776 0.00869192 53.0901 1.71231 53.0987 4.00697C53.1074 5.8062 53.0987 7.59673 53.0987 9.39596C53.0987 9.55241 53.0987 9.70887 53.0987 9.90009C58.1237 10.8475 62.7421 12.7597 66.9973 15.6281C67.1098 15.5238 67.2222 15.4195 67.3346 15.3152C68.5714 14.0722 69.7995 12.838 71.0363 11.595C72.7834 9.84794 75.0493 9.83925 76.7791 11.5863C78.1283 12.9336 79.4689 14.2895 80.8181 15.6454C82.5305 17.3664 82.5219 19.6611 80.8094 21.3908C79.4775 22.738 78.137 24.0766 76.7791 25.4412C76.8656 25.5803 76.9521 25.7107 77.0386 25.8411C79.6851 29.8915 81.4927 34.2896 82.4959 39.0267C82.5651 39.3396 82.6776 39.4439 82.9976 39.4439C84.7446 39.4265 86.483 39.4352 88.2301 39.4352C90.6777 39.4439 92.3469 41.1301 92.3469 43.5986C92.3469 45.4848 92.3469 47.3623 92.3469 49.2484C92.3469 51.7082 90.669 53.3944 88.2128 53.4031C86.5003 53.4118 84.7792 53.4118 83.0668 53.3944C82.6949 53.3944 82.5565 53.49 82.4873 53.8725C81.9165 56.932 80.9478 59.8612 79.5554 62.6426C79.5035 62.7469 79.4429 62.8425 79.3651 62.9729C79.244 62.8599 79.1402 62.773 79.0451 62.6774C76.3813 60.0003 73.7261 57.3319 71.0623 54.6635C70.846 54.4462 70.7768 54.2636 70.872 53.9507C73.9336 43.7464 70.6039 33.0119 62.3443 26.3626C58.4523 23.2335 54.0328 21.3734 49.0943 20.7911C38.0066 19.4525 27.2389 25.6238 22.6723 35.8889C20.8301 40.035 20.1036 44.3722 20.5274 48.892C21.5739 60.2263 29.8335 69.5353 40.8607 71.8387C44.8045 72.6644 48.7397 72.5514 52.6403 71.5432C53.0122 71.4475 53.2285 71.5084 53.4966 71.7778C56.1863 74.5071 58.8934 77.2103 61.5918 79.9309C61.6956 80.0352 61.8167 80.1134 61.9897 80.2524C61.7735 80.3654 61.6437 80.435 61.5053 80.4958C58.9626 81.6866 56.3074 82.5471 53.5658 83.1121C53.2198 83.1816 53.0987 83.2946 53.1074 83.6684C53.1333 85.3807 53.116 87.0843 53.116 88.7966C53.1074 91.213 51.4382 92.8992 49.0424 92.9079C47.157 92.9079 45.2629 92.9079 43.3775 92.9079C40.9645 92.8992 39.2261 91.1782 39.2088 88.7531C39.2001 87.0408 39.2088 85.3372 39.2088 83.6249C39.2174 83.4598 39.2174 83.3033 39.2174 83.1121Z" fill="#E30613"/>
<path d="M46.4132 31.3778C53.7474 31.3865 59.9313 36.6451 61.1421 43.9116C61.3756 45.3196 61.3756 46.7364 61.2286 48.1532C60.9432 50.8825 61.7475 53.2467 63.6675 55.2024C66.2103 57.7839 68.779 60.348 71.339 62.9208C79.8235 71.4475 88.2993 79.9656 96.7837 88.4837C98.1329 89.8396 98.9286 91.4303 98.8595 93.3685C98.7643 96.2456 97.3113 98.2969 94.734 99.4181C92.1999 100.531 89.8301 100.009 87.7544 98.1839C87.5555 98.01 87.3825 97.8188 87.2009 97.6363C76.1823 86.5628 65.1551 75.498 54.1539 64.4071C52.1387 62.3732 49.7689 61.5909 46.9235 61.7126C41.2585 61.956 36.7871 59.6092 33.6476 54.8894C31.2865 51.3518 30.6897 47.4144 31.5892 43.251C31.6411 43.0163 31.8227 42.7121 32.013 42.6338C32.1687 42.573 32.4887 42.7642 32.653 42.9207C34.599 44.859 36.5277 46.806 38.4736 48.753C40.4196 50.7086 43.4121 50.7086 45.3667 48.7616C46.2489 47.8838 47.1224 47.0059 47.996 46.1193C49.89 44.1897 49.89 41.2692 47.9873 39.3396C45.9462 37.2709 43.8878 35.2196 41.8467 33.1597C41.3018 32.6121 41.4056 32.2122 42.158 31.9949C43.5418 31.5864 44.9602 31.3952 46.4132 31.3778ZM95.1837 93.3164C95.1751 91.6823 93.8691 90.3698 92.2345 90.3785C90.6258 90.3872 89.3371 91.691 89.3285 93.3164C89.3198 94.9679 90.6172 96.2803 92.2518 96.2803C93.8777 96.2803 95.1924 94.9592 95.1837 93.3164Z" fill="#E30613"/>
</svg>
