<svg width="87" height="88" viewBox="0 0 87 88" fill="none" xmlns="http://www.w3.org/2000/svg">
<path d="M39.6226 51.4914C39.6226 52.5731 39.6226 53.6013 39.6226 54.6651C41.5861 54.6651 43.5319 54.6651 45.5221 54.6651C45.5221 56.3817 45.5221 58.0535 45.5221 59.7611C43.5586 59.7611 41.6128 59.7611 39.6315 59.7611C39.6315 61.5223 39.6315 63.2477 39.6315 65C35.1446 65 30.7022 65 26.1887 65C26.1887 63.2745 26.1887 61.5491 26.1887 59.7789C24.4295 59.7789 22.7325 59.7789 21 59.7789C21 58.0714 21 56.3995 21 54.6741C22.7059 54.6741 24.4207 54.6741 26.1621 54.6741C26.1621 44.1068 26.1621 33.5931 26.1621 23.0079C26.3398 23.0079 26.4819 23.0079 26.6241 23.0079C34.3717 23.0079 42.1103 22.9901 49.8579 23.0079C56.6548 23.0258 62.0034 27.8356 62.8208 34.6302C63.1674 37.5626 63.0785 40.4681 61.9501 43.2485C60.0044 48.0047 56.4504 50.6868 51.4039 51.3662C50.702 51.4646 49.9823 51.4735 49.2804 51.4735C46.2418 51.4914 43.2121 51.4824 40.1734 51.4914C39.9957 51.4914 39.8358 51.4914 39.6226 51.4914ZM39.6315 41.6125C41.7372 41.6125 43.8251 41.684 45.9041 41.5857C47.7255 41.4963 48.9516 40.3519 49.2537 38.6265C49.3692 37.9917 49.387 37.3212 49.3426 36.6686C49.1738 34.3888 48.0454 33.164 45.762 33.021C43.7451 32.8869 41.7105 32.9763 39.6848 32.9673C39.6759 32.9673 39.6581 32.9852 39.6226 33.021C39.6315 35.8639 39.6315 38.7337 39.6315 41.6125Z" fill="#E40B12"/>
<path d="M27.2034 78.76C15.2951 73.1133 6.77355 61.4533 5.46254 47.6667H0C1.85726 70.2533 20.612 88 43.5182 88L45.9217 87.89L32.0469 73.92L27.2034 78.76ZM43.5182 0L41.1147 0.11L54.9895 14.08L59.833 9.20333C71.7413 14.8867 80.2629 26.51 81.5375 40.2967H87C85.1792 17.7467 66.4244 0 43.5182 0Z" fill="#E40B12"/>
<path d="M66.0599 78C64.5348 77.5021 63.0054 77.0255 61.4847 76.5064C59.228 75.7447 56.9801 74.9532 54.7322 74.1745C54.1637 73.9787 54.0887 73.8383 54.0799 73.3021C54.0358 70.2255 54.0182 67.1489 54.0006 64.0723C53.9962 63.3489 54.0182 62.6255 54.0314 61.9021C54.0358 61.7064 54.0535 61.5064 54.0799 61.3106C54.1108 61.0766 54.3003 60.9745 54.5427 61.0553C56.8523 61.834 59.1663 62.6128 61.4759 63.3957C63.023 63.9191 64.5701 64.4511 66.1172 64.9745C66.2494 65.0213 66.2935 65.0723 66.2935 65.2085C66.2847 69.0511 66.2847 72.8979 66.2803 76.7404C66.2803 77.0596 66.2626 77.3787 66.2406 77.6979C66.2318 77.8 66.1877 77.8979 66.1568 78C66.1172 78 66.0907 78 66.0599 78Z" fill="#E40B12"/>
<path d="M68.5722 78C68.4312 77.8809 68.3915 77.7319 68.3915 77.5489C68.3915 75.5064 68.3783 73.4638 68.3783 71.4213C68.3783 69.366 68.3915 67.3106 68.3915 65.2511C68.3915 65.1064 68.4268 65.0298 68.581 64.9787C71.6796 63.9319 74.7738 62.8766 77.8679 61.8213C78.6304 61.5617 79.3974 61.3064 80.1599 61.0511C80.4332 60.9617 80.5874 61.034 80.6051 61.3064C80.6447 61.9574 80.68 62.6085 80.68 63.2596C80.6756 66.6979 80.658 70.1319 80.6491 73.5702C80.6491 73.8213 80.4684 73.9149 80.2833 73.9915C79.8293 74.183 79.3709 74.366 78.9037 74.5234C75.8096 75.5915 72.711 76.6511 69.6124 77.7106C69.3127 77.8128 69.0042 77.9021 68.7 77.9957C68.6604 78 68.6163 78 68.5722 78Z" fill="#E40B12"/>
<path d="M67.413 55C67.532 55.0298 67.629 55.0511 67.726 55.0851C70.1678 55.9106 72.6096 56.7362 75.047 57.5702C76.2415 57.9787 77.4316 58.4043 78.626 58.8128C78.8068 58.8766 78.9169 58.9745 78.9214 59.1574C78.9258 59.3489 78.8024 59.4383 78.626 59.4979C76.0432 60.383 73.4647 61.2766 70.8862 62.166C69.7755 62.5489 68.6604 62.9277 67.5452 63.3021C67.4439 63.3362 67.3116 63.3404 67.2147 63.3064C64.0015 62.2085 60.7883 61.1021 57.5752 59.9957C57.0859 59.8255 56.6099 59.634 56.1295 59.4511C56.0766 59.4298 56.0193 59.4085 55.9708 59.3787C55.7504 59.2426 55.7372 59.0681 55.9664 58.966C56.46 58.7404 56.9581 58.5191 57.4694 58.3404C60.568 57.2808 63.6709 56.2298 66.7739 55.1787C66.9855 55.1064 67.2058 55.0553 67.413 55Z" fill="#E40B12"/>
</svg>
