<svg width="87" height="88" viewBox="0 0 87 88" fill="none" xmlns="http://www.w3.org/2000/svg">
<path d="M27.2034 78.76C15.2951 73.1133 6.77355 61.4533 5.46254 47.6667H0C1.85726 70.2533 20.612 88 43.5182 88L45.9217 87.89L32.0469 73.92L27.2034 78.76ZM43.5182 0L41.1147 0.11L54.9895 14.08L59.833 9.20333C71.7413 14.8867 80.2629 26.51 81.5375 40.2967H87C85.1792 17.7467 66.4244 0 43.5182 0Z" fill="#E40B12"/>
<path d="M41.3749 67C38.5455 66.0259 35.7079 65.0934 32.8866 64.0777C28.6997 62.5874 24.5291 61.0388 20.3585 59.5153C19.3036 59.1323 19.1646 58.8575 19.1483 57.8085C19.0665 51.7891 19.0338 45.7697 19.0011 39.7502C18.9929 38.3349 19.0338 36.9195 19.0583 35.5042C19.0665 35.1212 19.0992 34.7299 19.1483 34.3469C19.2055 33.889 19.5571 33.6892 20.0069 33.8474C24.292 35.371 28.5852 36.8945 32.8703 38.4265C35.7406 39.4505 38.6109 40.4912 41.4813 41.5153C41.7266 41.6068 41.8084 41.7068 41.8084 41.9732C41.792 49.4912 41.792 57.0176 41.7838 64.5356C41.7838 65.16 41.7511 65.7845 41.7102 66.4089C41.6939 66.6087 41.6121 66.8002 41.5548 67C41.4813 67 41.4322 67 41.3749 67Z" fill="#E40B12"/>
<path d="M46.0362 67C45.7745 66.7669 45.7009 66.4755 45.7009 66.1175C45.7009 62.1212 45.6764 58.1249 45.6764 54.1286C45.6764 50.1073 45.7009 46.086 45.7009 42.0564C45.7009 41.7734 45.7663 41.6235 46.0525 41.5236C51.8014 39.4755 57.542 37.4107 63.2827 35.346C64.6974 34.8381 66.1203 34.3386 67.535 33.839C68.0421 33.6642 68.3283 33.8057 68.361 34.3386C68.4346 35.6124 68.5 36.8862 68.5 38.16C68.4918 44.8871 68.4591 51.6059 68.4428 58.333C68.4428 58.8242 68.1075 59.0074 67.764 59.1573C66.9217 59.5319 66.0713 59.8899 65.2044 60.198C59.4638 62.2877 53.7149 64.3608 47.9661 66.4339C47.41 66.6337 46.8376 66.8085 46.2733 66.9917C46.1997 67 46.1179 67 46.0362 67Z" fill="#E40B12"/>
<path d="M43.8855 22C44.1063 22.0583 44.2862 22.0999 44.4661 22.1665C48.9965 23.7817 53.5268 25.3969 58.049 27.0287C60.2652 27.8279 62.4731 28.6605 64.6892 29.4598C65.0245 29.5846 65.229 29.7761 65.2371 30.1341C65.2453 30.5088 65.0163 30.6836 64.6892 30.8002C59.8972 32.5319 55.1133 34.2803 50.3294 36.0204C48.2686 36.7697 46.1997 37.5106 44.1308 38.2433C43.9427 38.3099 43.6974 38.3182 43.5175 38.2516C37.556 36.1036 31.5945 33.9389 25.6331 31.7743C24.7254 31.4413 23.8422 31.0666 22.9508 30.7086C22.8527 30.667 22.7464 30.6253 22.6564 30.5671C22.2476 30.3006 22.223 29.9593 22.6483 29.7595C23.5642 29.3182 24.4882 28.8853 25.4368 28.5356C31.1857 26.4625 36.9427 24.4061 42.6997 22.3497C43.0922 22.2081 43.5011 22.1082 43.8855 22Z" fill="#E40B12"/>
</svg>
